SplineFontDB: 3.2
FontName: Unageo-Italic-Variable
FullName: Unageo-Italic Variable
FamilyName: Unageo-Italic
Weight: Variable
Copyright: Copyright 2023 The Unageo Project Authors (https://github.com/RichardSepsi/Unageo)
UComments: "2023-12-24: Created with FontForge (http://fontforge.org)"
Version: 2.0
ItalicAngle: -8
UnderlinePosition: -100
UnderlineWidth: 50
Ascent: 800
Descent: 200
InvalidEm: 0
LayerCount: 2
Layer: 0 0 "Back" 1
Layer: 1 0 "Fore" 0
XUID: [1021 442 -170519175 30473]
FSType: 0
OS2Version: 0
OS2_WeightWidthSlopeOnly: 0
OS2_UseTypoMetrics: 1
CreationTime: 1703449507
ModificationTime: 1704311033
PfmFamily: 33
TTFWeight: 900
TTFWidth: 5
LineGap: 0
VLineGap: 0
OS2TypoAscent: 800
OS2TypoAOffset: 0
OS2TypoDescent: -200
OS2TypoDOffset: 0
OS2TypoLinegap: 90
OS2WinAscent: 910
OS2WinAOffset: 0
OS2WinDescent: 220
OS2WinDOffset: 0
HheadAscent: 950
HheadAOffset: 0
HheadDescent: -250
HheadDOffset: 0
OS2CapHeight: 700
OS2XHeight: 500
OS2Vendor: 'PfEd'
MarkAttachClasses: 1
DEI: 91125

StartChar: A
Encoding: 65 65 0
GlifName: A_
Width: 654
Flags: W
HStem: 0 21G<7 187.247 472.914 648> 93 170<300 423> 680 20G<323.686 507.143>
LayerCount: 2
Fore
SplineSet
300 263 m 1
 423 263 l 1
 385 446 l 1
 300 263 l 1
221 93 m 1
 178 0 l 1
 7 0 l 1
 333 700 l 1
 503 700 l 1
 648 0 l 1
 477 0 l 1
 458 93 l 1
 221 93 l 1
EndSplineSet
Validated: 1
EndChar

StartChar: B
Encoding: 66 66 1
GlifName: B_
Width: 581
Flags: W
HStem: 0 170<242 412.699> 278 170<281 401.483> 530 170<293 409.622>
LayerCount: 2
Fore
SplineSet
258 278 m 1
 242 170 l 1
 361 170 l 2
 378 170 392 175 405 185 c 0
 418 195 426 208 428 224 c 0
 430 240 426 253 416 263 c 0
 406 273 393 278 376 278 c 2
 258 278 l 1
293 530 m 1
 281 448 l 1
 362 448 l 2
 378 448 391 452 402 459 c 0
 413 466 418 476 420 489 c 0
 422 502 418 512 410 519 c 0
 402 526 390 530 374 530 c 2
 293 530 l 1
155 700 m 1
 417 700 l 2
 471 700 514 680 546 640 c 0
 578 600 591 552 583 495 c 0
 577 456 562 419 537 386 c 1
 558 365 573 340 582 311 c 0
 591 282 593 250 588 218 c 0
 580 158 553 107 506 64 c 0
 459 21 408 0 351 0 c 2
 57 0 l 1
 155 700 l 1
EndSplineSet
Validated: 33
EndChar

StartChar: C
Encoding: 67 67 2
GlifName: C_
Width: 625
Flags: W
HStem: -12 170<308.079 476.6> 542 170<357.561 524.638>
LayerCount: 2
Fore
SplineSet
467 712 m 0
 514 712 557 702 596 683 c 0
 635 664 669 638 696 605 c 1
 565 485 l 1
 535 523 494 542 444 542 c 0
 394 542 348 523 307 485 c 0
 266 447 241 403 234 350 c 0
 227 297 239 252 269 214 c 0
 299 176 340 158 390 158 c 0
 440 158 485 177 526 214 c 1
 623 94 l 1
 587 61 546 35 502 16 c 0
 458 -3 413 -12 366 -12 c 0
 268 -12 191 24 134 97 c 0
 80 167 59 252 73 350 c 0
 87 448 131 532 205 602 c 0
 283 675 370 712 467 712 c 0
EndSplineSet
Validated: 33
EndChar

StartChar: D
Encoding: 68 68 3
GlifName: D_
Width: 671
Flags: W
HStem: 0 170<242 422.736> 530 170<293 467.719>
LayerCount: 2
Fore
SplineSet
390 530 m 2
 293 530 l 1
 242 170 l 1
 339 170 l 2
 387 170 430 187 468 222 c 0
 506 257 529 300 536 350 c 0
 543 400 532 443 504 478 c 0
 476 513 438 530 390 530 c 2
414 700 m 2
 506 700 579 666 634 598 c 0
 689 530 711 447 697 350 c 0
 683 253 640 170 565 102 c 0
 490 34 407 0 315 0 c 2
 57 0 l 1
 155 700 l 1
 414 700 l 2
EndSplineSet
Validated: 33
EndChar

StartChar: E
Encoding: 69 69 4
GlifName: E_
Width: 556
Flags: W
HStem: 0 170<242 509> 266 169<280 479> 530 170<293 583>
LayerCount: 2
Fore
SplineSet
57 0 m 1
 155 700 l 1
 607 700 l 1
 583 530 l 1
 293 530 l 1
 280 435 l 1
 503 435 l 1
 479 266 l 1
 256 266 l 1
 242 170 l 1
 533 170 l 1
 509 0 l 1
 57 0 l 1
EndSplineSet
Validated: 1
EndChar

StartChar: F
Encoding: 70 70 5
GlifName: F_
Width: 535
Flags: W
HStem: 0 21G<57 220.868> 258 170<279 483> 530 170<293 587>
VStem: 57 161<0 161>
LayerCount: 2
Fore
SplineSet
57 0 m 1
 155 700 l 1
 610 700 l 1
 587 530 l 1
 293 530 l 1
 279 428 l 1
 507 428 l 1
 483 258 l 1
 255 258 l 1
 218 0 l 1
 57 0 l 1
EndSplineSet
Validated: 1
EndChar

StartChar: G
Encoding: 71 71 6
GlifName: G_
Width: 725
Flags: W
HStem: -12 170<309.466 476.966> 264 170<426 568> 542 170<356.975 525.587>
LayerCount: 2
Fore
SplineSet
468 712 m 0
 514 712 556 702 596 684 c 0
 636 666 669 639 696 605 c 1
 565 485 l 1
 535 523 494 542 444 542 c 0
 394 542 348 522 307 485 c 0
 266 448 241 403 234 350 c 0
 227 297 239 251 269 214 c 0
 299 177 340 158 390 158 c 0
 440 158 485 177 526 214 c 0
 542 229 556 245 568 264 c 1
 402 264 l 1
 426 434 l 1
 773 434 l 1
 761 350 l 2
 747 251 701 165 623 94 c 0
 586 60 546 33 501 15 c 0
 456 -3 412 -12 366 -12 c 0
 270 -12 193 23 136 94 c 0
 80 164 59 250 73 350 c 0
 87 451 132 536 210 607 c 0
 287 677 373 712 468 712 c 0
EndSplineSet
Validated: 33
EndChar

StartChar: H
Encoding: 72 72 7
GlifName: H_
Width: 691
Flags: W
HStem: 0 21G<57 220.878 473 637.8> 271 170<280 511> 681 19G<153.175 317 568.22 733>
VStem: 57 161<0 161> 156 161<540 701> 473 162<0 162> 571 162<538 700>
LayerCount: 2
Fore
SplineSet
57 0 m 1xf4
 156 701 l 1
 317 701 l 1
 280 441 l 1
 535 441 l 1
 571 700 l 1
 733 700 l 1xea
 635 0 l 1
 473 0 l 1
 511 271 l 1
 257 271 l 1
 218 0 l 1
 57 0 l 1xf4
EndSplineSet
Validated: 1
EndChar

StartChar: I
Encoding: 73 73 8
GlifName: I_
Width: 275
Flags: W
HStem: 0 21G<57 220.829> 680 20G<152.2 317>
VStem: 57 161<0 161> 155 162<538 700>
LayerCount: 2
Fore
SplineSet
57 0 m 1xe0
 155 700 l 1
 317 700 l 1xd0
 218 0 l 1
 57 0 l 1xe0
EndSplineSet
Validated: 1
EndChar

StartChar: J
Encoding: 74 74 9
GlifName: J_
Width: 437
Flags: W
HStem: -16 170<127.051 237.393> 680 20G<324.214 489>
VStem: 327 162<538 700>
LayerCount: 2
Fore
SplineSet
327 700 m 1
 489 700 l 1
 421 219 l 2
 412 154 382 99 332 53 c 0
 282 7 227 -16 165 -16 c 0
 103 -16 54 7 17 53 c 1
 148 173 l 1
 158 160 172 154 189 154 c 0
 206 154 221 160 235 173 c 0
 249 186 257 201 260 219 c 2
 327 700 l 1
EndSplineSet
Validated: 1
EndChar

StartChar: K
Encoding: 75 75 10
GlifName: K_
Width: 644
Flags: W
HStem: 0 21G<57 220.814 428.655 635> 680 20G<152.2 317 483.525 712>
VStem: 57 161<0 161> 155 162<538 700>
LayerCount: 2
Fore
SplineSet
57 0 m 1xe0
 155 700 l 1
 317 700 l 1xd0
 284 464 l 1
 502 700 l 1
 712 700 l 1
 431 397 l 1
 635 0 l 1
 439 0 l 1
 304 261 l 1
 246 199 l 1
 218 0 l 1
 57 0 l 1xe0
EndSplineSet
Validated: 1
EndChar

StartChar: L
Encoding: 76 76 11
GlifName: L_
Width: 525
Flags: W
HStem: 0 170<242 506> 680 20G<152.2 317>
VStem: 155 162<538 700>
LayerCount: 2
Fore
SplineSet
57 0 m 1
 155 700 l 1
 317 700 l 1
 242 170 l 1
 530 170 l 1
 506 0 l 1
 57 0 l 1
EndSplineSet
Validated: 1
EndChar

StartChar: M
Encoding: 77 77 12
GlifName: M_
Width: 785
Flags: W
HStem: 0 21G<10 178.306 613 776.286> 680 20G<191.657 380.202 597.181 786>
VStem: 10 163<0 163> 613 163<0 343>
LayerCount: 2
Fore
SplineSet
197 700 m 1
 377 700 l 1
 438 319 l 1
 606 700 l 1
 786 700 l 1
 776 0 l 1
 613 0 l 1
 618 343 l 1
 483 38 l 1
 314 38 l 1
 264 343 l 1
 173 0 l 1
 10 0 l 1
 197 700 l 1
EndSplineSet
Validated: 1
EndChar

StartChar: N
Encoding: 78 78 13
GlifName: N_
Width: 677
Flags: W
HStem: 0 21G<57 220.828 449.437 622.829> 680 20G<152.2 326.563 554.224 719>
VStem: 57 161<0 161> 557 162<538 700>
LayerCount: 2
Fore
SplineSet
155 700 m 1
 317 700 l 1
 503 311 l 1
 557 700 l 1
 719 700 l 1
 620 0 l 1
 459 0 l 1
 273 389 l 1
 218 0 l 1
 57 0 l 1
 155 700 l 1
EndSplineSet
Validated: 1
EndChar

StartChar: O
Encoding: 79 79 14
GlifName: O_
Width: 735
Flags: W
HStem: -12 170<308.326 478.896> 542 170<358.309 523.986>
LayerCount: 2
Fore
SplineSet
444 542 m 0
 394 542 348 523 307 485 c 0
 266 447 241 403 234 350 c 0
 227 297 239 252 269 214 c 0
 299 176 340 158 390 158 c 0
 440 158 486 176 527 214 c 0
 568 252 592 297 599 350 c 0
 606 403 595 447 565 485 c 0
 535 523 494 542 444 542 c 0
468 712 m 0
 562 712 638 677 695 608 c 0
 753 537 775 452 761 350 c 0
 747 247 699 159 619 88 c 0
 543 21 459 -12 366 -12 c 0
 269 -12 192 23 135 95 c 0
 79 165 59 251 73 350 c 0
 87 449 131 534 207 604 c 0
 284 676 372 712 468 712 c 0
EndSplineSet
Validated: 33
EndChar

StartChar: P
Encoding: 80 80 15
GlifName: P_
Width: 568
Flags: W
HStem: 0 21G<57 220.857> 210 170<272 435.39> 530 170<293 449.535>
VStem: 57 161<0 161>
LayerCount: 2
Fore
SplineSet
293 530 m 1
 272 380 l 1
 384 380 l 2
 403 380 421 387 437 402 c 0
 453 417 463 435 466 455 c 0
 469 475 464 493 452 508 c 0
 440 523 424 530 405 530 c 2
 293 530 l 1
155 700 m 1
 429 700 l 2
 493 700 544 676 583 628 c 0
 622 580 636 522 627 455 c 0
 618 388 587 330 535 282 c 0
 483 234 424 210 360 210 c 2
 248 210 l 1
 218 0 l 1
 57 0 l 1
 155 700 l 1
EndSplineSet
Validated: 33
EndChar

StartChar: Q
Encoding: 81 81 16
GlifName: Q_
Width: 735
Flags: W
HStem: -12 170<308.079 448.655> 542 170<358.309 523.686>
LayerCount: 2
Fore
SplineSet
444 542 m 0
 394 542 348 523 307 485 c 0
 266 447 241 403 234 350 c 0
 227 297 239 252 269 214 c 0
 299 176 340 158 390 158 c 0
 411 158 431 161 450 167 c 1
 407 221 l 1
 538 341 l 1
 581 287 l 1
 590 306 596 328 599 350 c 0
 606 403 595 447 565 485 c 0
 535 523 494 542 444 542 c 0
468 712 m 0
 561 712 636 678 693 610 c 0
 753 539 775 453 761 350 c 0
 751 279 726 216 685 160 c 1
 727 108 l 1
 596 -12 l 1
 553 40 l 1
 495 5 433 -12 366 -12 c 0
 268 -12 191 24 134 97 c 0
 80 167 59 252 73 350 c 0
 87 449 131 534 207 604 c 0
 284 676 372 712 468 712 c 0
EndSplineSet
Validated: 33
EndChar

StartChar: R
Encoding: 82 82 17
GlifName: R_
Width: 577
Flags: W
HStem: 0 21G<57 220.857 386.905 563> 530 170<293 449.535>
VStem: 57 161<0 161> 391 172<0 172>
LayerCount: 2
Fore
SplineSet
293 530 m 1
 272 380 l 1
 384 380 l 2
 403 380 421 387 437 402 c 0
 453 417 463 435 466 455 c 0
 469 475 464 493 452 508 c 0
 440 523 424 530 405 530 c 2
 293 530 l 1
155 700 m 1
 429 700 l 2
 493 700 544 676 583 628 c 0
 622 580 636 522 627 455 c 0
 622 416 609 380 588 346 c 0
 567 312 541 284 510 261 c 1
 563 0 l 1
 391 0 l 1
 348 210 l 1
 248 210 l 1
 218 0 l 1
 57 0 l 1
 155 700 l 1
EndSplineSet
Validated: 33
EndChar

StartChar: S
Encoding: 83 83 18
GlifName: S_
Width: 526
Flags: W
HStem: -12 170<224.844 342.275> 508 21G<389.5 463.636> 542 170<277.906 385.286>
LayerCount: 2
Fore
SplineSet
359 712 m 0
 410 712 454 697 490 667 c 0
 526 637 547 599 552 552 c 1
 390 508 l 1
 389 518 383 527 373 533 c 0
 363 539 351 542 336 542 c 0
 318 542 302 538 289 530 c 0
 276 522 268 511 266 496 c 0
 265 486 268 477 277 470 c 0
 288 460 308 453 336 448 c 0
 401 436 452 411 488 373 c 0
 524 335 538 284 529 219 c 0
 520 154 489 98 436 54 c 0
 383 10 324 -12 258 -12 c 0
 203 -12 157 4 118 36 c 0
 79 68 57 109 51 159 c 1
 213 203 l 1
 215 190 222 179 235 171 c 0
 248 163 264 158 282 158 c 0
 304 158 323 163 339 174 c 0
 355 185 364 200 367 219 c 0
 369 234 364 247 353 257 c 0
 340 269 318 278 286 284 c 0
 226 295 179 319 144 354 c 0
 109 389 97 436 105 496 c 0
 114 557 142 609 192 650 c 0
 242 691 297 712 359 712 c 0
EndSplineSet
Validated: 33
EndChar

StartChar: T
Encoding: 84 84 19
GlifName: T_
Width: 584
Flags: W
HStem: 0 21G<211 375.792> 530 170<115 286 447 643>
VStem: 211 162<0 162>
LayerCount: 2
Fore
SplineSet
115 700 m 1
 666 700 l 1
 643 530 l 1
 447 530 l 1
 373 0 l 1
 211 0 l 1
 286 530 l 1
 91 530 l 1
 115 700 l 1
EndSplineSet
Validated: 1
EndChar

StartChar: U
Encoding: 85 85 20
GlifName: U_
Width: 665
Flags: W
HStem: -12 170<293.717 421.996> 680 20G<143.173 307 551.225 716>
VStem: 146 161<539 700> 554 162<538 700>
LayerCount: 2
Fore
SplineSet
146 700 m 1
 307 700 l 1
 254 318 l 2
 247 269 253 231 273 202 c 0
 293 173 320 158 355 158 c 0
 390 158 421 173 449 202 c 0
 477 231 494 269 501 318 c 2
 554 700 l 1
 716 700 l 1
 662 318 l 2
 649 222 610 143 546 81 c 0
 482 19 411 -12 331 -12 c 0
 251 -12 188 19 142 81 c 0
 96 143 79 222 92 318 c 2
 146 700 l 1
EndSplineSet
Validated: 33
EndChar

StartChar: V
Encoding: 86 86 21
GlifName: V_
Width: 654
Flags: W
HStem: 0 21G<239.057 422.514> 680 20G<105 279.946 565.538 746>
VStem: 105 171<529 700>
LayerCount: 2
Fore
SplineSet
105 700 m 1
 276 700 l 1
 364 254 l 1
 575 700 l 1
 746 700 l 1
 413 0 l 1
 243 0 l 1
 105 700 l 1
EndSplineSet
Validated: 1
EndChar

StartChar: W
Encoding: 87 87 22
GlifName: W_
Width: 911
Flags: W
HStem: 0 21G<187.571 368.011 551.581 732> 680 20G<105 278.419 461.043 642.419 825.043 1004>
VStem: 105 171<529 700>
LayerCount: 2
Fore
SplineSet
833 700 m 1
 1004 700 l 1
 724 0 l 1
 554 0 l 1
 509 372 l 1
 360 0 l 1
 190 0 l 1
 105 700 l 1
 276 700 l 1
 321 328 l 1
 469 700 l 1
 640 700 l 1
 685 328 l 1
 833 700 l 1
EndSplineSet
Validated: 1
EndChar

StartChar: X
Encoding: 88 88 23
GlifName: X_
Width: 622
Flags: W
HStem: 0 21G<9 213.479 414.146 613> 680 20G<113 311.852 501.574 705>
LayerCount: 2
Fore
SplineSet
516 700 m 1
 705 700 l 1
 456 355 l 1
 613 0 l 1
 423 0 l 1
 338 192 l 1
 199 0 l 1
 9 0 l 1
 266 355 l 1
 113 700 l 1
 303 700 l 1
 384 517 l 1
 516 700 l 1
EndSplineSet
Validated: 1
EndChar

StartChar: Y
Encoding: 89 89 24
GlifName: Y_
Width: 603
Flags: W
HStem: 0 21G<221 384.857> 680 20G<104 301.061 493.224 696>
VStem: 221 161<0 161>
LayerCount: 2
Fore
SplineSet
104 700 m 1
 293 700 l 1
 372 504 l 1
 507 700 l 1
 696 700 l 1
 426 308 l 5
 382 0 l 1
 221 0 l 1
 264 308 l 1
 104 700 l 1
EndSplineSet
Validated: 1
EndChar

StartChar: Z
Encoding: 90 90 25
GlifName: Z_
Width: 574
Flags: W
HStem: 0 170<269 543> 530 170<130 404>
LayerCount: 2
Fore
SplineSet
28 0 m 1
 52 170 l 1
 404 530 l 1
 106 530 l 1
 130 700 l 1
 645 700 l 1
 621 530 l 1
 269 170 l 1
 567 170 l 1
 543 0 l 1
 28 0 l 1
EndSplineSet
Validated: 1
EndChar

StartChar: a
Encoding: 97 97 26
GlifName: a
Width: 566
Flags: W
HStem: -12 168<241.643 351.904> 0 21G<383 525.84> 344 168<262.621 373.8> 480 20G<450.368 594>
LayerCount: 2
Fore
SplineSet
453 500 m 1x10
 594 500 l 1
 523 0 l 1
 383 0 l 1x50
 387 33 l 1
 383 30 380 27 376 24 c 4
 341 0 301 -12 255 -12 c 0
 187 -12 134 13 96 64 c 0
 58 115 44 177 54 250 c 0
 64 323 96 385 148 436 c 0
 200 487 260 512 328 512 c 0xa0
 373 512 410 499 439 471 c 0
 442 468 445 465 448 462 c 1
 453 500 l 1x10
321 344 m 0xa0
 296 344 274 334 254 316 c 0
 234 298 222 276 218 250 c 0
 214 224 220 202 235 184 c 0
 250 166 270 156 295 156 c 0
 320 156 342 166 362 184 c 0
 382 202 393 224 397 250 c 0
 401 276 395 298 380 316 c 0
 365 334 346 344 321 344 c 0xa0
EndSplineSet
Validated: 33
EndChar

StartChar: b
Encoding: 98 98 27
GlifName: b
Width: 566
Flags: W
HStem: -12 168<262.371 375.325> 0 21G<43 186.03> 344 168<289.231 394.879> 680 20G<138.2 303>
VStem: 141 162<538 700>
LayerCount: 2
Fore
SplineSet
342 344 m 0xb8
 317 344 295 334 275 316 c 0
 255 298 243 276 239 250 c 0
 235 224 241 202 256 184 c 0
 271 166 290 156 315 156 c 0
 340 156 363 166 383 184 c 0
 403 202 414 224 418 250 c 0
 422 276 416 298 401 316 c 0
 386 334 367 344 342 344 c 0xb8
382 512 m 0
 450 512 503 487 541 436 c 0
 579 385 592 323 582 250 c 0
 572 177 540 115 488 64 c 0
 436 13 376 -12 308 -12 c 0xb8
 263 -12 227 0 199 23 c 4
 195 26 191 29 188 33 c 1
 183 0 l 1
 43 0 l 1x78
 141 700 l 1
 303 700 l 1
 272 480 l 1
 278 484 284 488 291 491 c 0
 319 505 350 512 382 512 c 0
EndSplineSet
Validated: 33
EndChar

StartChar: c
Encoding: 99 99 28
GlifName: c
Width: 452
Flags: W
HStem: -12 170<237.367 359.295> 342 170<256.484 397.053>
LayerCount: 2
Fore
SplineSet
340 512 m 0
 409 512 464 486 505 435 c 1
 374 315 l 1
 359 333 340 342 316 342 c 0
 292 342 270 333 250 315 c 0
 230 297 219 275 215 250 c 0
 211 225 217 203 232 185 c 0
 247 167 266 158 290 158 c 0
 314 158 335 167 355 185 c 1
 453 65 l 1
 397 14 335 -12 266 -12 c 0
 197 -12 141 13 100 64 c 0
 59 115 44 177 54 250 c 0
 64 323 97 385 153 436 c 0
 209 487 271 512 340 512 c 0
EndSplineSet
Validated: 33
EndChar

StartChar: d
Encoding: 100 100 29
GlifName: d
Width: 566
Flags: W
HStem: -12 168<241.643 350.396> 344 168<262.621 374.274>
VStem: 460 162<538 700>
LayerCount: 2
Fore
SplineSet
321 344 m 0
 346 344 365 334 380 316 c 0
 395 298 401 276 397 250 c 0
 393 224 382 202 362 184 c 0
 342 166 320 156 295 156 c 0
 270 156 250 166 235 184 c 0
 220 202 214 224 218 250 c 0
 222 276 234 298 254 316 c 0
 274 334 296 344 321 344 c 0
328 512 m 0
 260 512 200 487 148 436 c 0
 96 385 64 323 54 250 c 0
 44 177 58 115 96 64 c 0
 134 13 187 -12 255 -12 c 0
 296 -12 332 -2 364 17 c 4
 372 22 380 27 387 33 c 1
 383 0 l 1
 523 0 l 1
 622 700 l 1
 460 700 l 1
 429 480 l 1
 422 485 416 490 408 494 c 0
 385 506 358 512 328 512 c 0
EndSplineSet
Validated: 41
EndChar

StartChar: e
Encoding: 101 101 30
GlifName: e
Width: 516
Flags: W
HStem: -12 170<243.044 377.736> 190 130<247 370> 352 160<258.172 361.94>
LayerCount: 2
Fore
SplineSet
534 190 m 1
 232 190 l 1
 238 182 246 176 254 171 c 0
 267 163 283 158 300 158 c 0
 330 158 355 167 375 185 c 1
 472 65 l 1
 416 14 351 -12 276 -12 c 0
 207 -12 150 14 106 65 c 0
 62 116 44 178 54 250 c 0
 64 323 97 385 153 436 c 0
 209 487 271 512 340 512 c 0
 405 512 458 486 499 435 c 0
 538 387 553 325 542 250 c 2
 534 190 l 1
314 352 m 0
 298 352 283 348 270 340 c 0
 262 335 254 328 247 320 c 1
 370 320 l 1
 365 329 358 337 350 342 c 0
 340 349 329 352 314 352 c 0
EndSplineSet
Validated: 33
EndChar

StartChar: f
Encoding: 102 102 31
GlifName: f
Width: 373
Flags: W
HStem: 0 21G<90 254.788> 330 170<89 137 322 415> 554 170<332.918 446>
VStem: 90 162<0 162>
LayerCount: 2
Fore
SplineSet
393 724 m 2
 470 724 l 1
 446 554 l 1
 369 554 l 2
 359 554 349 550 340 542 c 0
 331 534 326 523 324 512 c 2
 322 500 l 1
 439 500 l 1
 415 330 l 1
 298 330 l 1
 252 0 l 1
 90 0 l 1
 137 330 l 1
 65 330 l 1
 89 500 l 1
 161 500 l 1
 162 512 l 2
 170 570 197 621 242 662 c 0
 287 703 338 724 393 724 c 2
EndSplineSet
Validated: 1
EndChar

StartChar: g
Encoding: 103 103 32
GlifName: g
Width: 566
Flags: W
HStem: -215 158<131.916 328.774> -33 20G<117.087 153> -13 168<241.247 351.372> 343 168<262.621 374.099> 479 20G<450.368 594>
LayerCount: 2
Fore
SplineSet
328 511 m 0xb0
 370 511 405 499 433 475 c 0
 438 471 444 466 448 461 c 1
 453 499 l 1
 594 499 l 1
 532 59 l 2
 520 -27 489 -94 439 -143 c 0
 389 -192 327 -215 253 -215 c 0
 108 -215 65 -183 35 -151 c 1
 131 -13 l 1xc8
 175 -46 206 -57 266 -57 c 4
 296 -57 320 -48 337 -28 c 0
 346 -18 352 -5 358 9 c 0
 358 10 360 12 360 13 c 1
 358 12 356 11 354 10 c 0
 325 -5 292 -13 255 -13 c 0
 187 -13 134 12 96 63 c 0
 58 114 44 176 54 249 c 0
 64 322 96 384 148 435 c 0
 200 486 260 511 328 511 c 0xb0
321 343 m 0xb0
 296 343 274 333 254 315 c 0
 234 297 222 275 218 249 c 0
 214 223 220 200 235 182 c 0
 250 164 269 155 294 155 c 0
 319 155 341 164 361 182 c 0
 381 200 393 223 397 249 c 0
 401 275 395 297 380 315 c 0
 365 333 346 343 321 343 c 0xb0
EndSplineSet
Validated: 33
EndChar

StartChar: h
Encoding: 104 104 33
GlifName: h
Width: 550
Flags: W
HStem: 0 21G<45 208.803 352 515.812> 342 170<294.856 416.5> 680 20G<140.2 305>
VStem: 45 161<0 161> 143 162<538 700> 352 161<0 161>
LayerCount: 2
Fore
SplineSet
513 0 m 1xec
 352 0 l 1
 389 264 l 2
 392 287 388 306 376 320 c 0
 364 334 348 342 327 342 c 0
 306 342 288 334 272 320 c 0
 256 306 246 287 243 264 c 2
 206 0 l 5
 45 0 l 5xf4
 143 700 l 1
 305 700 l 1
 273 475 l 1
 278 479 283 483 288 486 c 0
 316 504 348 512 385 512 c 0
 448 512 494 488 522 440 c 0
 550 392 560 331 549 256 c 2
 513 0 l 1xec
EndSplineSet
Validated: 33
EndChar

StartChar: i
Encoding: 105 105 34
GlifName: i
Width: 275
Flags: W
HStem: 0 21G<57 220.84> 480 20G<124.2 289> 548 200<182.06 275.94>
VStem: 57 161<0 161> 127 162<338 500>
LayerCount: 2
Fore
SplineSet
57 0 m 1xf0
 127 500 l 1
 289 500 l 1xe8
 218 0 l 1
 57 0 l 1xf0
324 648 m 0
 320 621 307 598 286 578 c 0
 265 558 241 548 215 548 c 0
 189 548 168 558 152 578 c 0
 136 598 130 621 134 648 c 0
 138 675 151 698 172 718 c 0
 193 738 217 748 243 748 c 0
 269 748 290 738 306 718 c 0
 322 698 328 675 324 648 c 0
EndSplineSet
Validated: 33
EndChar

StartChar: j
Encoding: 106 106 35
GlifName: j
Width: 258
Flags: W
HStem: 480 20G<104.22 269> 542 206<159.528 257.472>
VStem: 107 162<338 500>
LayerCount: 2
Fore
SplineSet
107 500 m 1
 269 500 l 1
 206 54 l 2
 196 -20 161 -83 104 -136 c 0
 47 -189 -17 -215 -87 -215 c 1
 -63 -45 l 1
 -37 -45 -14 -35 7 -16 c 0
 28 3 41 27 45 54 c 2
 107 500 l 1
306 645 m 0
 302 616 290 592 268 572 c 0
 246 552 221 542 194 542 c 0
 167 542 145 552 129 572 c 0
 113 592 107 616 111 645 c 0
 115 674 127 698 149 718 c 0
 171 738 196 748 223 748 c 0
 250 748 272 738 288 718 c 0
 304 698 310 674 306 645 c 0
EndSplineSet
Validated: 33
EndChar

StartChar: k
Encoding: 107 107 36
GlifName: k
Width: 558
Flags: W
HStem: 0 21G<43 206.947 337.904 549> 480 20G<383.132 619> 680 20G<138.2 303>
VStem: 141 162<538 700>
LayerCount: 2
Fore
SplineSet
43 0 m 1
 141 700 l 1
 303 700 l 1
 253 349 l 1
 403 500 l 1
 619 500 l 1
 396 275 l 1
 549 0 l 1
 349 0 l 1
 268 146 l 1
 218 95 l 1
 204 0 l 1
 43 0 l 1
EndSplineSet
Validated: 1
EndChar

StartChar: l
Encoding: 108 108 37
GlifName: l
Width: 247
Flags: W
HStem: 0 21G<43 206.829> 680 20G<138.2 303>
VStem: 43 161<0 161> 141 162<538 700>
LayerCount: 2
Fore
SplineSet
141 700 m 1xd0
 303 700 l 1xd0
 204 0 l 1
 43 0 l 1xe0
 141 700 l 1xd0
EndSplineSet
Validated: 1
EndChar

StartChar: m
Encoding: 109 109 38
GlifName: m
Width: 855
Flags: W
HStem: 0 21G<43 206.803 350 513.803 656 820.812> 342 170<294.062 414.5 597.854 721.5> 480 20G<110.2 263>
VStem: 43 161<0 161> 350 161<0 161> 656 162<0 162>
LayerCount: 2
Fore
SplineSet
818 0 m 1xdc
 656 0 l 1
 694 264 l 2
 697 287 693 306 681 320 c 0
 669 334 653 342 632 342 c 0
 611 342 593 334 577 320 c 0
 561 306 551 287 548 264 c 5
 511 0 l 5
 350 0 l 1
 387 264 l 2
 390 287 386 306 374 320 c 0
 362 334 346 342 325 342 c 0xdc
 304 342 286 334 270 320 c 0
 254 306 244 287 241 264 c 2
 204 0 l 1
 43 0 l 1
 113 500 l 1
 263 500 l 1xbc
 258 463 l 1
 261 466 265 469 268 472 c 0
 299 499 337 512 383 512 c 0
 446 512 492 488 520 440 c 0
 522 436 525 432 527 428 c 1
 530 432 534 437 537 441 c 0
 577 488 628 512 690 512 c 0
 753 512 799 488 827 440 c 0
 855 392 865 331 854 256 c 2
 818 0 l 1xdc
EndSplineSet
Validated: 33
EndChar

StartChar: n
Encoding: 110 110 39
GlifName: n
Width: 549
Flags: W
HStem: 0 21G<43 206.803 350 513.812> 342 170<293.556 414.5> 480 20G<110.2 263>
VStem: 43 161<0 161> 350 161<0 161>
LayerCount: 2
Fore
SplineSet
511 0 m 1xd8
 350 0 l 1
 387 264 l 2
 390 287 386 306 374 320 c 0
 362 334 346 342 325 342 c 0xd8
 304 342 286 334 270 320 c 0
 254 306 244 287 241 264 c 2
 204 0 l 1
 43 0 l 1
 113 500 l 1
 263 500 l 1
 258 463 l 1
 264 469 270 475 277 480 c 4xb8
 306 501 342 512 383 512 c 0
 446 512 492 488 520 440 c 0
 548 392 558 331 547 256 c 2
 511 0 l 1xd8
EndSplineSet
Validated: 33
EndChar

StartChar: o
Encoding: 111 111 40
GlifName: o
Width: 535
Flags: W
HStem: -12 170<237.394 349.516> 342 170<256.484 368.606>
LayerCount: 2
Fore
SplineSet
316 342 m 0
 292 342 270 333 250 315 c 0
 230 297 220 275 216 250 c 0
 212 225 217 203 232 185 c 0
 247 167 266 158 290 158 c 0
 314 158 336 167 356 185 c 0
 376 203 386 225 390 250 c 0
 394 275 389 297 374 315 c 0
 359 333 340 342 316 342 c 0
340 512 m 0
 409 512 464 486 505 435 c 0
 546 384 562 322 552 250 c 0
 542 178 509 116 453 65 c 0
 397 14 335 -12 266 -12 c 0
 197 -12 142 14 101 65 c 0
 60 116 44 178 54 250 c 0
 64 322 97 384 153 435 c 0
 209 486 271 512 340 512 c 0
EndSplineSet
Validated: 33
EndChar

StartChar: p
Encoding: 112 112 41
GlifName: p
Width: 570
Flags: W
HStem: -12 168<267.308 378.379> 344 168<289.147 399.379>
VStem: 19 162<-200 -38>
LayerCount: 2
Fore
SplineSet
258 500 m 1
 118 500 l 1
 19 -200 l 1
 181 -200 l 1
 212 20 l 1
 214 18 217 17 219 15 c 4
 245 -3 276 -12 313 -12 c 0
 381 -12 441 13 493 64 c 0
 545 115 577 177 587 250 c 0
 597 323 583 385 545 436 c 0
 507 487 454 512 386 512 c 0
 343 512 306 502 273 481 c 0
 266 477 260 472 254 467 c 1
 258 500 l 1
320 156 m 0
 295 156 276 166 261 184 c 0
 246 202 240 224 244 250 c 0
 248 276 260 298 280 316 c 0
 300 334 322 344 347 344 c 0
 372 344 391 334 406 316 c 0
 421 298 427 276 423 250 c 0
 419 224 407 202 387 184 c 0
 367 166 345 156 320 156 c 0
EndSplineSet
Validated: 41
EndChar

StartChar: q
Encoding: 113 113 42
GlifName: q
Width: 566
Flags: W
HStem: -200 21G<334 497.829> -12 168<241.643 345.87> 344 168<262.621 374.31> 480 20G<449.97 594>
VStem: 334 161<-200 -39>
LayerCount: 2
Fore
SplineSet
453 500 m 1xd8
 594 500 l 1xd8
 495 -200 l 1
 334 -200 l 1
 365 20 l 1
 358 15 350 12 342 8 c 4
 315 -5 286 -12 255 -12 c 0
 187 -12 134 13 96 64 c 0
 58 115 44 177 54 250 c 0
 64 323 96 385 148 436 c 0
 200 487 260 512 328 512 c 0xe8
 369 512 403 503 429 484 c 0
 436 479 442 473 448 467 c 1
 453 500 l 1xd8
295 156 m 0
 320 156 342 166 362 184 c 0
 382 202 393 224 397 250 c 0
 401 276 395 298 380 316 c 0
 365 334 346 344 321 344 c 0xe8
 296 344 274 334 254 316 c 0
 234 298 222 276 218 250 c 0
 214 224 220 202 235 184 c 0
 250 166 270 156 295 156 c 0
EndSplineSet
Validated: 33
EndChar

StartChar: r
Encoding: 114 114 43
GlifName: r
Width: 386
Flags: W
HStem: 0 21G<43 206.829> 480 20G<110.2 263 421.5 441.176>
VStem: 43 161<0 161>
LayerCount: 2
Fore
SplineSet
113 500 m 1
 263 500 l 1
 254 435 l 1
 259 440 264 445 269 449 c 0
 285 462 303 474 322 484 c 0
 359 503 399 512 444 512 c 1
 420 342 l 1
 378 342 341 331 308 309 c 0
 275 287 250 252 233 205 c 5
 204 0 l 1
 43 0 l 1
 113 500 l 1
EndSplineSet
Validated: 1
EndChar

StartChar: s
Encoding: 115 115 44
GlifName: s
Width: 426
Flags: W
HStem: -12 151<157.049 255.229> 364 148<238.278 335.573>
LayerCount: 2
Fore
SplineSet
454 397 m 1
 295 342 l 1
 293 350 290 355 285 359 c 0
 281 362 275 364 268 364 c 0
 260 364 253 362 247 358 c 0
 241 354 238 349 238 343 c 0
 238 332 251 325 278 323 c 0
 292 322 300 322 303 321 c 0
 336 315 362 302 382 283 c 0
 418 248 432 204 424 149 c 0
 415 93 388 50 342 20 c 0
 309 -2 267 -12 215 -12 c 0
 171 -11 132 -1 99 18 c 0
 66 37 45 65 38 103 c 1
 199 161 l 1
 203 146 214 139 229 139 c 0
 239 139 247 141 252 144 c 0
 257 147 260 152 260 158 c 0
 260 168 242 175 204 179 c 0
 197 180 191 180 187 181 c 0
 144 189 114 209 96 239 c 0
 78 269 71 304 76 345 c 0
 84 399 108 440 149 468 c 0
 190 496 237 511 286 512 c 0
 333 512 371 502 399 482 c 0
 426 463 444 434 454 397 c 1
EndSplineSet
Validated: 33
EndChar

StartChar: t
Encoding: 116 116 45
GlifName: t
Width: 373
Flags: W
HStem: 0 21G<273.5 352.706> 330 170<80 127 313 396>
LayerCount: 2
Fore
SplineSet
173 656 m 1
 334 656 l 1
 313 500 l 1
 420 500 l 1
 396 330 l 1
 289 330 l 1
 275 235 l 2
 272 217 277 202 287 189 c 0
 297 176 311 170 328 170 c 2
 373 170 l 1
 350 0 l 1
 304 0 l 2
 243 0 193 23 156 69 c 0
 119 115 105 170 114 235 c 2
 127 330 l 1
 56 330 l 1
 80 500 l 1
 151 500 l 1
 173 656 l 1
EndSplineSet
Validated: 33
EndChar

StartChar: u
Encoding: 117 117 46
GlifName: u
Width: 544
Flags: W
HStem: -12 170<246.421 347.622> 480 20G<105.188 270 412.197 577>
VStem: 108 162<338 500> 415 162<338 500>
LayerCount: 2
Fore
SplineSet
108 500 m 1
 270 500 l 1
 233 236 l 2
 230 213 234 194 246 180 c 0
 258 166 273 158 294 158 c 0
 315 158 333 166 349 180 c 0
 365 194 375 213 378 236 c 2
 415 500 l 1
 577 500 l 1
 541 244 l 2
 531 172 500 111 447 62 c 0
 394 13 335 -12 270 -12 c 0
 205 -12 154 13 115 62 c 0
 76 111 62 172 72 244 c 2
 108 500 l 1
EndSplineSet
Validated: 33
EndChar

StartChar: v
Encoding: 118 118 47
GlifName: v
Width: 554
Flags: W
HStem: 0 21G<185.4 374.24> 480 20G<75 252.627 436.776 620>
VStem: 75 173<327 500>
LayerCount: 2
Fore
SplineSet
75 500 m 1
 248 500 l 1
 310 232 l 1
 447 500 l 1
 620 500 l 1
 364 0 l 1
 190 0 l 1
 75 500 l 1
EndSplineSet
Validated: 1
EndChar

StartChar: w
Encoding: 119 119 48
GlifName: w
Width: 803
Flags: W
HStem: 0 21G<159.68 340.978 467.622 648.96> 480 20G<80 252.289 378.933 560.289 686.022 864>
VStem: 80 169<331 500>
LayerCount: 2
Fore
SplineSet
695 500 m 1
 864 500 l 1
 640 0 l 1
 471 0 l 1
 433 225 l 1
 332 0 l 1
 163 0 l 1
 80 500 l 1
 249 500 l 1
 286 275 l 1
 388 500 l 1
 557 500 l 1
 594 275 l 1
 695 500 l 1
EndSplineSet
Validated: 1
EndChar

StartChar: x
Encoding: 120 120 49
GlifName: x
Width: 531
Flags: W
HStem: 0 21G<10 220.417 317 522> 480 20G<80 283.796 382.49 592>
LayerCount: 2
Fore
SplineSet
279 96 m 1
 205 0 l 1
 10 0 l 1
 203 250 l 1
 80 500 l 1
 274 500 l 1
 322 402 l 1
 398 500 l 1
 592 500 l 1
 398 249 l 1
 522 0 l 1
 327 0 l 1
 279 96 l 1
EndSplineSet
Validated: 1
EndChar

StartChar: y
Encoding: 121 121 50
GlifName: y
Width: 585
Flags: W
HStem: -212 170<80 197.104> 480 20G<72 254.663 468.176 654>
VStem: 72 177<323 500>
LayerCount: 2
Fore
SplineSet
72 500 m 1
 249 500 l 1
 328 221 l 1
 479 500 l 1
 654 500 l 1
 343 -78 l 2
 320 -119 287 -151 247 -175 c 0
 207 -199 165 -212 122 -212 c 2
 56 -212 l 1
 80 -42 l 1
 146 -42 l 2
 159 -42 170 -39 180 -34 c 0
 190 -29 198 -21 204 -10 c 2
 212 6 l 1
 72 500 l 1
EndSplineSet
Validated: 1
EndChar

StartChar: z
Encoding: 122 122 51
GlifName: z
Width: 425
Flags: W
HStem: 0 170<274 407> 330 170<89 222>
LayerCount: 2
Fore
SplineSet
19 0 m 1
 43 170 l 1
 222 330 l 1
 65 330 l 1
 89 500 l 1
 477 500 l 1
 453 330 l 1
 274 170 l 1
 430 170 l 1
 407 0 l 1
 19 0 l 1
EndSplineSet
Validated: 1
EndChar

StartChar: bracketleft
Encoding: 91 91 52
GlifName: bracketleft
Width: 343
Flags: W
LayerCount: 2
Fore
SplineSet
313 799 m 6
 273 799 237 784 205 755 c 4
 173 726 154 690 148 648 c 6
 64 51 l 6
 58 9 67 -27 91 -56 c 4
 115 -85 146 -100 186 -100 c 6
 292 -100 l 5
 316 70 l 5
 229 70 l 6
 228 70 228 70 228 71 c 6
 307 628 l 6
 307 629 307 629 308 629 c 6
 394 629 l 5
 418 799 l 5
 313 799 l 6
EndSplineSet
Validated: 41
EndChar

StartChar: backslash
Encoding: 92 92 53
GlifName: backslash
Width: 426
Flags: W
LayerCount: 2
Fore
SplineSet
272 747 m 5
 112 694 l 5
 247 -88 l 5
 407 -35 l 5
 272 747 l 5
EndSplineSet
Validated: 9
EndChar

StartChar: bracketright
Encoding: 93 93 54
GlifName: bracketright
Width: 343
Flags: W
HStem: -100 170<48 136.453>
LayerCount: 2
Fore
SplineSet
256 799 m 6
 296 799 327 784 351 755 c 4
 375 726 384 690 378 648 c 6
 294 51 l 6
 288 9 269 -27 237 -56 c 4
 205 -85 169 -100 129 -100 c 6
 24 -100 l 5
 48 70 l 5
 134 70 l 6
 135 70 135 70 135 71 c 6
 214 628 l 6
 214 629 214 629 213 629 c 6
 126 629 l 5
 150 799 l 5
 256 799 l 6
EndSplineSet
Validated: 33
EndChar

StartChar: asciicircum
Encoding: 94 94 55
GlifName: asciicircum
Width: 580
Flags: W
HStem: 373 327<477 478>
VStem: 389 177<373 550>
LayerCount: 2
Fore
SplineSet
389 373 m 1
 305 700 l 1
 478 700 l 1
 566 373 l 1
 389 373 l 1
119 373 m 1
 305 700 l 1
 477 700 l 1
 297 373 l 1
 119 373 l 1
EndSplineSet
Validated: 5
EndChar

StartChar: underscore
Encoding: 95 95 56
GlifName: underscore
Width: 437
Flags: W
HStem: -170 170<19 394>
LayerCount: 2
Fore
SplineSet
-5 -170 m 1
 19 0 l 1
 418 0 l 1
 394 -170 l 1
 -5 -170 l 1
EndSplineSet
Validated: 1
EndChar

StartChar: grave
Encoding: 96 96 57
GlifName: grave
Width: 286
Flags: W
HStem: 554 147<200 288>
VStem: 101 267
LayerCount: 2
Fore
SplineSet
200 554 m 5
 101 701 l 5
 288 701 l 5
 368 554 l 5
 200 554 l 5
EndSplineSet
Validated: 1
EndChar

StartChar: zero
Encoding: 48 48 58
GlifName: zero
Width: 606
Flags: W
HStem: -12 170<262.728 393.909> 542 170<311.004 441.272>
LayerCount: 2
Fore
SplineSet
379 542 m 0
 357 542 337 538 320 527 c 0
 303 516 288 501 277 482 c 0
 266 463 257 444 250 422 c 0
 243 400 238 376 234 350 c 0
 230 324 229 300 230 278 c 0
 231 256 233 237 239 218 c 0
 245 199 255 184 270 173 c 0
 285 162 303 158 325 158 c 0
 347 158 368 162 385 173 c 0
 402 184 417 199 428 218 c 0
 439 237 448 256 455 278 c 0
 462 300 466 324 470 350 c 0
 474 376 476 400 475 422 c 0
 474 444 471 463 465 482 c 0
 459 501 449 516 434 527 c 0
 419 538 401 542 379 542 c 0
403 712 m 0
 447 712 485 702 518 682 c 0
 580 645 618 580 632 487 c 0
 638 444 639 398 632 350 c 0
 625 302 612 256 594 213 c 0
 554 120 498 55 425 18 c 0
 386 -2 345 -12 301 -12 c 0
 257 -12 219 -2 186 18 c 0
 124 55 86 120 72 213 c 0
 66 256 66 302 73 350 c 0
 80 398 93 444 111 487 c 0
 151 580 207 645 280 682 c 0
 319 702 359 712 403 712 c 0
EndSplineSet
Validated: 33
EndChar

StartChar: one
Encoding: 49 49 59
GlifName: one
Width: 459
Flags: W
HStem: 0 21G<222 386.8> 680 20G<295.491 482>
VStem: 222 162<0 162>
LayerCount: 2
Fore
SplineSet
321 700 m 1
 482 700 l 1
 384 0 l 1
 222 0 l 1
 289 478 l 1
 193 403 l 1
 108 533 l 1
 321 700 l 1
EndSplineSet
Validated: 1
EndChar

StartChar: two
Encoding: 50 50 60
GlifName: two
Width: 497
Flags: W
HStem: 0 170<281 468> 543 170<268.073 364.67>
LayerCount: 2
Fore
SplineSet
339 713 m 0
 400 713 451 691 491 645 c 0
 531 599 546 545 537 482 c 0
 527 413 498 356 451 314 c 2
 281 170 l 1
 491 170 l 1
 468 0 l 1
 19 0 l 1
 43 170 l 1
 344 426 l 2
 362 443 372 462 375 482 c 0
 378 501 374 515 363 526 c 0
 352 537 338 543 321 543 c 0
 305 543 290 538 276 528 c 0
 262 518 253 504 249 486 c 1
 95 518 l 1
 111 574 143 621 189 658 c 0
 235 695 285 713 339 713 c 0
EndSplineSet
Validated: 33
EndChar

StartChar: three
Encoding: 51 51 61
GlifName: three
Width: 491
Flags: W
HStem: -10 170<211.818 315.691> 502 21G<177.095 251.5> 542 170<260.89 359.255>
LayerCount: 2
Fore
SplineSet
341 712 m 0
 401 712 450 690 487 648 c 0
 524 606 538 555 530 495 c 0
 526 470 515 444 497 416 c 0
 484 396 467 375 447 354 c 1
 461 334 472 315 480 296 c 0
 492 266 496 237 492 210 c 0
 484 150 455 97 405 54 c 0
 355 11 300 -10 239 -10 c 0
 187 -10 143 6 105 38 c 0
 67 70 46 111 42 160 c 1
 205 199 l 1
 207 186 212 176 224 170 c 0
 236 164 249 160 265 160 c 0
 280 160 294 165 308 175 c 0
 322 185 329 199 331 214 c 0
 333 230 330 243 320 253 c 0
 310 263 297 269 279 269 c 2
 246 269 l 1
 270 439 l 1
 302 439 l 2
 319 439 334 444 346 454 c 0
 358 464 366 477 368 493 c 0
 370 508 366 520 356 529 c 0
 346 538 332 542 317 542 c 0
 297 542 282 537 270 529 c 0
 261 522 254 514 249 502 c 1
 98 544 l 1
 115 593 147 632 194 664 c 0
 241 696 290 712 341 712 c 0
EndSplineSet
Validated: 33
EndChar

StartChar: four
Encoding: 52 52 62
GlifName: four
Width: 574
Flags: W
HStem: 0 21G<302 466.778> 108 170<226 317 503 561> 680 20G<289.057 339.31>
VStem: 367 162<303 465>
LayerCount: 2
Fore
SplineSet
301 700 m 1
 437 629 l 1
 226 278 l 1
 341 278 l 1
 367 465 l 1
 529 465 l 1
 503 278 l 1
 585 278 l 1
 561 108 l 1
 479 108 l 1
 464 0 l 1
 302 0 l 1
 317 108 l 1
 25 108 l 1
 49 278 l 1
 301 700 l 1
EndSplineSet
Validated: 1
EndChar

StartChar: five
Encoding: 53 53 63
GlifName: five
Width: 513
Flags: W
HStem: -12 170<220.815 331.572> 530 170<312 521>
LayerCount: 2
Fore
SplineSet
174 700 m 1
 545 700 l 1
 521 530 l 1
 312 530 l 1
 302 460 l 1
 327 460 l 2
 388 460 438 436 475 390 c 0
 512 344 526 288 517 223 c 0
 508 158 478 103 428 57 c 0
 378 11 322 -12 261 -12 c 0
 202 -12 153 4 116 35 c 0
 79 66 57 108 51 160 c 1
 214 190 l 1
 223 169 245 158 281 158 c 0
 301 158 317 164 331 176 c 0
 345 188 352 204 355 223 c 0
 358 241 354 257 344 270 c 0
 334 283 320 290 303 290 c 2
 117 290 l 1
 174 700 l 1
EndSplineSet
Validated: 33
EndChar

StartChar: six
Encoding: 54 54 64
GlifName: six
Width: 521
Flags: W
HStem: -12 170<237.515 335.012> 692 20G<342.201 542>
LayerCount: 2
Fore
SplineSet
304 307 m 0
 284 307 267 299 251 285 c 0
 235 271 226 253 223 232 c 0
 220 211 224 194 236 180 c 0
 248 166 263 158 283 158 c 0
 303 158 320 166 336 180 c 0
 352 194 361 211 364 232 c 0
 367 253 363 271 351 285 c 0
 339 299 324 307 304 307 c 0
356 712 m 1
 542 712 l 1
 371 464 l 1
 379 463 387 462 394 460 c 0
 435 449 468 424 493 387 c 0
 523 344 534 292 526 232 c 0
 517 164 485 108 433 60 c 0
 381 12 323 -12 259 -12 c 0
 195 -12 144 12 105 60 c 0
 66 108 52 164 61 232 c 0
 67 275 83 317 109 354 c 2
 356 712 l 1
EndSplineSet
Validated: 33
EndChar

StartChar: seven
Encoding: 55 55 65
GlifName: seven
Width: 544
Flags: W
HStem: 0 21G<103 292.66> 530 170<122 412>
LayerCount: 2
Fore
SplineSet
98 530 m 1
 122 700 l 1
 614 700 l 1
 590 530 l 1
 281 0 l 1
 103 0 l 1
 412 530 l 1
 98 530 l 1
EndSplineSet
Validated: 1
EndChar

StartChar: eight
Encoding: 56 56 66
GlifName: eight
Width: 535
Flags: W
HStem: -12 164<236.205 351.483> 282 170<293.47 359.341> 546 166<294.441 385.367>
LayerCount: 2
Fore
SplineSet
307 282 m 0
 286 282 267 275 250 263 c 0
 233 251 223 235 220 216 c 0
 217 197 223 182 237 170 c 0
 251 158 268 152 289 152 c 0
 310 152 330 158 347 170 c 0
 364 182 373 197 376 216 c 0
 379 235 374 251 360 263 c 0
 346 275 328 282 307 282 c 0
345 546 m 0
 329 546 315 542 303 533 c 0
 291 524 284 513 282 499 c 0
 280 485 283 473 293 464 c 0
 303 455 315 452 331 452 c 0
 347 452 361 455 373 464 c 0
 385 473 392 485 394 499 c 0
 396 513 393 524 383 533 c 0
 373 542 361 546 345 546 c 0
368 712 m 0
 431 712 481 695 517 659 c 0
 553 623 567 577 559 520 c 0
 551 463 524 417 478 381 c 0
 476 379 473 378 471 376 c 1
 478 371 484 366 490 360 c 0
 530 320 545 268 536 204 c 0
 527 140 497 88 446 48 c 0
 395 8 335 -12 266 -12 c 0
 197 -12 143 8 103 48 c 0
 63 88 48 140 57 204 c 0
 66 268 96 320 147 360 c 0
 155 366 162 371 170 376 c 1
 168 378 167 379 165 381 c 0
 129 417 115 463 123 520 c 0
 131 577 158 623 204 659 c 0
 250 695 305 712 368 712 c 0
EndSplineSet
Validated: 33
EndChar

StartChar: nine
Encoding: 57 57 67
GlifName: nine
Width: 521
Flags: W
HStem: 0 21G<70 270.74> 542 170<284.988 382.485>
LayerCount: 2
Fore
SplineSet
316 393 m 0
 336 393 353 401 369 415 c 0
 385 429 394 447 397 468 c 0
 400 489 396 506 384 520 c 0
 372 534 357 542 337 542 c 0
 317 542 300 534 284 520 c 0
 268 506 259 489 256 468 c 0
 253 447 257 429 269 415 c 0
 281 401 296 393 316 393 c 0
256 0 m 1
 70 0 l 1
 249 236 l 1
 241 237 233 238 226 240 c 0
 185 252 152 276 126 313 c 0
 96 356 86 408 94 468 c 0
 103 536 135 592 187 640 c 0
 239 688 297 712 361 712 c 0
 425 712 476 688 515 640 c 0
 554 592 569 536 559 468 c 0
 553 425 537 384 511 346 c 2
 256 0 l 1
EndSplineSet
Validated: 33
EndChar

StartChar: exclam
Encoding: 33 33 68
GlifName: exclam
Width: 309
Flags: W
HStem: -16 206<118.528 215.53> 680 20G<169.194 334>
VStem: 108 157<251 408> 172 162<538 700>
LayerCount: 2
Fore
SplineSet
172 700 m 5xd0
 334 700 l 5
 271 251 l 5
 109 251 l 5
 172 700 l 5xd0
182 190 m 4
 209 190 231 180 247 160 c 4
 263 140 269 116 265 87 c 4
 261 58 248 34 226 14 c 4
 204 -6 180 -16 153 -16 c 4
 126 -16 103 -6 87 14 c 4
 71 34 65 58 69 87 c 4
 73 116 86 140 108 160 c 4xe0
 130 180 155 190 182 190 c 4
EndSplineSet
Validated: 33
EndChar

StartChar: quotedbl
Encoding: 34 34 69
GlifName: quotedbl
Width: 520
Flags: W
HStem: 440 276<172 295 395 517>
LayerCount: 2
Fore
SplineSet
395 716 m 1
 579 716 l 1
 517 440 l 1
 379 440 l 1
 395 716 l 1
172 716 m 1
 357 716 l 1
 295 440 l 1
 156 440 l 1
 172 716 l 1
EndSplineSet
Validated: 1
EndChar

StartChar: numbersign
Encoding: 35 35 70
GlifName: numbersign
Width: 601
Flags: W
HStem: 0 21G<51 221.25 274 444.25> 144 170<48 96 312 319 535 585> 680 20G<260.766 431 483.896 654>
LayerCount: 2
Fore
SplineSet
490 700 m 1
 654 700 l 1
 607 546 l 1
 690 546 l 1
 637 376 l 1
 554 376 l 1
 535 314 l 1
 637 314 l 1
 585 144 l 1
 483 144 l 1
 438 0 l 1
 274 0 l 1
 319 144 l 1
 260 144 l 1
 215 0 l 1
 51 0 l 1
 96 144 l 1
 -4 144 l 1
 48 314 l 1
 148 314 l 1
 167 376 l 1
 67 376 l 1
 120 546 l 1
 219 546 l 1
 267 700 l 1
 431 700 l 1
 383 546 l 1
 443 546 l 1
 490 700 l 1
390 376 m 1
 331 376 l 1
 312 314 l 1
 371 314 l 1
 390 376 l 1
EndSplineSet
Validated: 1
EndChar

StartChar: dollar
Encoding: 36 36 71
GlifName: dollar
Width: 526
Flags: W
HStem: -91 249<224.106 325> 508 21G<389.5 463.636> 542 249<288 385.9>
LayerCount: 2
Fore
SplineSet
288 791 m 1
 449 791 l 1
 436 699 l 1
 456 692 474 681 490 667 c 0
 526 637 547 599 552 552 c 1
 390 508 l 1
 389 518 383 527 373 533 c 0
 363 539 351 542 336 542 c 0
 318 542 302 538 289 530 c 0
 276 522 268 511 266 496 c 0
 265 487 268 480 275 473 c 0
 286 462 306 454 336 448 c 0
 401 436 452 411 488 373 c 0
 524 335 538 284 529 219 c 0
 520 154 489 98 436 54 c 0
 406 29 373 11 338 0 c 1
 325 -91 l 1
 164 -91 l 1
 177 2 l 1
 156 10 136 21 118 36 c 0
 79 68 57 109 51 159 c 1
 213 203 l 1
 215 190 222 179 235 171 c 0
 248 163 264 158 282 158 c 0
 304 158 323 163 339 174 c 0
 355 185 364 200 367 219 c 0
 369 233 365 245 355 255 c 0
 342 268 319 278 286 284 c 0
 226 295 179 319 144 354 c 0
 109 389 97 436 105 496 c 0
 114 557 142 609 192 650 c 0
 218 672 246 688 275 698 c 1
 288 791 l 1
EndSplineSet
Validated: 33
EndChar

StartChar: percent
Encoding: 37 37 72
GlifName: percent
Width: 884
Flags: W
HStem: -12 170<644 714.797> 0 21G<284.918 325.146> 198 170<681.49 747> 332 170<235 305.797> 542 170<268.203 339> 680 20G<659.887 700.286>
LayerCount: 2
Fore
SplineSet
722 368 m 4xa0
 772 368 812 349 842 312 c 4
 872 275 883 231 876 178 c 4
 869 125 845 81 805 44 c 4
 765 7 719 -12 669 -12 c 4
 619 -12 579 7 549 44 c 4
 519 81 508 125 515 178 c 4
 522 231 547 275 587 312 c 4
 627 349 672 368 722 368 c 4xa0
699 198 m 4
 694 198 688 196 684 192 c 4
 680 188 678 183 677 178 c 4
 676 173 677 168 680 164 c 4
 683 160 688 158 693 158 c 4
 698 158 703 160 707 164 c 4
 711 168 714 173 715 178 c 4
 716 183 714 188 711 192 c 4
 708 196 704 198 699 198 c 4
676 700 m 5x44
 795 602 l 5
 309 0 l 5
 191 98 l 5
 676 700 l 5x44
314 712 m 4x18
 364 712 404 693 434 656 c 4
 464 619 475 575 468 522 c 4
 461 469 436 425 396 388 c 4
 356 351 310 332 260 332 c 4
 210 332 170 351 140 388 c 4
 110 425 100 469 107 522 c 4
 114 575 138 619 178 656 c 4
 218 693 264 712 314 712 c 4x18
290 542 m 4
 285 542 280 540 276 536 c 4
 272 532 269 527 268 522 c 4
 267 517 269 512 272 508 c 4
 275 504 279 502 284 502 c 4
 289 502 294 504 298 508 c 4
 302 512 305 517 306 522 c 4
 307 527 305 532 302 536 c 4
 299 540 295 542 290 542 c 4
EndSplineSet
Validated: 33
EndChar

StartChar: ampersand
Encoding: 38 38 73
GlifName: ampersand
Width: 597
Flags: W
HStem: -12 168<219.102 320.077> 0 21G<391.611 613> 542 170<311.029 370.279>
LayerCount: 2
Fore
SplineSet
223 -12 m 0xa0
 167 -12 123 6 90 42 c 0
 57 78 46 124 54 180 c 0
 59 217 72 254 93 291 c 0
 114 328 139 356 170 377 c 0
 201 397 241 420 290 446 c 4
 314 458 333 468 347 476 c 0
 363 485 372 496 374 508 c 0
 375 517 373 525 368 532 c 0
 363 539 354 542 343 542 c 0
 332 542 322 538 315 532 c 0
 308 526 304 518 303 509 c 0
 301 494 306 477 319 457 c 2
 613 0 l 1
 404 0 l 1x60
 181 360 l 2
 146 416 134 473 143 531 c 0
 151 583 177 627 220 661 c 0
 263 695 311 712 365 712 c 0
 421 712 465 695 499 660 c 0
 533 625 545 580 537 523 c 0
 532 489 523 458 508 430 c 0
 493 402 467 375 431 346 c 0
 406 327 379 310 349 298 c 0
 312 283 278 264 247 241 c 0
 231 229 222 217 218 206 c 0
 214 195 213 185 215 176 c 0
 216 171 218 166 223 163 c 0
 230 158 241 156 256 156 c 0
 273 156 292 160 314 168 c 0
 350 181 386 199 419 221 c 0
 452 243 477 268 493 297 c 1
 654 297 l 1
 630 213 576 139 491 76 c 0
 451 46 408 24 361 10 c 0
 314 -4 268 -12 223 -12 c 0xa0
EndSplineSet
Validated: 37
EndChar

StartChar: quotesingle
Encoding: 39 39 74
GlifName: quotesingle
Width: 298
Flags: W
HStem: 440 276<158 280>
VStem: 142 200
LayerCount: 2
Fore
SplineSet
158 716 m 1
 342 716 l 1
 280 440 l 1
 142 440 l 1
 158 716 l 1
EndSplineSet
Validated: 1
EndChar

StartChar: parenleft
Encoding: 40 40 75
GlifName: parenleft
Width: 345
Flags: W
LayerCount: 2
Fore
SplineSet
309 799 m 1
 414 685 l 1
 370 639 333 587 305 529 c 0
 277 471 258 411 249 350 c 0
 241 292 243 235 253 180 c 0
 263 125 282 74 310 29 c 1
 183 -99 l 1
 141 -36 111 33 95 110 c 0
 79 187 75 268 87 350 c 0
 99 432 124 513 162 590 c 0
 200 667 249 736 309 799 c 1
EndSplineSet
Validated: 33
EndChar

StartChar: parenright
Encoding: 41 41 76
GlifName: parenright
Width: 345
Flags: W
LayerCount: 2
Fore
SplineSet
262 799 m 5
 304 736 334 667 350 590 c 0
 366 513 369 432 357 350 c 0
 345 268 320 187 282 110 c 0
 244 33 195 -36 135 -99 c 1
 135 -99 135 -99 44 29 c 1
 84 74 118 125 144 180 c 0
 170 235 187 292 195 350 c 0
 203 411 202 471 190 529 c 0
 178 587 156 639 125 685 c 1
 125 685 125 685 262 799 c 5
EndSplineSet
Validated: 33
EndChar

StartChar: asterisk
Encoding: 42 42 77
GlifName: asterisk
Width: 483
Flags: W
VStem: 262 161<555 716>
LayerCount: 2
Fore
SplineSet
108 498 m 5
 181 660 l 1
 351 599 l 1
 278 437 l 1
 108 498 l 5
240 308 m 1
 123 408 l 1
 256 568 l 1
 373 468 l 1
 240 308 l 1
475 408 m 1
 330 308 l 1
 242 468 l 1
 387 568 l 1
 475 408 l 1
488 660 m 1
 516 498 l 1
 328 437 l 1
 301 599 l 1
 488 660 l 1
262 716 m 1
 423 716 l 1
 395 518 l 1
 234 518 l 1
 262 716 l 1
EndSplineSet
Validated: 5
EndChar

StartChar: plus
Encoding: 43 43 78
GlifName: plus
Width: 589
Flags: W
HStem: 214 170<135 244 430 538>
LayerCount: 2
Fore
SplineSet
288 523 m 1
 449 523 l 1
 430 384 l 1
 562 384 l 1
 538 214 l 1
 406 214 l 1
 386 73 l 1
 224 73 l 1
 244 214 l 1
 111 214 l 1
 135 384 l 1
 268 384 l 1
 288 523 l 1
EndSplineSet
Validated: 1
EndChar

StartChar: comma
Encoding: 44 44 79
GlifName: comma
Width: 271
Flags: W
HStem: -113 259<99.376 141.128>
VStem: 100 171<59.3606 146>
LayerCount: 2
Fore
SplineSet
100 146 m 5
 271 146 l 5
 257 44 211 -42 134 -113 c 5
 1 -113 l 5
 54 -31 87 55 100 146 c 5
EndSplineSet
Validated: 1
EndChar

StartChar: hyphen
Encoding: 45 45 80
GlifName: hyphen
Width: 437
Flags: W
HStem: 213 170<101 419>
LayerCount: 2
Fore
SplineSet
77 213 m 1
 101 383 l 1
 443 383 l 1
 419 213 l 1
 77 213 l 1
EndSplineSet
Validated: 1
EndChar

StartChar: period
Encoding: 46 46 81
GlifName: period
Width: 271
Flags: W
HStem: -15 206<99.5284 196.53>
VStem: 50 196
LayerCount: 2
Fore
SplineSet
246 88 m 0
 242 59 229 35 207 15 c 0
 185 -5 161 -15 134 -15 c 0
 107 -15 85 -5 69 15 c 0
 53 35 46 59 50 88 c 0
 54 117 67 141 89 161 c 0
 111 181 136 191 163 191 c 0
 190 191 212 181 228 161 c 0
 244 141 250 117 246 88 c 0
EndSplineSet
Validated: 33
EndChar

StartChar: slash
Encoding: 47 47 82
GlifName: slash
Width: 426
Flags: W
LayerCount: 2
Fore
SplineSet
364 747 m 5
 510 694 l 5
 155 -88 l 5
 9 -35 l 5
 364 747 l 5
EndSplineSet
Validated: 1
EndChar

StartChar: colon
Encoding: 58 58 83
GlifName: colon
Width: 328
Flags: W
HStem: -1 206<131.526 225.474> 294 206<171.528 268.537>
VStem: 81 237
LayerCount: 2
Fore
SplineSet
206 294 m 256
 179 294 157 304 141 324 c 0
 125 344 118 369 122 397 c 256
 126 425 139 450 161 470 c 0
 183 490 208 500 235 500 c 256
 262 500 283 490 299 470 c 0
 315 450 322 425 318 397 c 256
 314 369 301 344 279 324 c 0
 257 304 233 294 206 294 c 256
164 -1 m 256
 137 -1 116 10 100 30 c 0
 84 50 77 74 81 102 c 256
 85 130 98 154 120 174 c 0
 142 194 166 205 193 205 c 256
 220 205 242 194 258 174 c 0
 274 154 281 130 277 102 c 256
 273 74 259 50 237 30 c 0
 215 10 191 -1 164 -1 c 256
EndSplineSet
Validated: 33
EndChar

StartChar: semicolon
Encoding: 59 59 84
GlifName: semicolon
Width: 335
Flags: W
HStem: 290 206<178.47 274.537>
VStem: 110 171<59.3606 146>
LayerCount: 2
Fore
SplineSet
110 146 m 5
 281 146 l 5
 267 44 221 -42 144 -113 c 5
 11 -113 l 5
 64 -31 97 55 110 146 c 5
212 290 m 0
 185 290 163 300 147 320 c 0
 131 340 124 365 128 393 c 0
 132 421 146 446 168 466 c 0
 190 486 214 496 241 496 c 0
 268 496 289 486 305 466 c 0
 321 446 328 421 324 393 c 0
 320 365 307 340 285 320 c 0
 263 300 239 290 212 290 c 0
EndSplineSet
Validated: 33
EndChar

StartChar: less
Encoding: 60 60 85
GlifName: less
Width: 608
Flags: W
LayerCount: 2
Fore
SplineSet
571 549 m 1
 545 366 l 1
 367 293 l 1
 525 221 l 1
 499 38 l 1
 141 202 l 1
 167 385 l 1
 571 549 l 1
EndSplineSet
Validated: 1
EndChar

StartChar: equal
Encoding: 61 61 86
GlifName: equal
Width: 608
Flags: W
HStem: 112 170<154 529> 312 170<182 557>
LayerCount: 2
Fore
SplineSet
158 312 m 5
 182 482 l 5
 581 482 l 5
 557 312 l 5
 158 312 l 5
130 112 m 1
 154 282 l 1
 553 282 l 1
 529 112 l 1
 130 112 l 1
EndSplineSet
Validated: 1
EndChar

StartChar: greater
Encoding: 62 62 87
GlifName: greater
Width: 608
Flags: W
LayerCount: 2
Fore
SplineSet
190 549 m 1
 164 366 l 1
 323 293 l 1
 144 221 l 1
 118 38 l 1
 522 202 l 1
 548 385 l 1
 190 549 l 1
EndSplineSet
Validated: 9
EndChar

StartChar: question
Encoding: 63 63 88
GlifName: question
Width: 482
Flags: W
HStem: -15 206<190.528 288.472> 542 170<261.998 354.573>
LayerCount: 2
Fore
SplineSet
337 88 m 4
 333 59 321 35 299 15 c 4
 277 -5 252 -15 225 -15 c 4
 198 -15 176 -5 160 15 c 4
 144 35 138 59 142 88 c 4
 146 117 158 141 180 161 c 4
 202 181 227 191 254 191 c 4
 281 191 303 181 319 161 c 4
 335 141 341 117 337 88 c 4
336 712 m 4
 397 712 447 689 484 643 c 4
 521 597 535 542 526 477 c 4
 520 432 502 390 473 352 c 4
 444 314 410 284 368 264 c 4
 357 259 348 252 342 242 c 4
 337 234 334 224 332 213 c 5
 170 213 l 5
 176 255 192 295 220 333 c 4
 248 371 280 400 319 418 c 4
 332 424 343 432 350 441 c 4
 358 451 362 463 364 477 c 4
 367 496 364 512 354 524 c 4
 344 536 330 542 312 542 c 4
 296 542 281 537 268 526 c 4
 255 515 246 501 242 484 c 5
 86 508 l 5
 101 566 132 615 180 654 c 4
 228 693 280 712 336 712 c 4
EndSplineSet
Validated: 33
EndChar

StartChar: at
Encoding: 64 64 89
GlifName: at
Width: 924
Flags: W
HStem: -210 120<339.292 511.94> -113 128<649.5 718.25> 16 139<429.696 545.182> 349 139<450.192 565.35> 594 120<430.09 655.835>
LayerCount: 2
Fore
SplineSet
562 714 m 0xb8
 620 714 675 701 725 678 c 0
 775 655 818 621 853 578 c 0
 888 535 913 486 927 429 c 0
 941 372 945 313 936 252 c 0
 927 190 908 131 878 74 c 0
 848 17 809 -32 761 -75 c 0
 733 -100 702 -113 667 -113 c 0
 632 -113 603 -99 582 -73 c 0
 561 -47 552 -15 557 22 c 2
 560 37 l 1
 529 23 496 16 464 16 c 0
 402 16 353 39 316 85 c 0
 279 131 264 187 273 252 c 0
 282 317 313 373 363 419 c 0
 413 465 469 488 531 488 c 0
 593 488 643 465 680 419 c 0
 717 373 731 317 722 252 c 2
 689 22 l 2
 689 20 689 18 690 17 c 0
 691 16 693 15 695 15 c 0x78
 697 15 699 16 700 17 c 0
 768 83 809 161 822 252 c 0
 831 314 825 371 803 423 c 0
 792 451 777 475 759 497 c 4
 743 516 724 534 702 548 c 0
 656 578 605 594 546 594 c 0
 487 594 430 578 376 548 c 0
 322 518 277 475 241 423 c 0
 205 371 182 314 173 252 c 0
 164 190 170 133 192 81 c 0
 203 55 217 31 234 10 c 0
 251 -11 270 -29 293 -44 c 0
 339 -74 391 -90 450 -90 c 0
 470 -90 490 -87 511 -83 c 1
 524 -199 l 1
 493 -206 463 -210 433 -210 c 0
 375 -210 320 -197 270 -174 c 0
 220 -151 177 -117 142 -74 c 0
 107 -31 82 18 68 75 c 0
 54 132 50 191 59 252 c 0
 68 313 87 372 117 429 c 0
 147 486 186 535 233 578 c 0
 280 621 333 655 390 678 c 0
 447 701 504 714 562 714 c 0xb8
511 349 m 0
 486 349 463 340 442 321 c 0
 421 302 409 279 405 252 c 0
 401 225 408 202 423 183 c 0
 438 164 459 155 484 155 c 0
 509 155 532 164 553 183 c 0
 574 202 586 225 590 252 c 0
 594 279 587 302 572 321 c 0
 557 340 536 349 511 349 c 0
EndSplineSet
Validated: 33
EndChar

StartChar: braceleft
Encoding: 123 123 90
GlifName: braceleft
Width: 381
Flags: W
LayerCount: 2
Fore
SplineSet
320 -100 m 1
 252 -100 204 -76 175 -28 c 0
 146 20 139 93 152 188 c 0
 156 218 153 238 143 249 c 0
 133 260 114 265 85 265 c 5
 109 435 l 5
 138 435 159 440 172 451 c 0
 185 462 193 482 197 512 c 0
 210 607 238 680 281 728 c 0
 324 776 379 800 447 800 c 1
 423 630 l 1
 403 630 389 622 381 608 c 0
 373 594 366 562 359 513 c 0
 350 451 323 404 277 372 c 0
 265 364 252 356 238 350 c 1
 251 344 261 336 271 328 c 0
 308 296 322 249 313 187 c 0
 306 139 305 108 309 94 c 0
 313 80 325 71 344 70 c 1
 320 -100 l 1
EndSplineSet
Validated: 33
EndChar

StartChar: bar
Encoding: 124 124 91
GlifName: bar
Width: 275
Flags: W
VStem: 26 162<-220 -58> 168 162<628 790>
LayerCount: 2
Fore
SplineSet
168 790 m 1x40
 330 790 l 1x40
 188 -220 l 1
 26 -220 l 1x80
 168 790 l 1x40
EndSplineSet
Validated: 1
EndChar

StartChar: braceright
Encoding: 125 125 92
GlifName: braceright
Width: 381
Flags: W
LayerCount: 2
Fore
SplineSet
33 -100 m 1
 101 -100 156 -76 199 -28 c 0
 242 20 270 93 283 188 c 0
 287 218 296 238 309 249 c 0
 322 260 343 265 372 265 c 5
 396 435 l 5
 367 435 347 440 337 451 c 0
 327 462 324 482 328 512 c 0
 341 607 334 680 305 728 c 0
 276 776 228 800 160 800 c 1
 136 630 l 1
 156 630 167 622 171 608 c 0
 175 594 174 562 167 513 c 0
 158 451 172 404 209 372 c 0
 219 364 229 356 242 350 c 1
 228 344 215 336 203 328 c 0
 157 296 130 249 121 187 c 0
 114 139 107 108 99 94 c 0
 91 80 77 71 57 70 c 1
 33 -100 l 1
EndSplineSet
Validated: 41
EndChar

StartChar: asciitilde
Encoding: 126 126 93
GlifName: asciitilde
Width: 702
Flags: W
HStem: 145 170<507.097 567.577> 318 170<267.621 331.665>
LayerCount: 2
Fore
SplineSet
319 488 m 0
 415 488 474 447 494 366 c 0
 497 354 500 344 504 336 c 0
 510 322 520 315 536 315 c 0
 548 315 559 320 568 329 c 0
 580 341 589 361 595 388 c 1
 757 388 l 1
 747 323 719 266 675 218 c 0
 631 170 579 146 519 145 c 0
 433 144 376 187 348 274 c 0
 341 295 334 309 327 313 c 0
 322 316 315 318 307 318 c 0
 294 318 284 313 274 304 c 0
 261 292 250 272 243 245 c 1
 82 245 l 1
 92 310 120 368 164 416 c 0
 208 464 260 488 319 488 c 0
EndSplineSet
Validated: 33
EndChar

StartChar: exclamdown
Encoding: 161 161 94
GlifName: exclamdown
Width: 309
Flags: W
HStem: 306 206<163.528 260.53>
VStem: 45 162<-204 -42> 109 161<84 245>
LayerCount: 2
Fore
SplineSet
198 306 m 0x80
 225 306 249 316 271 336 c 0
 293 356 306 380 310 409 c 0
 314 438 308 462 292 482 c 0
 276 502 254 512 227 512 c 0
 200 512 175 502 153 482 c 0
 131 462 118 438 114 409 c 0
 110 380 117 356 133 336 c 0
 149 316 171 306 198 306 c 0x80
45 -204 m 1xc0
 207 -204 l 1xc0
 270 245 l 1
 109 245 l 1xa0
 45 -204 l 1xc0
EndSplineSet
Validated: 41
EndChar

StartChar: cent
Encoding: 162 162 95
GlifName: cent
Width: 450
Flags: W
HStem: 0 21G<211 308.857> 680 20G<306.234 404>
LayerCount: 2
Fore
SplineSet
391 609 m 1
 443 601 485 576 519 535 c 1
 388 415 l 1
 382 423 375 429 367 433 c 1
 343 267 l 1
 352 271 362 277 370 285 c 1
 467 165 l 1
 422 124 373 99 319 91 c 1
 306 0 l 1
 211 0 l 1
 224 94 l 1
 181 105 144 129 115 165 c 0
 74 216 58 278 68 350 c 0
 78 422 111 484 167 535 c 0
 207 571 250 595 296 606 c 1
 309 700 l 1
 404 700 l 1
 391 609 l 1
270 420 m 1
 268 419 266 417 264 415 c 0
 244 397 234 375 230 350 c 0
 226 325 231 303 246 285 c 0
 247 283 249 281 250 280 c 1
 270 420 l 1
EndSplineSet
Validated: 33
EndChar

StartChar: sterling
Encoding: 163 163 96
GlifName: sterling
Width: 582
Flags: W
HStem: 0 180<63 112.544 287 554> 252 180<99 135 331 504> 535 180<355.831 440.052>
LayerCount: 2
Fore
SplineSet
579 180 m 1
 554 0 l 1
 38 0 l 1
 63 180 l 1
 80 180 96 186 110 199 c 0
 124 212 131 227 134 245 c 2
 135 252 l 1
 73 252 l 1
 99 432 l 1
 160 432 l 1
 167 476 l 2
 176 542 206 598 257 645 c 0
 308 692 364 715 427 715 c 0
 490 715 540 692 578 645 c 0
 616 598 630 542 621 476 c 1
 450 476 l 1
 452 492 448 506 439 518 c 0
 430 530 417 535 402 535 c 0
 387 535 373 530 360 518 c 0
 347 506 340 492 338 476 c 2
 331 432 l 1
 529 432 l 1
 504 252 l 1
 306 252 l 1
 305 245 l 2
 302 223 296 201 287 180 c 1
 579 180 l 1
EndSplineSet
Validated: 33
EndChar

StartChar: currency
Encoding: 164 164 97
GlifName: currency
Width: 612
Flags: W
HStem: 124 170<311.757 393.313> 406 170<318.687 400.21>
LayerCount: 2
Fore
SplineSet
399 390 m 0
 390 401 379 406 364 406 c 0
 349 406 336 401 324 390 c 0
 312 379 305 365 303 350 c 0
 301 335 304 321 313 310 c 0
 322 299 333 294 348 294 c 0
 363 294 376 299 388 310 c 0
 400 321 407 335 409 350 c 0
 411 365 408 379 399 390 c 0
528 612 m 1
 625 492 l 1
 566 439 l 1
 573 412 574 382 570 350 c 0
 566 318 557 288 542 261 c 1
 585 208 l 1
 454 88 l 1
 411 141 l 1
 384 129 354 124 324 124 c 0
 294 124 266 129 242 141 c 1
 184 88 l 1
 87 208 l 1
 145 261 l 1
 138 288 137 318 141 350 c 0
 145 382 155 412 170 439 c 1
 127 492 l 1
 258 612 l 1
 301 559 l 1
 328 571 358 576 388 576 c 0
 418 576 445 571 469 559 c 1
 528 612 l 1
EndSplineSet
Validated: 33
EndChar

StartChar: yen
Encoding: 165 165 98
GlifName: yen
Width: 585
Flags: W
HStem: 0 21G<212 376.623> 61 132<94 221 401 526> 244 132<119 217 474 552> 680 20G<108 294.822 481.57 674>
LayerCount: 2
Fore
SplineSet
101 244 m 1
 119 376 l 1
 217 376 l 1
 108 700 l 1
 288 700 l 1
 361 486 l 1
 494 700 l 1
 674 700 l 1
 474 376 l 1
 571 376 l 1
 552 244 l 1
 408 244 l 1
 401 193 l 1
 545 193 l 1
 526 61 l 1
 382 61 l 1
 374 0 l 1
 212 0 l 1
 221 61 l 1
 75 61 l 1
 94 193 l 1
 239 193 l 1
 247 244 l 1
 101 244 l 1
EndSplineSet
Validated: 1
EndChar

StartChar: brokenbar
Encoding: 166 166 99
GlifName: brokenbar
Width: 351
Flags: W
VStem: 64 162<-220 -58> 126 161<59 220> 144 162<350 512> 206 162<628 790>
LayerCount: 2
Fore
SplineSet
64 -220 m 1x80
 126 220 l 1
 287 220 l 1x40
 226 -220 l 1
 64 -220 l 1x80
144 350 m 1x20
 206 790 l 1
 368 790 l 1x10
 306 350 l 1
 144 350 l 1x20
EndSplineSet
Validated: 1
EndChar

StartChar: section
Encoding: 167 167 100
GlifName: section
Width: 400
Flags: W
HStem: -91 112<156.84 258.025> 139 112<191.472 264.528> 369 112<223.472 296.528> 599 112<229.975 331.16>
VStem: 40 106<38.5178 80> 104 107<498.518 578.817> 277 107<41.1834 121.482> 342 106<540 581.482>
LayerCount: 2
Fore
SplineSet
300 711 m 0xf6
 349 711 388 695 416 662 c 0
 444 629 455 588 448 540 c 1
 342 540 l 1
 344 557 340 571 330 582 c 0
 320 593 305 599 285 599 c 0
 265 599 249 593 235 582 c 0
 221 571 213 557 211 540 c 0xf5
 209 523 213 509 223 498 c 0
 233 487 248 481 268 481 c 0
 317 481 356 465 384 432 c 0
 412 399 423 358 416 310 c 0
 410 271 395 236 369 207 c 0
 365 203 361 199 357 195 c 1
 360 191 363 186 366 182 c 0
 383 153 389 119 384 80 c 0
 377 32 355 -9 318 -42 c 0
 281 -75 237 -91 188 -91 c 0
 139 -91 100 -75 72 -42 c 0
 44 -9 33 32 40 80 c 1
 146 80 l 1xfa
 144 63 148 49 158 38 c 0
 168 27 183 21 203 21 c 0
 223 21 239 27 253 38 c 0
 267 49 275 63 277 80 c 0
 279 97 275 111 265 122 c 0
 255 133 240 139 220 139 c 0
 171 139 132 155 104 188 c 0
 76 221 65 262 72 310 c 0
 77 348 93 382 118 411 c 0
 122 416 126 420 131 425 c 1
 128 429 125 434 122 438 c 0
 105 467 99 501 104 540 c 0
 111 588 133 629 170 662 c 0
 207 695 251 711 300 711 c 0xf6
252 369 m 0
 232 369 216 363 202 352 c 0
 188 341 180 327 178 310 c 0
 176 293 181 279 191 268 c 0
 201 257 216 251 236 251 c 0
 256 251 272 257 286 268 c 0
 300 279 308 293 310 310 c 0
 312 327 307 341 297 352 c 0
 287 363 272 369 252 369 c 0
EndSplineSet
Validated: 33
EndChar

StartChar: dieresis
Encoding: 168 168 101
GlifName: dieresis
Width: 499
Flags: W
HStem: 569 176<169.372 258.628 425.427 515.573>
LayerCount: 2
Fore
SplineSet
226 745 m 4
 249 745 268 736 282 719 c 4
 296 702 301 681 298 657 c 4
 295 633 283 612 264 595 c 4
 245 578 225 569 202 569 c 4
 179 569 160 578 146 595 c 4
 132 612 127 633 130 657 c 4
 133 681 145 702 164 719 c 4
 183 736 203 745 226 745 c 4
483 745 m 4
 506 745 524 736 538 719 c 4
 552 702 557 681 554 657 c 4
 551 633 540 612 521 595 c 4
 502 578 481 569 458 569 c 4
 435 569 417 578 403 595 c 4
 389 612 384 633 387 657 c 4
 390 681 401 702 420 719 c 4
 439 736 460 745 483 745 c 4
EndSplineSet
Validated: 33
EndChar

StartChar: copyright
Encoding: 169 169 102
GlifName: copyright
Width: 734
Flags: W
HStem: -11 120<290.228 481.774> 153 120<356.403 466.992> 428 120<372.884 498.106> 592 120<351.011 542.557>
LayerCount: 2
Fore
SplineSet
467 712 m 0
 529 712 585 696 633 664 c 0
 681 632 716 588 739 532 c 0
 762 476 769 415 760 350 c 0
 751 285 726 225 688 169 c 0
 650 113 602 69 545 37 c 0
 488 5 428 -11 366 -11 c 0
 304 -11 248 5 200 37 c 0
 152 69 116 113 93 169 c 0
 70 225 64 285 73 350 c 0
 82 415 106 476 144 532 c 0
 182 588 231 632 288 664 c 0
 345 696 405 712 467 712 c 0
450 592 m 0
 387 592 329 568 278 521 c 0
 227 474 196 417 187 350 c 0
 178 283 192 227 230 180 c 0
 268 133 319 109 382 109 c 0
 445 109 504 133 555 180 c 0
 606 227 637 283 646 350 c 0
 655 417 641 474 603 521 c 0
 565 568 513 592 450 592 c 0
443 548 m 0
 495 548 536 529 567 490 c 1
 475 405 l 1
 463 420 446 428 426 428 c 0
 406 428 388 420 371 405 c 0
 354 390 344 371 341 350 c 0
 338 329 343 311 355 296 c 0
 367 281 384 273 404 273 c 0
 424 273 443 281 459 296 c 1
 528 211 l 1
 486 172 439 153 387 153 c 0
 335 153 294 172 263 211 c 0
 232 250 219 295 227 350 c 0
 235 405 260 451 302 490 c 0
 344 529 391 548 443 548 c 0
EndSplineSet
Validated: 33
EndChar

StartChar: ordfeminine
Encoding: 170 170 103
GlifName: ordfeminine
Width: 341
Flags: W
HStem: 393 100<197.757 279.492> 606 101<205.017 287.671> 680 20G<327.391 414>
VStem: 91 323
LayerCount: 2
Fore
SplineSet
330 700 m 1xb0
 414 700 l 1xb0
 372 400 l 1
 288 400 l 1
 291 420 l 1
 269 402 242 393 211 393 c 0
 170 393 139 408 116 438 c 0
 93 468 85 506 91 550 c 0
 97 594 116 631 147 661 c 0
 178 691 214 707 255 707 c 0xd0
 285 707 309 697 327 677 c 1
 330 700 l 1xb0
251 606 m 0xd0
 236 606 222 601 210 590 c 0
 198 579 191 566 189 550 c 0
 187 534 190 521 199 510 c 0
 208 499 220 493 235 493 c 0
 250 493 263 499 275 510 c 0
 287 521 294 534 296 550 c 0
 298 566 295 579 286 590 c 0
 277 601 266 606 251 606 c 0xd0
EndSplineSet
Validated: 33
EndChar

StartChar: guillemotleft
Encoding: 171 171 104
GlifName: guillemotleft
Width: 778
Flags: W
LayerCount: 2
Fore
SplineSet
360 544 m 5
 457 424 l 5
 319 298 l 5
 421 172 l 5
 290 52 l 5
 91 298 l 5
 360 544 l 5
685 544 m 5
 783 424 l 5
 645 298 l 5
 747 172 l 5
 616 52 l 5
 417 298 l 5
 685 544 l 5
EndSplineSet
Validated: 1
EndChar

StartChar: logicalnot
Encoding: 172 172 105
GlifName: logicalnot
Width: 608
Flags: W
HStem: 239 170<181 347>
LayerCount: 2
Fore
SplineSet
157 239 m 1
 181 409 l 1
 532 409 l 5
 494 135 l 5
 332 135 l 1
 347 239 l 1
 157 239 l 1
EndSplineSet
Validated: 1
EndChar

StartChar: uni00AD
Encoding: 173 173 106
GlifName: uni00A_D_
Width: 380
Flags: W
HStem: 213 170<82 381>
LayerCount: 2
Fore
SplineSet
58 213 m 5
 82 383 l 5
 405 383 l 1
 381 213 l 1
 58 213 l 5
EndSplineSet
Validated: 1
EndChar

StartChar: registered
Encoding: 174 174 107
GlifName: registered
Width: 577
Flags: W
HStem: 144 100<243.552 408.91> 499 78<335 381.764> 612 100<289.09 454.448>
VStem: 227 78<286 364> 355 84<286 370> 387 78<452.568 491.811>
LayerCount: 2
Fore
SplineSet
389 712 m 0xf0
 464 712 523 684 568 629 c 0
 613 574 630 507 619 428 c 0
 608 349 572 282 512 227 c 0
 452 172 384 144 309 144 c 0
 234 144 175 172 130 227 c 0
 85 282 68 349 79 428 c 0
 90 507 126 574 186 629 c 0
 246 684 314 712 389 712 c 0xf0
375 612 m 0
 327 612 283 594 244 558 c 0
 205 522 181 479 174 428 c 0
 167 377 178 334 207 298 c 0
 236 262 275 244 323 244 c 0
 371 244 415 262 454 298 c 0
 493 334 517 377 524 428 c 0
 531 479 520 522 491 558 c 0
 462 594 423 612 375 612 c 0
268 577 m 1
 383 577 l 2
 410 577 431 567 447 547 c 0
 463 527 469 503 465 475 c 0xf4
 463 459 458 444 450 431 c 4
 442 417 430 405 416 395 c 1
 439 286 l 1
 355 286 l 1xf8
 337 373 l 1
 317 373 l 1
 305 286 l 1
 227 286 l 1
 268 577 l 1
335 499 m 1
 328 451 l 1
 356 451 l 2
 364 451 371 454 377 458 c 0
 383 462 386 468 387 475 c 0
 388 482 387 488 382 492 c 0
 377 496 370 499 362 499 c 2
 335 499 l 1
EndSplineSet
Validated: 33
EndChar

StartChar: macron
Encoding: 175 175 108
GlifName: macron
Width: 285
Flags: W
HStem: 549 151<79 381>
LayerCount: 2
Fore
SplineSet
58 549 m 1
 79 700 l 1
 402 700 l 1
 381 549 l 1
 58 549 l 1
EndSplineSet
Validated: 1
EndChar

StartChar: degree
Encoding: 176 176 109
GlifName: degree
Width: 367
Flags: W
HStem: 398 140<218.5 280.14> 584 140<245.213 307.5>
VStem: 107 311
LayerCount: 2
Fore
SplineSet
286 724 m 0
 329 724 363 709 389 677 c 0
 415 645 424 606 418 561 c 0
 412 516 391 477 356 445 c 0
 321 413 283 398 240 398 c 0
 197 398 163 413 137 445 c 0
 111 477 101 516 107 561 c 0
 113 606 134 645 169 677 c 0
 204 709 243 724 286 724 c 0
266 584 m 0
 260 584 254 583 249 578 c 0
 244 573 241 567 240 561 c 0
 239 555 241 549 245 544 c 0
 249 539 253 538 259 538 c 0
 265 538 271 539 276 544 c 0
 281 549 284 555 285 561 c 0
 286 567 285 573 281 578 c 0
 277 583 272 584 266 584 c 0
EndSplineSet
Validated: 33
EndChar

StartChar: plusminus
Encoding: 177 177 110
GlifName: plusminus
Width: 608
Flags: W
HStem: 0 170<105 527> 308 170<162 267 452 556>
LayerCount: 2
Fore
SplineSet
81 0 m 1
 105 170 l 1
 551 170 l 1
 527 0 l 1
 81 0 l 1
138 308 m 1
 162 478 l 1
 290 478 l 1
 309 608 l 1
 470 608 l 1
 452 478 l 1
 580 478 l 1
 556 308 l 1
 428 308 l 1
 410 178 l 1
 248 178 l 1
 267 308 l 1
 138 308 l 1
EndSplineSet
Validated: 1
EndChar

StartChar: uni00B2
Encoding: 178 178 111
GlifName: uni00B_2
Width: 353
Flags: W
HStem: 380 102<250 362> 706 102<234.832 301.83>
VStem: 92 311
LayerCount: 2
Fore
SplineSet
285 808 m 0
 322 808 351 794 375 767 c 0
 399 740 408 707 403 669 c 0
 397 627 379 594 351 569 c 2
 250 482 l 1
 376 482 l 1
 362 380 l 1
 92 380 l 1
 107 482 l 1
 287 636 l 2
 298 646 304 657 306 669 c 0
 308 680 306 689 299 696 c 0
 292 703 284 706 274 706 c 0
 264 706 254 703 246 697 c 0
 238 691 232 683 230 672 c 1
 138 691 l 1
 148 725 166 753 194 775 c 0
 222 797 253 808 285 808 c 0
EndSplineSet
Validated: 33
EndChar

StartChar: uni00B3
Encoding: 179 179 112
GlifName: uni00B_3
Width: 337
Flags: W
HStem: 374 102<177.05 274.903> 479 20G<116.783 202.5> 705 102<217.948 295.573>
VStem: 278 96<481.372 531.717>
LayerCount: 2
Fore
SplineSet
283 807 m 0
 319 807 349 794 371 769 c 0
 393 744 402 713 397 677 c 0
 395 662 388 646 377 629 c 0
 369 617 359 605 347 592 c 1
 355 580 362 568 367 557 c 0
 374 539 376 522 374 506 c 0
 369 470 352 438 322 412 c 0
 292 386 259 374 223 374 c 0
 192 374 165 384 142 403 c 0
 119 422 106 447 104 476 c 1
 202 499 l 1
 203 491 207 486 214 482 c 0
 221 478 229 476 238 476 c 0
 247 476 256 479 264 485 c 0
 272 491 277 499 278 508 c 0
 279 518 277 526 271 532 c 0
 265 538 257 541 246 541 c 2
 227 541 l 1
 241 643 l 1
 260 643 l 2
 270 643 280 646 287 652 c 0
 294 658 299 666 300 676 c 0
 301 685 298 692 292 697 c 0
 286 702 278 705 269 705 c 0
 257 705 248 702 241 697 c 0
 235 693 231 688 228 681 c 1
 138 706 l 1
 148 735 167 759 195 778 c 0
 223 797 252 807 283 807 c 0
EndSplineSet
Validated: 33
EndChar

StartChar: acute
Encoding: 180 180 113
GlifName: acute
Width: 286
Flags: W
HStem: 554 146<197 243>
VStem: 76 307
LayerCount: 2
Fore
SplineSet
76 554 m 5
 197 700 l 5
 383 700 l 5
 243 554 l 5
 76 554 l 5
EndSplineSet
Validated: 1
EndChar

StartChar: mu
Encoding: 181 181 114
GlifName: mu
Width: 549
Flags: W
HStem: -200 21G<10 152.857> -12 170<247.73 346.447> 0 21G<366 508.84> 480 20G<105.2 270 412.188 577>
VStem: 10 140<-200 -60> 108 162<338 500> 415 162<338 500>
LayerCount: 2
Fore
SplineSet
577 500 m 5xd6
 506 0 l 1
 366 0 l 1xb6
 371 35 l 1
 350 4 316 -12 270 -12 c 0xd6
 228 -12 199 2 183 31 c 1
 150 -200 l 1
 10 -200 l 1xda
 108 500 l 1
 270 500 l 1
 234 244 l 2
 230 219 234 198 246 182 c 0
 258 166 274 158 294 158 c 0
 314 158 333 166 349 182 c 0
 365 198 375 219 379 244 c 2
 415 500 l 5
 577 500 l 5xd6
EndSplineSet
Validated: 33
EndChar

StartChar: paragraph
Encoding: 182 182 115
GlifName: paragraph
Width: 627
Flags: W
HStem: 680 20G<304 669>
VStem: 256 130<-84 46> 429 130<-84 46>
LayerCount: 2
Fore
SplineSet
336 700 m 2
 366 700 l 1
 669 700 l 1
 559 -84 l 1
 429 -84 l 1
 515 530 l 1
 473 530 l 1
 386 -84 l 1
 256 -84 l 1
 297 210 l 1
 267 210 l 2
 203 210 152 234 113 282 c 0
 74 330 60 388 69 455 c 0
 78 522 109 580 161 628 c 0
 213 676 272 700 336 700 c 2
EndSplineSet
Validated: 33
EndChar

StartChar: periodcentered
Encoding: 183 183 116
GlifName: periodcentered
Width: 252
Flags: W
HStem: 246 206<126.528 223.53>
VStem: 78 195
LayerCount: 2
Fore
SplineSet
273 349 m 0
 269 320 256 296 234 276 c 0
 212 256 188 246 161 246 c 0
 134 246 112 256 96 276 c 0
 80 296 74 320 78 349 c 0
 82 378 94 402 116 422 c 0
 138 442 163 452 190 452 c 0
 217 452 239 442 255 422 c 0
 271 402 277 378 273 349 c 0
EndSplineSet
Validated: 33
EndChar

StartChar: cedilla
Encoding: 184 184 117
GlifName: cedilla
Width: 241
Flags: W
HStem: -210 120<45.4149 127.474>
VStem: -20 271
LayerCount: 2
Fore
SplineSet
212 83 m 1
 246 50 258 7 251 -45 c 0
 245 -90 224 -130 189 -162 c 0
 154 -194 114 -210 71 -210 c 0
 35 -210 5 -198 -20 -175 c 1
 33 -109 59 -76 59 -76 c 4
 66 -85 76 -90 88 -90 c 0
 100 -90 111 -86 120 -77 c 0
 129 -68 135 -58 137 -45 c 0
 139 -34 137 -23 131 -15 c 0
 125 -7 116 -1 106 -0 c 1
 212 83 l 1
EndSplineSet
Validated: 33
EndChar

StartChar: uni00B9
Encoding: 185 185 118
GlifName: uni00B_9
Width: 265
Flags: W
VStem: 170 97<380 477>
LayerCount: 2
Fore
SplineSet
229 800 m 1
 326 800 l 1
 267 380 l 1
 170 380 l 1
 211 667 l 1
 153 622 l 1
 102 700 l 1
 229 800 l 1
EndSplineSet
Validated: 1
EndChar

StartChar: ordmasculine
Encoding: 186 186 119
GlifName: ordmasculine
Width: 324
Flags: W
HStem: 393 102<195.215 276.622> 605 102<202.628 283.785>
VStem: 90 299
LayerCount: 2
Fore
SplineSet
262 707 m 4
 303 707 336 692 361 661 c 4
 386 630 395 593 389 550 c 4
 383 507 363 470 330 439 c 4
 297 408 258 393 217 393 c 4
 176 393 143 408 118 439 c 4
 93 470 84 507 90 550 c 4
 96 593 117 630 150 661 c 4
 183 692 221 707 262 707 c 4
247 605 m 4
 233 605 220 600 208 589 c 4
 196 578 189 565 187 550 c 4
 185 535 188 522 197 511 c 4
 206 500 218 495 232 495 c 4
 246 495 259 500 271 511 c 4
 283 522 290 535 292 550 c 4
 294 565 291 578 282 589 c 4
 273 600 261 605 247 605 c 4
EndSplineSet
Validated: 33
EndChar

StartChar: guillemotright
Encoding: 187 187 120
GlifName: guillemotright
Width: 778
Flags: W
LayerCount: 2
Fore
SplineSet
240 544 m 5
 109 424 l 5
 211 298 l 5
 73 172 l 5
 171 52 l 5
 439 298 l 5
 240 544 l 5
563 544 m 5
 432 424 l 5
 534 298 l 5
 396 172 l 5
 494 52 l 5
 762 298 l 5
 563 544 l 5
EndSplineSet
Validated: 9
EndChar

StartChar: onequarter
Encoding: 188 188 121
GlifName: onequarter
Width: 805
Flags: W
HStem: 0 21G<624 723.077> 65 102<578 633 744 779> 680 20G<189.6 312>
VStem: 156 97<280 377> 663 97<182 279>
LayerCount: 2
Fore
SplineSet
623 420 m 1
 705 377 l 1
 578 167 l 1
 647 167 l 1
 663 279 l 1
 760 279 l 1
 744 167 l 1
 794 167 l 1
 779 65 l 1
 730 65 l 1
 720 0 l 1
 624 0 l 1
 633 65 l 1
 457 65 l 1
 471 167 l 1
 623 420 l 1
644 697 m 5
 724 633 l 5
 215 12 l 5
 137 75 l 5
 644 697 l 5
215 700 m 1
 312 700 l 1
 253 280 l 1
 156 280 l 1
 197 567 l 1
 139 522 l 1
 88 600 l 1
 215 700 l 1
EndSplineSet
Validated: 1
EndChar

StartChar: onehalf
Encoding: 189 189 122
GlifName: onehalf
Width: 833
Flags: W
HStem: 0 102<676 788> 326 102<661.605 727.876> 680 20G<189.6 312>
VStem: 156 97<280 377>
LayerCount: 2
Fore
SplineSet
711 428 m 0
 748 428 778 414 802 387 c 0
 826 360 834 327 829 289 c 0
 823 247 806 214 778 189 c 2
 676 102 l 1
 802 102 l 1
 788 0 l 1
 519 0 l 1
 533 102 l 1
 714 256 l 2
 725 266 731 277 733 289 c 0
 735 300 732 309 725 316 c 0
 718 323 710 326 700 326 c 0
 690 326 681 323 673 317 c 0
 665 311 659 303 657 292 c 1
 564 311 l 1
 574 345 593 373 621 395 c 0
 649 417 679 428 711 428 c 0
644 697 m 5
 724 633 l 5
 215 12 l 5
 137 75 l 5
 644 697 l 5
215 700 m 1
 312 700 l 1
 253 280 l 1
 156 280 l 1
 197 567 l 1
 139 522 l 1
 88 600 l 1
 215 700 l 1
EndSplineSet
Validated: 33
EndChar

StartChar: threequarters
Encoding: 190 190 123
GlifName: threequarters
Width: 877
Flags: W
HStem: 0 21G<696 795.769> 65 102<650 705 816 851> 274 102<163.047 259.96> 605 102<203.948 281.573>
VStem: 264 96<381.372 431.717> 735 97<182 279>
LayerCount: 2
Fore
SplineSet
695 420 m 1
 777 377 l 1
 650 167 l 1
 719 167 l 1
 735 279 l 1
 832 279 l 1
 816 167 l 1
 866 167 l 1
 851 65 l 1
 802 65 l 1
 793 0 l 1
 696 0 l 1
 705 65 l 1
 529 65 l 1
 544 167 l 1
 695 420 l 1
716 697 m 5
 796 633 l 5
 288 12 l 5
 209 75 l 5
 716 697 l 5
269 707 m 0
 305 707 335 694 357 669 c 0
 379 644 388 613 383 577 c 0
 381 562 374 546 363 529 c 0
 355 517 345 505 333 492 c 1
 341 480 348 468 353 457 c 0
 360 439 362 422 360 406 c 0
 355 370 338 338 308 312 c 0
 278 286 245 274 209 274 c 0
 178 274 151 284 128 303 c 0
 105 322 92 347 90 376 c 1
 188 399 l 1
 189 391 192 386 199 382 c 0
 206 378 215 376 224 376 c 0
 233 376 241 379 249 385 c 0
 257 391 263 399 264 408 c 0
 265 418 263 426 257 432 c 0
 251 438 243 441 232 441 c 2
 213 441 l 1
 227 543 l 1
 246 543 l 2
 256 543 266 546 273 552 c 0
 280 558 285 566 286 576 c 0
 287 585 284 592 278 597 c 0
 272 602 264 605 255 605 c 0
 243 605 234 602 227 597 c 0
 221 593 217 588 214 581 c 1
 124 606 l 1
 134 635 153 659 181 678 c 0
 209 697 238 707 269 707 c 0
EndSplineSet
Validated: 33
EndChar

StartChar: questiondown
Encoding: 191 191 124
GlifName: questiondown
Width: 439
Flags: W
HStem: -215 170<174.427 267.002> 306 206<240.528 338.472>
LayerCount: 2
Fore
SplineSet
192 409 m 4
 196 438 208 462 230 482 c 4
 252 502 277 512 304 512 c 4
 331 512 353 502 369 482 c 4
 385 462 391 438 387 409 c 4
 383 380 371 356 349 336 c 4
 327 316 302 306 275 306 c 4
 248 306 226 316 210 336 c 4
 194 356 188 380 192 409 c 4
193 -215 m 4
 132 -215 82 -192 45 -146 c 4
 8 -100 -6 -45 3 20 c 4
 9 65 27 107 56 145 c 4
 85 183 119 213 161 233 c 4
 172 238 181 245 187 255 c 4
 192 263 195 273 197 284 c 5
 359 284 l 5
 353 242 337 202 309 164 c 4
 281 126 248 97 209 79 c 4
 196 73 186 65 179 56 c 4
 171 46 166 34 164 20 c 4
 161 1 165 -15 175 -27 c 4
 185 -39 199 -45 217 -45 c 4
 233 -45 248 -40 261 -29 c 4
 274 -18 283 -4 287 13 c 5
 443 -11 l 5
 428 -69 397 -118 349 -157 c 4
 301 -196 249 -215 193 -215 c 4
EndSplineSet
Validated: 33
EndChar

StartChar: Agrave
Encoding: 192 192 125
GlifName: A_grave
Width: 654
Flags: W
HStem: 0 21G<7 187.247 472.914 648> 93 170<300 423> 680 20G<323.686 507.143> 754 147<336 423>
LayerCount: 2
Fore
SplineSet
336 754 m 5
 237 901 l 5
 423 901 l 5
 503 754 l 5
 336 754 l 5
300 263 m 1
 423 263 l 1
 385 446 l 1
 300 263 l 1
221 93 m 1
 178 0 l 1
 7 0 l 1
 333 700 l 1
 503 700 l 1
 648 0 l 1
 477 0 l 1
 458 93 l 1
 221 93 l 1
EndSplineSet
Validated: 1
EndChar

StartChar: Aacute
Encoding: 193 193 126
GlifName: A_acute
Width: 654
Flags: W
HStem: 95 170<298 421> 682 20G<321.686 505.143>
LayerCount: 2
Fore
SplineSet
298 265 m 1
 421 265 l 1
 384 448 l 1
 298 265 l 1
219 95 m 1
 176 2 l 1
 5 2 l 1
 331 702 l 1
 501 702 l 1
 646 2 l 1
 475 2 l 1
 456 95 l 1
 219 95 l 1
339 744 m 5
 461 890 l 5
 647 890 l 5
 506 744 l 5
 339 744 l 5
EndSplineSet
Validated: 1
EndChar

StartChar: Acircumflex
Encoding: 194 194 127
GlifName: A_circumflex
Width: 654
Flags: W
HStem: 0 21G<7 187.247 472.914 648> 93 170<300 423> 680 20G<323.686 507.143>
LayerCount: 2
Fore
SplineSet
225 754 m 1
 369 900 l 1
 528 900 l 1
 631 754 l 1
 475 754 l 1
 435 806 l 1
 381 754 l 1
 225 754 l 1
300 263 m 1
 423 263 l 1
 385 446 l 1
 300 263 l 1
221 93 m 1
 178 0 l 1
 7 0 l 1
 333 700 l 1
 503 700 l 1
 648 0 l 1
 477 0 l 1
 458 93 l 1
 221 93 l 1
EndSplineSet
Validated: 1
EndChar

StartChar: Atilde
Encoding: 195 195 128
GlifName: A_tilde
Width: 654
Flags: W
HStem: 0 21G<7 187.247 472.914 648> 93 170<300 423> 680 20G<323.686 507.143> 734 106<480.381 533.148> 806 106<346.56 404.358>
LayerCount: 2
Fore
SplineSet
495 734 m 0xf0
 456 734 428 746 414 770 c 0
 408 779 403 788 398 795 c 0
 393 802 385 806 374 806 c 0
 360 806 348 793 339 767 c 1
 227 767 l 1
 235 809 256 844 286 871 c 0
 316 898 349 912 383 912 c 0xe8
 425 912 455 900 471 876 c 0
 477 867 482 858 487 851 c 0
 492 844 499 840 509 840 c 0
 522 840 532 853 539 879 c 1
 650 879 l 5
 640 836 620 801 591 774 c 0
 562 747 530 734 495 734 c 0xf0
300 263 m 1
 423 263 l 1
 385 446 l 1
 300 263 l 1
221 93 m 1
 178 0 l 1
 7 0 l 1
 333 700 l 1
 503 700 l 1
 648 0 l 1
 477 0 l 1
 458 93 l 1
 221 93 l 1
EndSplineSet
Validated: 1
EndChar

StartChar: Adieresis
Encoding: 196 196 129
GlifName: A_dieresis
Width: 654
Flags: W
HStem: 0 21G<7 187.247 472.914 648> 93 170<300 423> 680 20G<323.686 507.143> 769 176<265.427 355.573 522.372 611.628>
LayerCount: 2
Fore
SplineSet
323 945 m 4
 346 945 364 936 378 919 c 4
 392 902 397 881 394 857 c 4
 391 833 380 812 361 795 c 4
 342 778 321 769 298 769 c 4
 275 769 257 778 243 795 c 4
 229 812 224 833 227 857 c 4
 230 881 241 902 260 919 c 4
 279 936 300 945 323 945 c 4
579 945 m 4
 602 945 621 936 635 919 c 4
 649 902 654 881 651 857 c 4
 648 833 636 812 617 795 c 4
 598 778 578 769 555 769 c 4
 532 769 513 778 499 795 c 4
 485 812 480 833 483 857 c 4
 486 881 498 902 517 919 c 4
 536 936 556 945 579 945 c 4
300 263 m 1
 423 263 l 1
 385 446 l 1
 300 263 l 1
221 93 m 1
 178 0 l 1
 7 0 l 1
 333 700 l 1
 503 700 l 1
 648 0 l 1
 477 0 l 1
 458 93 l 1
 221 93 l 1
EndSplineSet
Validated: 33
EndChar

StartChar: Aring
Encoding: 197 197 130
GlifName: A_ring
Width: 654
Flags: W
HStem: 0 21G<7 187.247 472.914 648> 93 170<300 423> 680 20G<323.686 507.143> 720 97<411.665 465.9> 882 97<410.935 465.834>
LayerCount: 2
Fore
SplineSet
457 979 m 0
 491 979 518 966 538 941 c 0
 558 916 567 886 562 850 c 0
 557 814 541 783 513 758 c 0
 485 733 454 720 420 720 c 0
 386 720 359 733 339 758 c 0
 319 783 311 814 316 850 c 0
 321 886 336 916 364 941 c 0
 392 966 423 979 457 979 c 0
443 882 m 0
 435 882 427 878 420 872 c 0
 413 866 409 859 408 850 c 0
 407 841 409 833 414 827 c 0
 419 821 426 817 434 817 c 0
 442 817 450 821 457 827 c 0
 464 833 468 841 469 850 c 0
 470 859 469 866 464 872 c 0
 459 878 451 882 443 882 c 0
300 263 m 1
 423 263 l 1
 385 446 l 1
 300 263 l 1
221 93 m 1
 178 0 l 1
 7 0 l 1
 333 700 l 1
 503 700 l 1
 648 0 l 1
 477 0 l 1
 458 93 l 1
 221 93 l 1
EndSplineSet
Validated: 33
EndChar

StartChar: AE
Encoding: 198 198 131
GlifName: A_E_
Width: 981
Flags: W
HStem: 0 170<658 925> 266 169<696 895> 530 170<709 999>
LayerCount: 2
Fore
SplineSet
571 700 m 1
 1023 700 l 1
 999 530 l 1
 709 530 l 1
 696 435 l 1
 919 435 l 1
 895 266 l 1
 672 266 l 1
 658 170 l 1
 949 170 l 1
 925 0 l 1
 473 0 l 1
 487 99 l 1
 292 99 l 1
 214 0 l 1
 18 0 l 1
 571 700 l 1
529 399 m 1
 423 265 l 1
 511 265 l 1
 529 399 l 1
EndSplineSet
Validated: 1
EndChar

StartChar: Ccedilla
Encoding: 199 199 132
GlifName: C_cedilla
Width: 625
Flags: W
HStem: -210 120<257.415 339.474> -12 21G<317 389.5> 542 170<357.561 524.638>
LayerCount: 2
Fore
SplineSet
424 83 m 1
 458 50 470 7 463 -45 c 0
 457 -90 436 -130 401 -162 c 0
 366 -194 326 -210 283 -210 c 0
 247 -210 217 -198 192 -175 c 1
 245 -109 271 -76 271 -76 c 4
 278 -85 288 -90 300 -90 c 0
 312 -90 323 -86 332 -77 c 0
 341 -68 347 -58 349 -45 c 0
 351 -34 349 -23 343 -15 c 0
 337 -7 328 -1 318 -0 c 1
 424 83 l 1
467 712 m 0
 514 712 557 702 596 683 c 0
 635 664 669 638 696 605 c 1
 565 485 l 1
 535 523 494 542 444 542 c 0
 394 542 348 523 307 485 c 0
 266 447 241 403 234 350 c 0
 227 297 239 252 269 214 c 0
 299 176 340 158 390 158 c 0
 440 158 485 177 526 214 c 1
 623 94 l 1
 587 61 546 35 502 16 c 0
 458 -3 413 -12 366 -12 c 0
 268 -12 191 24 134 97 c 0
 80 167 59 252 73 350 c 0
 87 448 131 532 205 602 c 0
 283 675 370 712 467 712 c 0
EndSplineSet
Validated: 37
EndChar

StartChar: Egrave
Encoding: 200 200 133
GlifName: E_grave
Width: 556
Flags: W
HStem: 0 170<242 509> 266 169<280 479> 530 170<293 583> 754 147<322 409>
LayerCount: 2
Fore
SplineSet
322 754 m 5
 223 901 l 5
 409 901 l 5
 489 754 l 5
 322 754 l 5
57 0 m 1
 155 700 l 1
 607 700 l 1
 583 530 l 1
 293 530 l 1
 280 435 l 1
 503 435 l 1
 479 266 l 1
 256 266 l 1
 242 170 l 1
 533 170 l 1
 509 0 l 1
 57 0 l 1
EndSplineSet
Validated: 1
EndChar

StartChar: Eacute
Encoding: 201 201 134
GlifName: E_acute
Width: 556
Flags: W
HStem: 0 170<242 509> 266 169<280 479> 530 170<293 583>
LayerCount: 2
Fore
SplineSet
57 0 m 1
 155 700 l 1
 607 700 l 1
 583 530 l 1
 293 530 l 1
 280 435 l 1
 503 435 l 1
 479 266 l 1
 256 266 l 1
 242 170 l 1
 533 170 l 1
 509 0 l 1
 57 0 l 1
300 750 m 5
 422 898 l 5
 608 898 l 5
 467 750 l 5
 300 750 l 5
EndSplineSet
Validated: 1
EndChar

StartChar: Ecircumflex
Encoding: 202 202 135
GlifName: E_circumflex
Width: 556
Flags: W
HStem: 0 170<242 509> 266 169<280 479> 530 170<293 583>
LayerCount: 2
Fore
SplineSet
179 754 m 1
 324 900 l 1
 482 900 l 1
 585 754 l 1
 429 754 l 1
 390 806 l 1
 336 754 l 1
 179 754 l 1
57 0 m 1
 155 700 l 1
 607 700 l 1
 583 530 l 1
 293 530 l 1
 280 435 l 1
 503 435 l 1
 479 266 l 1
 256 266 l 1
 242 170 l 1
 533 170 l 1
 509 0 l 1
 57 0 l 1
EndSplineSet
Validated: 1
EndChar

StartChar: Edieresis
Encoding: 203 203 136
GlifName: E_dieresis
Width: 556
Flags: W
HStem: 0 170<242 509> 266 169<280 479> 530 170<293 583> 769 176<226.427 316.573 483.372 572.628>
LayerCount: 2
Fore
SplineSet
284 945 m 4
 307 945 325 936 339 919 c 4
 353 902 358 881 355 857 c 4
 352 833 341 812 322 795 c 4
 303 778 282 769 259 769 c 4
 236 769 218 778 204 795 c 4
 190 812 185 833 188 857 c 4
 191 881 202 902 221 919 c 4
 240 936 261 945 284 945 c 4
540 945 m 4
 563 945 582 936 596 919 c 4
 610 902 615 881 612 857 c 4
 609 833 597 812 578 795 c 4
 559 778 539 769 516 769 c 4
 493 769 474 778 460 795 c 4
 446 812 441 833 444 857 c 4
 447 881 459 902 478 919 c 4
 497 936 517 945 540 945 c 4
57 0 m 1
 155 700 l 1
 607 700 l 1
 583 530 l 1
 293 530 l 1
 280 435 l 1
 503 435 l 1
 479 266 l 1
 256 266 l 1
 242 170 l 1
 533 170 l 1
 509 0 l 1
 57 0 l 1
EndSplineSet
Validated: 33
EndChar

StartChar: Igrave
Encoding: 204 204 137
GlifName: I_grave
Width: 275
Flags: W
HStem: 0 21G<57 220.829> 680 20G<152.2 317> 754 147<159 246>
VStem: 57 161<0 161> 155 162<538 700>
LayerCount: 2
Fore
SplineSet
159 754 m 5xe0
 60 901 l 5
 246 901 l 5
 326 754 l 5
 159 754 l 5xe0
57 0 m 1xf0
 155 700 l 1
 317 700 l 1xe8
 218 0 l 1
 57 0 l 1xf0
EndSplineSet
Validated: 1
EndChar

StartChar: Iacute
Encoding: 205 205 138
GlifName: I_acute
Width: 275
Flags: W
HStem: 0 21G<57 220.829> 680 20G<152.2 317>
VStem: 57 161<0 161> 155 162<538 700>
LayerCount: 2
Fore
SplineSet
57 0 m 1xe0
 155 700 l 1
 317 700 l 1xd0
 218 0 l 1
 57 0 l 1xe0
160 750 m 5
 281 898 l 5
 467 898 l 5
 327 750 l 5
 160 750 l 5
EndSplineSet
Validated: 1
EndChar

StartChar: Icircumflex
Encoding: 206 206 139
GlifName: I_circumflex
Width: 275
Flags: W
HStem: 0 21G<57 220.829> 680 20G<152.2 317>
VStem: 57 161<0 161> 155 162<538 700>
LayerCount: 2
Fore
SplineSet
47 754 m 1xc0
 191 900 l 1
 350 900 l 1
 453 754 l 1
 296 754 l 1
 257 806 l 1
 203 754 l 1
 47 754 l 1xc0
57 0 m 1xe0
 155 700 l 1
 317 700 l 1xd0
 218 0 l 1
 57 0 l 1xe0
EndSplineSet
Validated: 1
EndChar

StartChar: Idieresis
Encoding: 207 207 140
GlifName: I_dieresis
Width: 275
Flags: W
HStem: 0 21G<57 220.829> 680 20G<152.2 317> 799 176<104.372 193.573 332.372 421.573>
VStem: 57 161<0 161> 155 162<538 700>
LayerCount: 2
Fore
SplineSet
57 0 m 1xf0
 155 700 l 1
 317 700 l 1xe8
 218 0 l 1
 57 0 l 1xf0
161 975 m 0
 184 975 202 966 216 949 c 0
 230 932 235 911 232 887 c 0
 229 863 218 842 199 825 c 0
 180 808 160 799 137 799 c 0
 114 799 95 808 81 825 c 0
 67 842 62 863 65 887 c 0
 68 911 80 932 99 949 c 0
 118 966 138 975 161 975 c 0
389 975 m 0
 412 975 430 966 444 949 c 0
 458 932 463 911 460 887 c 0
 457 863 446 842 427 825 c 0
 408 808 388 799 365 799 c 0
 342 799 323 808 309 825 c 0
 295 842 290 863 293 887 c 0
 296 911 308 932 327 949 c 0
 346 966 366 975 389 975 c 0
EndSplineSet
Validated: 33
EndChar

StartChar: Eth
Encoding: 208 208 141
GlifName: E_th
Width: 671
Flags: W
HStem: 0 170<242 422.736> 266 169<80 377> 530 170<293 467.719>
LayerCount: 2
Fore
SplineSet
390 530 m 2
 293 530 l 1
 242 170 l 1
 339 170 l 2
 387 170 430 187 468 222 c 0
 506 257 529 300 536 350 c 0
 543 400 532 443 504 478 c 0
 476 513 438 530 390 530 c 2
414 700 m 2
 506 700 579 666 634 598 c 0
 689 530 711 447 697 350 c 0
 683 253 640 170 565 102 c 0
 490 34 407 0 315 0 c 2
 57 0 l 1
 155 700 l 1
 414 700 l 2
56 266 m 5
 80 435 l 5
 401 435 l 5
 377 266 l 5
 56 266 l 5
EndSplineSet
Validated: 37
EndChar

StartChar: Ntilde
Encoding: 209 209 142
GlifName: N_tilde
Width: 677
Flags: W
HStem: 0 21G<57 220.828 449.437 622.829> 680 20G<152.2 326.563 554.224 719> 714 106<491.903 544.729> 786 106<358.482 416.358>
VStem: 57 161<0 161> 557 162<538 700>
LayerCount: 2
Fore
SplineSet
506 714 m 0xec
 467 714 440 726 426 750 c 0
 420 759 415 768 410 775 c 0
 405 782 396 786 385 786 c 0
 371 786 360 773 351 747 c 1
 239 747 l 1
 247 789 268 824 298 851 c 0
 328 878 361 892 395 892 c 0xdc
 437 892 467 880 483 856 c 0
 489 847 494 838 499 831 c 0
 504 824 510 820 520 820 c 0
 533 820 544 833 551 859 c 1
 662 859 l 5
 652 816 632 781 603 754 c 0
 574 727 541 714 506 714 c 0xec
155 700 m 1
 317 700 l 1
 503 311 l 1
 557 700 l 1
 719 700 l 1
 620 0 l 1
 459 0 l 1
 273 389 l 1
 218 0 l 1
 57 0 l 1
 155 700 l 1
EndSplineSet
Validated: 1
EndChar

StartChar: Ograve
Encoding: 210 210 143
GlifName: O_grave
Width: 735
Flags: W
HStem: -12 170<308.326 478.896> 542 170<358.309 523.986> 754 147<409 496>
LayerCount: 2
Fore
SplineSet
409 754 m 5
 310 901 l 5
 496 901 l 5
 576 754 l 5
 409 754 l 5
444 542 m 0
 394 542 348 523 307 485 c 0
 266 447 241 403 234 350 c 0
 227 297 239 252 269 214 c 0
 299 176 340 158 390 158 c 0
 440 158 486 176 527 214 c 0
 568 252 592 297 599 350 c 0
 606 403 595 447 565 485 c 0
 535 523 494 542 444 542 c 0
468 712 m 0
 562 712 638 677 695 608 c 0
 753 537 775 452 761 350 c 0
 747 247 699 159 619 88 c 0
 543 21 459 -12 366 -12 c 0
 269 -12 192 23 135 95 c 0
 79 165 59 251 73 350 c 0
 87 449 131 534 207 604 c 0
 284 676 372 712 468 712 c 0
EndSplineSet
Validated: 33
EndChar

StartChar: Oacute
Encoding: 211 211 144
GlifName: O_acute
Width: 735
Flags: W
HStem: -12 170<308.326 478.896> 542 170<358.309 523.986>
LayerCount: 2
Fore
SplineSet
444 542 m 0
 394 542 348 523 307 485 c 0
 266 447 241 403 234 350 c 0
 227 297 239 252 269 214 c 0
 299 176 340 158 390 158 c 0
 440 158 486 176 527 214 c 0
 568 252 592 297 599 350 c 0
 606 403 595 447 565 485 c 0
 535 523 494 542 444 542 c 0
468 712 m 0
 562 712 638 677 695 608 c 0
 753 537 775 452 761 350 c 0
 747 247 699 159 619 88 c 0
 543 21 459 -12 366 -12 c 0
 269 -12 192 23 135 95 c 0
 79 165 59 251 73 350 c 0
 87 449 131 534 207 604 c 0
 284 676 372 712 468 712 c 0
384 750 m 5
 505 898 l 5
 691 898 l 5
 551 750 l 5
 384 750 l 5
EndSplineSet
Validated: 33
EndChar

StartChar: Ocircumflex
Encoding: 212 212 145
GlifName: O_circumflex
Width: 735
Flags: W
HStem: -12 170<308.326 478.896> 542 170<358.309 523.986>
LayerCount: 2
Fore
SplineSet
267 754 m 1
 412 900 l 1
 570 900 l 1
 673 754 l 1
 517 754 l 1
 478 806 l 1
 424 754 l 1
 267 754 l 1
444 542 m 0
 394 542 348 523 307 485 c 0
 266 447 241 403 234 350 c 0
 227 297 239 252 269 214 c 0
 299 176 340 158 390 158 c 0
 440 158 486 176 527 214 c 0
 568 252 592 297 599 350 c 0
 606 403 595 447 565 485 c 0
 535 523 494 542 444 542 c 0
468 712 m 0
 562 712 638 677 695 608 c 0
 753 537 775 452 761 350 c 0
 747 247 699 159 619 88 c 0
 543 21 459 -12 366 -12 c 0
 269 -12 192 23 135 95 c 0
 79 165 59 251 73 350 c 0
 87 449 131 534 207 604 c 0
 284 676 372 712 468 712 c 0
EndSplineSet
Validated: 33
EndChar

StartChar: Otilde
Encoding: 213 213 146
GlifName: O_tilde
Width: 735
Flags: W
HStem: -12 170<308.326 478.896> 542 170<358.309 523.986> 734 106<545.381 598.148> 806 106<411.56 469.358>
LayerCount: 2
Fore
SplineSet
560 734 m 0xe0
 521 734 493 746 479 770 c 0
 473 779 468 788 463 795 c 0
 458 802 450 806 439 806 c 0
 425 806 413 793 404 767 c 1
 293 767 l 1
 301 809 321 844 351 871 c 0
 381 898 414 912 448 912 c 0xd0
 490 912 520 900 536 876 c 0
 542 867 547 858 552 851 c 0
 557 844 564 840 574 840 c 0
 587 840 597 853 604 879 c 1
 715 879 l 5
 705 836 685 801 656 774 c 0
 627 747 595 734 560 734 c 0xe0
444 542 m 0
 394 542 348 523 307 485 c 0
 266 447 241 403 234 350 c 0
 227 297 239 252 269 214 c 0
 299 176 340 158 390 158 c 0
 440 158 486 176 527 214 c 0
 568 252 592 297 599 350 c 0
 606 403 595 447 565 485 c 0
 535 523 494 542 444 542 c 0
468 712 m 0
 562 712 638 677 695 608 c 0
 753 537 775 452 761 350 c 0
 747 247 699 159 619 88 c 0
 543 21 459 -12 366 -12 c 0
 269 -12 192 23 135 95 c 0
 79 165 59 251 73 350 c 0
 87 449 131 534 207 604 c 0
 284 676 372 712 468 712 c 0
EndSplineSet
Validated: 33
EndChar

StartChar: Odieresis
Encoding: 214 214 147
GlifName: O_dieresis
Width: 735
Flags: W
HStem: -12 170<308.326 478.896> 542 170<358.309 523.986> 769 176<325.372 414.573 581.427 671.573>
LayerCount: 2
Fore
SplineSet
382 945 m 4
 405 945 423 936 437 919 c 4
 451 902 456 881 453 857 c 4
 450 833 439 812 420 795 c 4
 401 778 380 769 357 769 c 4
 334 769 316 778 302 795 c 4
 288 812 283 833 286 857 c 4
 289 881 301 902 320 919 c 4
 339 936 359 945 382 945 c 4
639 945 m 4
 662 945 680 936 694 919 c 4
 708 902 713 881 710 857 c 4
 707 833 696 812 677 795 c 4
 658 778 637 769 614 769 c 4
 591 769 573 778 559 795 c 4
 545 812 540 833 543 857 c 4
 546 881 557 902 576 919 c 4
 595 936 616 945 639 945 c 4
444 542 m 0
 394 542 348 523 307 485 c 0
 266 447 241 403 234 350 c 0
 227 297 239 252 269 214 c 0
 299 176 340 158 390 158 c 0
 440 158 486 176 527 214 c 0
 568 252 592 297 599 350 c 0
 606 403 595 447 565 485 c 0
 535 523 494 542 444 542 c 0
468 712 m 0
 562 712 638 677 695 608 c 0
 753 537 775 452 761 350 c 0
 747 247 699 159 619 88 c 0
 543 21 459 -12 366 -12 c 0
 269 -12 192 23 135 95 c 0
 79 165 59 251 73 350 c 0
 87 449 131 534 207 604 c 0
 284 676 372 712 468 712 c 0
EndSplineSet
Validated: 33
EndChar

StartChar: multiply
Encoding: 215 215 148
GlifName: multiply
Width: 607
Flags: W
LayerCount: 2
Fore
SplineSet
209 67 m 1
 111 188 l 1
 232 298 l 1
 142 408 l 1
 273 529 l 1
 363 418 l 1
 483 529 l 1
 580 408 l 1
 460 298 l 1
 549 188 l 1
 418 67 l 1
 329 178 l 1
 209 67 l 1
EndSplineSet
Validated: 1
EndChar

StartChar: Oslash
Encoding: 216 216 149
GlifName: O_slash
Width: 734
Flags: W
HStem: -12 170<343.695 478.896> 542 170<358.309 489.971>
LayerCount: 2
Fore
SplineSet
444 542 m 0
 394 542 348 523 307 485 c 0
 266 447 241 403 234 350 c 0
 227 297 239 252 269 214 c 0
 299 176 340 158 390 158 c 0
 440 158 486 176 527 214 c 0
 568 252 592 297 599 350 c 0
 606 403 595 447 565 485 c 0
 535 523 494 542 444 542 c 0
468 712 m 0
 562 712 638 677 695 608 c 0
 753 537 775 452 761 350 c 0
 747 247 699 159 619 88 c 0
 543 21 459 -12 366 -12 c 0
 269 -12 192 23 135 95 c 0
 79 165 59 251 73 350 c 0
 87 449 131 534 207 604 c 0
 284 676 372 712 468 712 c 0
227 -8 m 1
 108 90 l 1
 606 707 l 1
 724 609 l 1
 227 -8 l 1
EndSplineSet
Validated: 37
EndChar

StartChar: Ugrave
Encoding: 217 217 150
GlifName: U_grave
Width: 665
Flags: W
HStem: -12 170<293.717 421.996> 680 20G<143.173 307 551.225 716> 754 147<365 452>
VStem: 146 161<539 700> 554 162<538 700>
LayerCount: 2
Fore
SplineSet
365 754 m 5
 266 901 l 5
 452 901 l 5
 533 754 l 5
 365 754 l 5
146 700 m 1
 307 700 l 1
 254 318 l 2
 247 269 253 231 273 202 c 0
 293 173 320 158 355 158 c 0
 390 158 421 173 449 202 c 0
 477 231 494 269 501 318 c 2
 554 700 l 1
 716 700 l 1
 662 318 l 2
 649 222 610 143 546 81 c 0
 482 19 411 -12 331 -12 c 0
 251 -12 188 19 142 81 c 0
 96 143 79 222 92 318 c 2
 146 700 l 1
EndSplineSet
Validated: 33
EndChar

StartChar: Uacute
Encoding: 218 218 151
GlifName: U_acute
Width: 665
Flags: W
HStem: -12 170<293.717 421.996> 680 20G<143.173 307 551.225 716>
VStem: 146 161<539 700> 554 162<538 700>
LayerCount: 2
Fore
SplineSet
352 724 m 5
 473 870 l 5
 659 870 l 5
 519 724 l 5
 352 724 l 5
146 700 m 1
 307 700 l 1
 254 318 l 2
 247 269 253 231 273 202 c 0
 293 173 320 158 355 158 c 0
 390 158 421 173 449 202 c 0
 477 231 494 269 501 318 c 2
 554 700 l 1
 716 700 l 1
 662 318 l 2
 649 222 610 143 546 81 c 0
 482 19 411 -12 331 -12 c 0
 251 -12 188 19 142 81 c 0
 96 143 79 222 92 318 c 2
 146 700 l 1
EndSplineSet
Validated: 33
EndChar

StartChar: Ucircumflex
Encoding: 219 219 152
GlifName: U_circumflex
Width: 665
Flags: W
HStem: -12 170<293.717 421.996> 680 20G<143.173 307 551.225 716>
VStem: 146 161<539 700> 554 162<538 700>
LayerCount: 2
Fore
SplineSet
220 754 m 1
 365 900 l 1
 523 900 l 1
 626 754 l 1
 470 754 l 1
 431 806 l 1
 377 754 l 1
 220 754 l 1
146 700 m 1
 307 700 l 1
 254 318 l 2
 247 269 253 231 273 202 c 0
 293 173 320 158 355 158 c 0
 390 158 421 173 449 202 c 0
 477 231 494 269 501 318 c 2
 554 700 l 1
 716 700 l 1
 662 318 l 2
 649 222 610 143 546 81 c 0
 482 19 411 -12 331 -12 c 0
 251 -12 188 19 142 81 c 0
 96 143 79 222 92 318 c 2
 146 700 l 1
EndSplineSet
Validated: 33
EndChar

StartChar: Udieresis
Encoding: 220 220 153
GlifName: U_dieresis
Width: 665
Flags: W
HStem: -12 170<293.717 421.996> 680 20G<143.173 307 551.225 716> 769 176<280.372 369.573 536.427 625.628>
VStem: 146 161<539 700> 554 162<538 700>
LayerCount: 2
Fore
SplineSet
337 945 m 4
 360 945 378 936 392 919 c 4
 406 902 411 881 408 857 c 4
 405 833 394 812 375 795 c 4
 356 778 335 769 312 769 c 4
 289 769 271 778 257 795 c 4
 243 812 238 833 241 857 c 4
 244 881 256 902 275 919 c 4
 294 936 314 945 337 945 c 4
594 945 m 4
 617 945 635 936 649 919 c 4
 663 902 668 881 665 857 c 4
 662 833 650 812 631 795 c 4
 612 778 592 769 569 769 c 4
 546 769 528 778 514 795 c 4
 500 812 495 833 498 857 c 4
 501 881 512 902 531 919 c 4
 550 936 571 945 594 945 c 4
146 700 m 1
 307 700 l 1
 254 318 l 2
 247 269 253 231 273 202 c 0
 293 173 320 158 355 158 c 0
 390 158 421 173 449 202 c 0
 477 231 494 269 501 318 c 2
 554 700 l 1
 716 700 l 1
 662 318 l 2
 649 222 610 143 546 81 c 0
 482 19 411 -12 331 -12 c 0
 251 -12 188 19 142 81 c 0
 96 143 79 222 92 318 c 2
 146 700 l 1
EndSplineSet
Validated: 33
EndChar

StartChar: Yacute
Encoding: 221 221 154
GlifName: Y_acute
Width: 603
Flags: W
HStem: 0 21G<221 384.857> 680 20G<104 301.061 493.224 696>
VStem: 221 161<0 161>
LayerCount: 2
Fore
SplineSet
308 724 m 5
 429 870 l 5
 615 870 l 5
 475 724 l 5
 308 724 l 5
104 700 m 1
 293 700 l 1
 372 504 l 1
 507 700 l 1
 696 700 l 1
 426 308 l 5
 382 0 l 1
 221 0 l 1
 264 308 l 1
 104 700 l 1
EndSplineSet
Validated: 1
EndChar

StartChar: Thorn
Encoding: 222 222 155
GlifName: T_horn
Width: 577
Flags: W
HStem: 1 21G<67 230.909> 111 170<267 426.39> 431 170<312 440.568> 681 20G<162.2 327>
LayerCount: 2
Fore
SplineSet
165 701 m 1
 327 701 l 1
 312 601 l 1
 420 601 l 2
 484 601 536 577 575 529 c 0
 614 481 629 424 619 356 c 0
 609 288 578 231 526 183 c 0
 474 135 415 111 351 111 c 2
 244 111 l 1
 228 1 l 1
 67 1 l 1
 165 701 l 1
289 431 m 1
 267 281 l 1
 375 281 l 2
 394 281 413 288 429 303 c 0
 445 318 454 336 457 356 c 0
 460 376 455 394 443 409 c 0
 431 424 415 431 396 431 c 2
 289 431 l 1
EndSplineSet
Validated: 33
EndChar

StartChar: germandbls
Encoding: 223 223 156
GlifName: germandbls
Width: 532
Flags: W
HStem: 0 21G<43 206.816 260 314.5> 542 170<293.239 390.694>
VStem: 43 161<0 161>
LayerCount: 2
Fore
SplineSet
368 712 m 0
 431 712 482 691 519 648 c 0
 556 605 571 552 562 491 c 0
 559 468 553 447 544 426 c 0
 535 404 522 384 506 365 c 1
 519 347 529 327 535 307 c 4
 543 280 543 252 539 221 c 0
 530 160 501 107 452 64 c 0
 403 21 346 0 283 0 c 2
 260 0 l 1
 284 170 l 1
 307 170 l 2
 325 170 342 175 355 185 c 0
 368 195 376 207 378 221 c 0
 380 235 376 246 365 256 c 0
 354 266 339 271 321 271 c 2
 298 271 l 1
 322 441 l 1
 345 441 l 2
 358 441 370 446 381 456 c 0
 392 466 399 478 401 491 c 0
 403 505 398 517 388 527 c 0
 378 537 363 542 344 542 c 0
 326 542 310 536 296 524 c 0
 282 512 274 498 272 483 c 2
 204 0 l 1
 43 0 l 1
 111 483 l 2
 120 546 148 599 198 644 c 0
 248 689 305 712 368 712 c 0
EndSplineSet
Validated: 33
EndChar

StartChar: agrave
Encoding: 224 224 157
GlifName: agrave
Width: 566
Flags: W
HStem: -12 168<241.643 351.904> 0 21G<383 525.84> 344 168<262.621 373.8> 480 20G<450.368 594> 554 147<263 350>
LayerCount: 2
Fore
SplineSet
263 554 m 5x08
 164 701 l 5
 350 701 l 5
 430 554 l 5
 263 554 l 5x08
453 500 m 1x18
 594 500 l 1
 523 0 l 1
 383 0 l 1x58
 387 33 l 1
 383 30 380 27 376 24 c 4
 341 0 301 -12 255 -12 c 0
 187 -12 134 13 96 64 c 0
 58 115 44 177 54 250 c 0
 64 323 96 385 148 436 c 0
 200 487 260 512 328 512 c 0xa8
 373 512 410 499 439 471 c 0
 442 468 445 465 448 462 c 1
 453 500 l 1x18
321 344 m 0xa8
 296 344 274 334 254 316 c 0
 234 298 222 276 218 250 c 0
 214 224 220 202 235 184 c 0
 250 166 270 156 295 156 c 0
 320 156 342 166 362 184 c 0
 382 202 393 224 397 250 c 0
 401 276 395 298 380 316 c 0
 365 334 346 344 321 344 c 0xa8
EndSplineSet
Validated: 33
EndChar

StartChar: aacute
Encoding: 225 225 158
GlifName: aacute
Width: 566
Flags: W
HStem: -12 168<241.643 351.904> 0 21G<383 525.84> 344 168<262.621 373.8> 480 20G<450.368 594> 680 20G<350.425 553>
LayerCount: 2
Fore
SplineSet
246 554 m 5x08
 367 700 l 5
 553 700 l 5
 413 554 l 5
 246 554 l 5x08
453 500 m 1x18
 594 500 l 1
 523 0 l 1
 383 0 l 1x58
 387 33 l 1
 383 30 380 27 376 24 c 4
 341 0 301 -12 255 -12 c 0
 187 -12 134 13 96 64 c 0
 58 115 44 177 54 250 c 0
 64 323 96 385 148 436 c 0
 200 487 260 512 328 512 c 0xa8
 373 512 410 499 439 471 c 0
 442 468 445 465 448 462 c 1
 453 500 l 1x18
321 344 m 0xa8
 296 344 274 334 254 316 c 0
 234 298 222 276 218 250 c 0
 214 224 220 202 235 184 c 0
 250 166 270 156 295 156 c 0
 320 156 342 166 362 184 c 0
 382 202 393 224 397 250 c 0
 401 276 395 298 380 316 c 0
 365 334 346 344 321 344 c 0xa8
EndSplineSet
Validated: 33
EndChar

StartChar: acircumflex
Encoding: 226 226 159
GlifName: acircumflex
Width: 566
Flags: W
HStem: -12 168<241.643 351.904> 0 21G<383 525.84> 344 168<262.621 373.8> 480 20G<450.368 594> 680 20G<274.137 466.11>
LayerCount: 2
Fore
SplineSet
149 554 m 1x08
 294 700 l 1
 452 700 l 1
 555 554 l 1
 399 554 l 1
 360 606 l 1
 306 554 l 1
 149 554 l 1x08
453 500 m 1x18
 594 500 l 1
 523 0 l 1
 383 0 l 1x58
 387 33 l 1
 383 30 380 27 376 24 c 4
 341 0 301 -12 255 -12 c 0
 187 -12 134 13 96 64 c 0
 58 115 44 177 54 250 c 0
 64 323 96 385 148 436 c 0
 200 487 260 512 328 512 c 0xa8
 373 512 410 499 439 471 c 0
 442 468 445 465 448 462 c 1
 453 500 l 1x18
321 344 m 0xa8
 296 344 274 334 254 316 c 0
 234 298 222 276 218 250 c 0
 214 224 220 202 235 184 c 0
 250 166 270 156 295 156 c 0
 320 156 342 166 362 184 c 0
 382 202 393 224 397 250 c 0
 401 276 395 298 380 316 c 0
 365 334 346 344 321 344 c 0xa8
EndSplineSet
Validated: 33
EndChar

StartChar: atilde
Encoding: 227 227 160
GlifName: atilde
Width: 566
Flags: W
HStem: -12 168<241.643 351.904> 0 21G<383 525.84> 344 168<262.621 373.8> 480 20G<450.368 594> 534 106<414.903 467.729> 606 106<280.287 339.358>
LayerCount: 2
Fore
SplineSet
429 534 m 0x08
 390 534 363 546 349 570 c 0
 343 579 338 588 333 595 c 0
 328 602 319 606 308 606 c 0
 294 606 282 593 273 567 c 1
 162 567 l 1
 170 609 191 644 221 671 c 0
 251 698 284 712 318 712 c 0x04
 360 712 390 700 406 676 c 0
 412 667 417 658 422 651 c 0
 427 644 433 640 443 640 c 0
 456 640 467 653 474 679 c 1
 585 679 l 5
 575 636 555 601 526 574 c 0
 497 547 464 534 429 534 c 0x08
453 500 m 1x10
 594 500 l 1
 523 0 l 1
 383 0 l 1x50
 387 33 l 1
 383 30 380 27 376 24 c 4
 341 0 301 -12 255 -12 c 0
 187 -12 134 13 96 64 c 0
 58 115 44 177 54 250 c 0
 64 323 96 385 148 436 c 0
 200 487 260 512 328 512 c 0xa0
 373 512 410 499 439 471 c 0
 442 468 445 465 448 462 c 1
 453 500 l 1x10
321 344 m 0xa0
 296 344 274 334 254 316 c 0
 234 298 222 276 218 250 c 0
 214 224 220 202 235 184 c 0
 250 166 270 156 295 156 c 0
 320 156 342 166 362 184 c 0
 382 202 393 224 397 250 c 0
 401 276 395 298 380 316 c 0
 365 334 346 344 321 344 c 0xa0
EndSplineSet
Validated: 33
EndChar

StartChar: adieresis
Encoding: 228 228 161
GlifName: adieresis
Width: 566
Flags: W
HStem: -12 168<241.643 351.904> 0 21G<383 525.84> 344 168<262.621 373.8> 480 20G<450.368 594> 569 176<192.372 281.573 448.427 537.628>
LayerCount: 2
Fore
SplineSet
249 745 m 4x08
 272 745 290 736 304 719 c 4
 318 702 323 681 320 657 c 4
 317 633 306 612 287 595 c 4
 268 578 247 569 224 569 c 4
 201 569 183 578 169 595 c 4
 155 612 150 633 153 657 c 4
 156 681 168 702 187 719 c 4
 206 736 226 745 249 745 c 4x08
506 745 m 4
 529 745 547 736 561 719 c 4
 575 702 580 681 577 657 c 4
 574 633 562 612 543 595 c 4
 524 578 504 569 481 569 c 4
 458 569 440 578 426 595 c 4
 412 612 407 633 410 657 c 4
 413 681 424 702 443 719 c 4
 462 736 483 745 506 745 c 4
453 500 m 1x18
 594 500 l 1
 523 0 l 1
 383 0 l 1x58
 387 33 l 1
 383 30 380 27 376 24 c 4
 341 0 301 -12 255 -12 c 0
 187 -12 134 13 96 64 c 0
 58 115 44 177 54 250 c 0
 64 323 96 385 148 436 c 0
 200 487 260 512 328 512 c 0xa8
 373 512 410 499 439 471 c 0
 442 468 445 465 448 462 c 1
 453 500 l 1x18
321 344 m 0xa8
 296 344 274 334 254 316 c 0
 234 298 222 276 218 250 c 0
 214 224 220 202 235 184 c 0
 250 166 270 156 295 156 c 0
 320 156 342 166 362 184 c 0
 382 202 393 224 397 250 c 0
 401 276 395 298 380 316 c 0
 365 334 346 344 321 344 c 0xa8
EndSplineSet
Validated: 33
EndChar

StartChar: aring
Encoding: 229 229 162
GlifName: aring
Width: 566
Flags: W
HStem: -12 168<241.643 351.904> 0 21G<383 525.84> 344 168<262.621 373.8> 480 20G<450.368 594> 520 97<330.386 385.673> 682 97<330.342 385.615>
LayerCount: 2
Fore
SplineSet
376 779 m 0x0c
 410 779 438 766 458 741 c 0
 478 716 486 686 481 650 c 0
 476 614 460 583 432 558 c 0
 404 533 374 520 340 520 c 0
 306 520 278 533 258 558 c 0
 238 583 230 614 235 650 c 0
 240 686 256 716 284 741 c 0
 312 766 342 779 376 779 c 0x0c
363 682 m 0
 355 682 347 678 340 672 c 0
 333 666 328 659 327 650 c 0
 326 641 328 633 333 627 c 0
 338 621 346 617 354 617 c 0
 362 617 370 621 377 627 c 0
 384 633 388 641 389 650 c 0
 390 659 388 666 383 672 c 0
 378 678 371 682 363 682 c 0
453 500 m 1x1c
 594 500 l 1
 523 0 l 1
 383 0 l 1x5c
 387 33 l 1
 383 30 380 27 376 24 c 4
 341 0 301 -12 255 -12 c 0
 187 -12 134 13 96 64 c 0
 58 115 44 177 54 250 c 0
 64 323 96 385 148 436 c 0
 200 487 260 512 328 512 c 0xac
 373 512 410 499 439 471 c 0
 442 468 445 465 448 462 c 1
 453 500 l 1x1c
321 344 m 0xac
 296 344 274 334 254 316 c 0
 234 298 222 276 218 250 c 0
 214 224 220 202 235 184 c 0
 250 166 270 156 295 156 c 0
 320 156 342 166 362 184 c 0
 382 202 393 224 397 250 c 0
 401 276 395 298 380 316 c 0
 365 334 346 344 321 344 c 0xac
EndSplineSet
Validated: 33
EndChar

StartChar: ae
Encoding: 230 230 163
GlifName: ae
Width: 1060
Flags: W
HStem: -12 168<241.643 351.904 758.476 906.488> 0 21G<383 525.84> 184 130<767 891> 344 168<262.621 373.8 776.258 885.285> 480 20G<450.368 594>
LayerCount: 2
Fore
SplineSet
453 500 m 1x28
 594 500 l 1
 523 0 l 1
 383 0 l 1x68
 387 33 l 1
 383 30 380 27 376 24 c 4
 341 0 301 -12 255 -12 c 0
 187 -12 134 13 96 64 c 0
 58 115 44 177 54 250 c 0
 64 323 96 385 148 436 c 0
 200 487 260 512 328 512 c 0xb0
 373 512 410 499 439 471 c 0
 442 468 445 465 448 462 c 1
 453 500 l 1x28
321 344 m 0xb0
 296 344 274 334 254 316 c 0
 234 298 222 276 218 250 c 0
 214 224 220 202 235 184 c 0
 250 166 270 156 295 156 c 0
 320 156 342 166 362 184 c 0
 382 202 393 224 397 250 c 0
 401 276 395 298 380 316 c 0
 365 334 346 344 321 344 c 0xb0
1055 184 m 1
 753 184 l 1
 759 176 767 170 775 165 c 0
 788 157 803 152 820 152 c 0
 850 152 875 161 895 179 c 1
 993 59 l 1
 937 8 871 -18 796 -18 c 0
 727 -18 670 8 626 59 c 0
 582 110 565 172 575 244 c 0
 585 317 618 379 674 430 c 0
 730 481 792 506 861 506 c 0
 926 506 979 480 1020 429 c 0
 1059 381 1074 319 1063 244 c 2
 1055 184 l 1
834 346 m 0
 818 346 804 342 791 334 c 0
 783 329 774 322 767 314 c 1
 891 314 l 1
 886 323 879 331 871 336 c 0
 861 343 849 346 834 346 c 0
EndSplineSet
Validated: 33
EndChar

StartChar: ccedilla
Encoding: 231 231 164
GlifName: ccedilla
Width: 452
Flags: W
HStem: -211 120<179.915 261.858> -12 21G<231.5 300.5> 342 170<256.484 397.053>
LayerCount: 2
Fore
SplineSet
346 82 m 1
 380 49 392 6 385 -46 c 0
 379 -91 358 -130 323 -162 c 0
 288 -194 248 -211 205 -211 c 0
 169 -211 139 -199 114 -176 c 1
 167 -110 194 -77 194 -77 c 4
 201 -86 210 -91 222 -91 c 0
 234 -91 246 -87 255 -78 c 0
 264 -69 269 -59 271 -46 c 0
 273 -35 271 -24 265 -16 c 0
 259 -8 250 -2 240 -1 c 1
 346 82 l 1
340 512 m 0
 409 512 464 486 505 435 c 1
 374 315 l 1
 359 333 340 342 316 342 c 0
 292 342 270 333 250 315 c 0
 230 297 219 275 215 250 c 0
 211 225 217 203 232 185 c 0
 247 167 266 158 290 158 c 0
 314 158 335 167 355 185 c 1
 453 65 l 1
 397 14 335 -12 266 -12 c 0
 197 -12 141 13 100 64 c 0
 59 115 44 177 54 250 c 0
 64 323 97 385 153 436 c 0
 209 487 271 512 340 512 c 0
EndSplineSet
Validated: 37
EndChar

StartChar: egrave
Encoding: 232 232 165
GlifName: egrave
Width: 516
Flags: W
HStem: -12 170<243.044 377.736> 190 130<247 370> 352 160<258.172 361.94> 554 147<277 365>
LayerCount: 2
Fore
SplineSet
277 554 m 5
 178 701 l 5
 365 701 l 5
 445 554 l 5
 277 554 l 5
534 190 m 1
 232 190 l 1
 238 182 246 176 254 171 c 0
 267 163 283 158 300 158 c 0
 330 158 355 167 375 185 c 1
 472 65 l 1
 416 14 351 -12 276 -12 c 0
 207 -12 150 14 106 65 c 0
 62 116 44 178 54 250 c 0
 64 323 97 385 153 436 c 0
 209 487 271 512 340 512 c 0
 405 512 458 486 499 435 c 0
 538 387 553 325 542 250 c 2
 534 190 l 1
314 352 m 0
 298 352 283 348 270 340 c 0
 262 335 254 328 247 320 c 1
 370 320 l 1
 365 329 358 337 350 342 c 0
 340 349 329 352 314 352 c 0
EndSplineSet
Validated: 33
EndChar

StartChar: eacute
Encoding: 233 233 166
GlifName: eacute
Width: 516
Flags: W
HStem: -12 170<243.044 377.736> 190 130<247 370> 352 160<258.172 361.94> 680 20G<365.425 569>
LayerCount: 2
Fore
SplineSet
261 554 m 5
 382 700 l 5
 569 700 l 5
 428 554 l 5
 261 554 l 5
534 190 m 1
 232 190 l 1
 238 182 246 176 254 171 c 0
 267 163 283 158 300 158 c 0
 330 158 355 167 375 185 c 1
 472 65 l 1
 416 14 351 -12 276 -12 c 0
 207 -12 150 14 106 65 c 0
 62 116 44 178 54 250 c 0
 64 323 97 385 153 436 c 0
 209 487 271 512 340 512 c 0
 405 512 458 486 499 435 c 0
 538 387 553 325 542 250 c 2
 534 190 l 1
314 352 m 0
 298 352 283 348 270 340 c 0
 262 335 254 328 247 320 c 1
 370 320 l 1
 365 329 358 337 350 342 c 0
 340 349 329 352 314 352 c 0
EndSplineSet
Validated: 33
EndChar

StartChar: ecircumflex
Encoding: 234 234 167
GlifName: ecircumflex
Width: 516
Flags: W
HStem: -12 170<243.044 377.736> 190 130<247 370> 352 160<258.172 361.94> 680 20G<264.274 457.11>
LayerCount: 2
Fore
SplineSet
140 554 m 1
 284 700 l 1
 443 700 l 1
 546 554 l 1
 389 554 l 1
 350 606 l 1
 296 554 l 1
 140 554 l 1
534 190 m 1
 232 190 l 1
 238 182 246 176 254 171 c 0
 267 163 283 158 300 158 c 0
 330 158 355 167 375 185 c 1
 472 65 l 1
 416 14 351 -12 276 -12 c 0
 207 -12 150 14 106 65 c 0
 62 116 44 178 54 250 c 0
 64 323 97 385 153 436 c 0
 209 487 271 512 340 512 c 0
 405 512 458 486 499 435 c 0
 538 387 553 325 542 250 c 2
 534 190 l 1
314 352 m 0
 298 352 283 348 270 340 c 0
 262 335 254 328 247 320 c 1
 370 320 l 1
 365 329 358 337 350 342 c 0
 340 349 329 352 314 352 c 0
EndSplineSet
Validated: 33
EndChar

StartChar: edieresis
Encoding: 235 235 168
GlifName: edieresis
Width: 516
Flags: W
HStem: -12 170<243.044 377.736> 190 130<247 370> 352 160<258.172 361.94> 569 176<186.372 275.628 442.427 532.573>
LayerCount: 2
Fore
SplineSet
243 745 m 4
 266 745 285 736 299 719 c 4
 313 702 318 681 315 657 c 4
 312 633 300 612 281 595 c 4
 262 578 242 569 219 569 c 4
 196 569 177 578 163 595 c 4
 149 612 144 633 147 657 c 4
 150 681 162 702 181 719 c 4
 200 736 220 745 243 745 c 4
500 745 m 4
 523 745 541 736 555 719 c 4
 569 702 574 681 571 657 c 4
 568 633 557 612 538 595 c 4
 519 578 498 569 475 569 c 4
 452 569 434 578 420 595 c 4
 406 612 401 633 404 657 c 4
 407 681 418 702 437 719 c 4
 456 736 477 745 500 745 c 4
534 190 m 1
 232 190 l 1
 238 182 246 176 254 171 c 0
 267 163 283 158 300 158 c 0
 330 158 355 167 375 185 c 1
 472 65 l 1
 416 14 351 -12 276 -12 c 0
 207 -12 150 14 106 65 c 0
 62 116 44 178 54 250 c 0
 64 323 97 385 153 436 c 0
 209 487 271 512 340 512 c 0
 405 512 458 486 499 435 c 0
 538 387 553 325 542 250 c 2
 534 190 l 1
314 352 m 0
 298 352 283 348 270 340 c 0
 262 335 254 328 247 320 c 1
 370 320 l 1
 365 329 358 337 350 342 c 0
 340 349 329 352 314 352 c 0
EndSplineSet
Validated: 33
EndChar

StartChar: igrave
Encoding: 236 236 169
GlifName: igrave
Width: 275
Flags: W
HStem: 0 21G<57 220.84> 480 20G<124.2 289> 554 147<134 221>
VStem: 57 161<0 161> 127 162<338 500>
LayerCount: 2
Fore
SplineSet
134 554 m 5xe0
 35 701 l 5
 221 701 l 5
 301 554 l 5
 134 554 l 5xe0
57 0 m 1xf0
 127 500 l 1
 289 500 l 1xe8
 218 0 l 1
 57 0 l 1xf0
EndSplineSet
Validated: 1
EndChar

StartChar: iacute
Encoding: 237 237 170
GlifName: iacute
Width: 275
Flags: W
HStem: 0 21G<57 220.84> 480 20G<124.2 289> 680 20G<235.425 439>
VStem: 57 161<0 161> 127 162<338 500>
LayerCount: 2
Fore
SplineSet
131 554 m 5xe0
 252 700 l 5
 439 700 l 5
 298 554 l 5
 131 554 l 5xe0
57 0 m 1xf0
 127 500 l 1
 289 500 l 1xe8
 218 0 l 1
 57 0 l 1xf0
EndSplineSet
Validated: 1
EndChar

StartChar: icircumflex
Encoding: 238 238 171
GlifName: icircumflex
Width: 275
Flags: W
HStem: 0 21G<57 220.84> 480 20G<124.2 289> 680 20G<141.137 333.11>
VStem: 57 161<0 161> 127 162<338 500>
LayerCount: 2
Fore
SplineSet
16 554 m 1xe0
 161 700 l 1
 319 700 l 1
 422 554 l 1
 266 554 l 1
 227 606 l 1
 173 554 l 1
 16 554 l 1xe0
57 0 m 1xf0
 127 500 l 1
 289 500 l 1xe8
 218 0 l 1
 57 0 l 1xf0
EndSplineSet
Validated: 1
EndChar

StartChar: idieresis
Encoding: 239 239 172
GlifName: idieresis
Width: 275
Flags: W
HStem: 0 21G<57 220.84> 480 20G<124.2 289> 569 176<71.3718 160.628 299.372 388.628>
VStem: 57 161<0 161> 127 162<338 500>
LayerCount: 2
Fore
SplineSet
57 0 m 1xf0
 127 500 l 1
 289 500 l 1xe8
 218 0 l 1
 57 0 l 1xf0
128 745 m 4
 151 745 170 736 184 719 c 4
 198 702 203 681 200 657 c 4
 197 633 185 612 166 595 c 4
 147 578 127 569 104 569 c 4
 81 569 62 578 48 595 c 4
 34 612 29 633 32 657 c 4
 35 681 47 702 66 719 c 4
 85 736 105 745 128 745 c 4
356 745 m 4
 379 745 398 736 412 719 c 4
 426 702 431 681 428 657 c 4
 425 633 413 612 394 595 c 4
 375 578 355 569 332 569 c 4
 309 569 290 578 276 595 c 4
 262 612 257 633 260 657 c 4
 263 681 275 702 294 719 c 4
 313 736 333 745 356 745 c 4
EndSplineSet
Validated: 33
EndChar

StartChar: eth
Encoding: 240 240 173
GlifName: eth
Width: 531
Flags: W
HStem: -12 170<234.832 338.495> 322 170<251.325 339.836> 692 20G<252.312 272 421.286 465.14>
LayerCount: 2
Fore
SplineSet
330 492 m 0
 396 492 450 467 490 418 c 0
 530 369 544 310 534 240 c 0
 524 170 492 111 439 62 c 0
 386 13 326 -12 260 -12 c 0
 194 -12 140 13 100 62 c 0
 60 111 46 170 56 240 c 0
 66 310 97 369 150 418 c 0
 203 467 264 492 330 492 c 0
307 322 m 0
 285 322 265 314 248 298 c 0
 231 282 220 263 217 240 c 0
 214 217 219 198 232 182 c 0
 245 166 261 158 283 158 c 0
 305 158 325 166 342 182 c 0
 359 198 370 217 373 240 c 0
 376 263 371 282 358 298 c 0
 345 314 329 322 307 322 c 0
174 558 m 1
 264 712 l 1
 280 711 301 707 328 699 c 4
 350 692 371 683 391 672 c 0
 411 661 431 643 454 619 c 0
 477 595 496 568 510 536 c 0
 524 504 533 462 539 411 c 0
 545 360 543 303 534 240 c 1
 373 240 l 1
 382 302 380 355 370 399 c 0
 363 429 351 456 335 478 c 0
 319 500 298 518 273 532 c 0
 240 550 207 559 174 558 c 1
207 566 m 1
 457 706 l 1
 492 620 l 1
 242 480 l 1
 207 566 l 1
EndSplineSet
Validated: 37
EndChar

StartChar: ntilde
Encoding: 241 241 174
GlifName: ntilde
Width: 549
Flags: W
HStem: 0 21G<43 206.803 350 513.812> 342 170<293.556 414.5> 480 20G<110.2 263> 534 106<409.381 462.148> 606 106<275.56 333.358>
VStem: 43 161<0 161> 350 161<0 161>
LayerCount: 2
Fore
SplineSet
424 534 m 0x96
 385 534 357 546 343 570 c 0
 337 579 332 588 327 595 c 0
 322 602 314 606 303 606 c 0
 289 606 277 593 268 567 c 1
 157 567 l 1
 165 609 185 644 215 671 c 0
 245 698 278 712 312 712 c 0x8e
 354 712 384 700 400 676 c 0
 406 667 411 658 416 651 c 0
 421 644 428 640 438 640 c 0
 451 640 461 653 468 679 c 1
 579 679 l 5
 569 636 549 601 520 574 c 0
 491 547 459 534 424 534 c 0x96
511 0 m 1
 350 0 l 1
 387 264 l 2
 390 287 386 306 374 320 c 0
 362 334 346 342 325 342 c 0xc6
 304 342 286 334 270 320 c 0
 254 306 244 287 241 264 c 2
 204 0 l 1
 43 0 l 1
 113 500 l 1
 263 500 l 1
 258 463 l 1
 264 469 270 475 277 480 c 4xa6
 306 501 342 512 383 512 c 0xc6
 446 512 492 488 520 440 c 0
 548 392 558 331 547 256 c 2
 511 0 l 1
EndSplineSet
Validated: 33
EndChar

StartChar: ograve
Encoding: 242 242 175
GlifName: ograve
Width: 535
Flags: W
HStem: -12 170<237.394 349.516> 342 170<256.484 368.606> 554 147<272 359>
LayerCount: 2
Fore
SplineSet
272 554 m 5
 173 701 l 5
 359 701 l 5
 439 554 l 5
 272 554 l 5
316 342 m 0
 292 342 270 333 250 315 c 0
 230 297 220 275 216 250 c 0
 212 225 217 203 232 185 c 0
 247 167 266 158 290 158 c 0
 314 158 336 167 356 185 c 0
 376 203 386 225 390 250 c 0
 394 275 389 297 374 315 c 0
 359 333 340 342 316 342 c 0
340 512 m 0
 409 512 464 486 505 435 c 0
 546 384 562 322 552 250 c 0
 542 178 509 116 453 65 c 0
 397 14 335 -12 266 -12 c 0
 197 -12 142 14 101 65 c 0
 60 116 44 178 54 250 c 0
 64 322 97 384 153 435 c 0
 209 486 271 512 340 512 c 0
EndSplineSet
Validated: 33
EndChar

StartChar: oacute
Encoding: 243 243 176
GlifName: oacute
Width: 535
Flags: W
HStem: -12 170<237.394 349.516> 342 170<256.484 368.606> 680 20G<362.425 565>
LayerCount: 2
Fore
SplineSet
258 554 m 5
 379 700 l 5
 565 700 l 5
 425 554 l 5
 258 554 l 5
316 342 m 0
 292 342 270 333 250 315 c 0
 230 297 220 275 216 250 c 0
 212 225 217 203 232 185 c 0
 247 167 266 158 290 158 c 0
 314 158 336 167 356 185 c 0
 376 203 386 225 390 250 c 0
 394 275 389 297 374 315 c 0
 359 333 340 342 316 342 c 0
340 512 m 0
 409 512 464 486 505 435 c 0
 546 384 562 322 552 250 c 0
 542 178 509 116 453 65 c 0
 397 14 335 -12 266 -12 c 0
 197 -12 142 14 101 65 c 0
 60 116 44 178 54 250 c 0
 64 322 97 384 153 435 c 0
 209 486 271 512 340 512 c 0
EndSplineSet
Validated: 33
EndChar

StartChar: ocircumflex
Encoding: 244 244 177
GlifName: ocircumflex
Width: 535
Flags: W
HStem: -12 170<237.394 349.516> 342 170<256.484 368.606> 680 20G<267.137 459.11>
LayerCount: 2
Fore
SplineSet
142 554 m 1
 287 700 l 1
 445 700 l 1
 548 554 l 1
 392 554 l 1
 353 606 l 1
 299 554 l 1
 142 554 l 1
316 342 m 0
 292 342 270 333 250 315 c 0
 230 297 220 275 216 250 c 0
 212 225 217 203 232 185 c 0
 247 167 266 158 290 158 c 0
 314 158 336 167 356 185 c 0
 376 203 386 225 390 250 c 0
 394 275 389 297 374 315 c 0
 359 333 340 342 316 342 c 0
340 512 m 0
 409 512 464 486 505 435 c 0
 546 384 562 322 552 250 c 0
 542 178 509 116 453 65 c 0
 397 14 335 -12 266 -12 c 0
 197 -12 142 14 101 65 c 0
 60 116 44 178 54 250 c 0
 64 322 97 384 153 435 c 0
 209 486 271 512 340 512 c 0
EndSplineSet
Validated: 33
EndChar

StartChar: otilde
Encoding: 245 245 178
GlifName: otilde
Width: 535
Flags: W
HStem: -12 170<237.394 349.516> 342 170<256.484 368.606> 534 106<403.381 455.302> 606 106<269.56 327.358>
LayerCount: 2
Fore
SplineSet
418 534 m 0xe0
 379 534 351 546 337 570 c 0
 331 579 326 588 321 595 c 0
 316 602 308 606 297 606 c 0
 283 606 271 593 262 567 c 1
 150 567 l 1
 158 609 179 644 209 671 c 0
 239 698 272 712 306 712 c 0xd0
 348 712 378 700 394 676 c 0
 400 667 405 658 410 651 c 0
 415 644 421 640 431 640 c 0
 444 640 455 653 462 679 c 1
 573 679 l 5
 563 636 543 601 514 574 c 0
 485 547 453 534 418 534 c 0xe0
316 342 m 0
 292 342 270 333 250 315 c 0
 230 297 220 275 216 250 c 0
 212 225 217 203 232 185 c 0
 247 167 266 158 290 158 c 0
 314 158 336 167 356 185 c 0
 376 203 386 225 390 250 c 0
 394 275 389 297 374 315 c 0
 359 333 340 342 316 342 c 0
340 512 m 0
 409 512 464 486 505 435 c 0
 546 384 562 322 552 250 c 0
 542 178 509 116 453 65 c 0
 397 14 335 -12 266 -12 c 0
 197 -12 142 14 101 65 c 0
 60 116 44 178 54 250 c 0
 64 322 97 384 153 435 c 0
 209 486 271 512 340 512 c 0
EndSplineSet
Validated: 33
EndChar

StartChar: odieresis
Encoding: 246 246 179
GlifName: odieresis
Width: 535
Flags: W
HStem: -12 170<237.394 349.516> 342 170<256.484 368.606> 569 176<188.427 278.573 445.372 534.628>
LayerCount: 2
Fore
SplineSet
246 745 m 4
 269 745 287 736 301 719 c 4
 315 702 320 681 317 657 c 4
 314 633 303 612 284 595 c 4
 265 578 244 569 221 569 c 4
 198 569 180 578 166 595 c 4
 152 612 147 633 150 657 c 4
 153 681 164 702 183 719 c 4
 202 736 223 745 246 745 c 4
502 745 m 4
 525 745 544 736 558 719 c 4
 572 702 577 681 574 657 c 4
 571 633 559 612 540 595 c 4
 521 578 501 569 478 569 c 4
 455 569 436 578 422 595 c 4
 408 612 403 633 406 657 c 4
 409 681 421 702 440 719 c 4
 459 736 479 745 502 745 c 4
316 342 m 0
 292 342 270 333 250 315 c 0
 230 297 220 275 216 250 c 0
 212 225 217 203 232 185 c 0
 247 167 266 158 290 158 c 0
 314 158 336 167 356 185 c 0
 376 203 386 225 390 250 c 0
 394 275 389 297 374 315 c 0
 359 333 340 342 316 342 c 0
340 512 m 0
 409 512 464 486 505 435 c 0
 546 384 562 322 552 250 c 0
 542 178 509 116 453 65 c 0
 397 14 335 -12 266 -12 c 0
 197 -12 142 14 101 65 c 0
 60 116 44 178 54 250 c 0
 64 322 97 384 153 435 c 0
 209 486 271 512 340 512 c 0
EndSplineSet
Validated: 33
EndChar

StartChar: divide
Encoding: 247 247 180
GlifName: divide
Width: 608
Flags: W
HStem: 50 145<279.379 363.699> 213 170<154 538> 400 145<328.409 412.591>
LayerCount: 2
Fore
SplineSet
381 545 m 0
 400 545 415 538 426 524 c 0
 437 510 442 492 439 472 c 0
 436 452 427 435 412 421 c 0
 397 407 379 400 360 400 c 0
 341 400 326 407 315 421 c 0
 304 435 299 452 302 472 c 0
 305 492 314 510 329 524 c 0
 344 538 362 545 381 545 c 0
154 383 m 1
 562 383 l 1
 538 213 l 1
 130 213 l 1
 154 383 l 1
331 195 m 0
 350 195 366 188 377 174 c 0
 388 160 393 142 390 122 c 0
 387 102 378 85 363 71 c 0
 348 57 330 50 311 50 c 0
 292 50 276 57 265 71 c 0
 254 85 249 102 252 122 c 0
 255 142 265 160 280 174 c 0
 295 188 312 195 331 195 c 0
EndSplineSet
Validated: 33
EndChar

StartChar: oslash
Encoding: 248 248 181
GlifName: oslash
Width: 535
Flags: W
HStem: -12 21G<116 154.744 231.5 300.5> 342 170<256.484 374.5>
LayerCount: 2
Fore
SplineSet
316 342 m 0
 292 342 270 333 250 315 c 0
 230 297 220 275 216 250 c 0
 212 225 217 203 232 185 c 0
 247 167 266 158 290 158 c 0
 314 158 336 167 356 185 c 0
 376 203 386 225 390 250 c 0
 394 275 389 297 374 315 c 0
 359 333 340 342 316 342 c 0
340 512 m 0
 409 512 464 486 505 435 c 0
 546 384 562 322 552 250 c 0
 542 178 509 116 453 65 c 0
 397 14 335 -12 266 -12 c 0
 197 -12 142 14 101 65 c 0
 60 116 44 178 54 250 c 0
 64 322 97 384 153 435 c 0
 209 486 271 512 340 512 c 0
476 512 m 1
 554 434 l 1
 136 -12 l 1
 58 66 l 1
 476 512 l 1
EndSplineSet
Validated: 37
EndChar

StartChar: ugrave
Encoding: 249 249 182
GlifName: ugrave
Width: 544
Flags: W
HStem: -12 170<246.421 347.622> 480 20G<105.188 270 412.197 577> 554 147<272 359>
VStem: 108 162<338 500> 415 162<338 500>
LayerCount: 2
Fore
SplineSet
272 554 m 5
 173 701 l 5
 359 701 l 5
 439 554 l 5
 272 554 l 5
108 500 m 1
 270 500 l 1
 233 236 l 2
 230 213 234 194 246 180 c 0
 258 166 273 158 294 158 c 0
 315 158 333 166 349 180 c 0
 365 194 375 213 378 236 c 2
 415 500 l 1
 577 500 l 1
 541 244 l 2
 531 172 500 111 447 62 c 0
 394 13 335 -12 270 -12 c 0
 205 -12 154 13 115 62 c 0
 76 111 62 172 72 244 c 2
 108 500 l 1
EndSplineSet
Validated: 33
EndChar

StartChar: uacute
Encoding: 250 250 183
GlifName: uacute
Width: 544
Flags: W
HStem: -12 170<246.421 347.622> 480 20G<105.188 270 412.197 577> 680 20G<373.425 576>
VStem: 108 162<338 500> 415 162<338 500>
LayerCount: 2
Fore
SplineSet
269 554 m 5
 390 700 l 5
 576 700 l 5
 436 554 l 5
 269 554 l 5
108 500 m 1
 270 500 l 1
 233 236 l 2
 230 213 234 194 246 180 c 0
 258 166 273 158 294 158 c 0
 315 158 333 166 349 180 c 0
 365 194 375 213 378 236 c 2
 415 500 l 1
 577 500 l 1
 541 244 l 2
 531 172 500 111 447 62 c 0
 394 13 335 -12 270 -12 c 0
 205 -12 154 13 115 62 c 0
 76 111 62 172 72 244 c 2
 108 500 l 1
EndSplineSet
Validated: 33
EndChar

StartChar: ucircumflex
Encoding: 251 251 184
GlifName: ucircumflex
Width: 544
Flags: W
HStem: -12 170<246.421 347.622> 480 20G<105.188 270 412.197 577> 680 20G<268.274 461.11>
VStem: 108 162<338 500> 415 162<338 500>
LayerCount: 2
Fore
SplineSet
144 554 m 1
 288 700 l 1
 447 700 l 1
 550 554 l 1
 393 554 l 1
 354 606 l 1
 300 554 l 1
 144 554 l 1
108 500 m 1
 270 500 l 1
 233 236 l 2
 230 213 234 194 246 180 c 0
 258 166 273 158 294 158 c 0
 315 158 333 166 349 180 c 0
 365 194 375 213 378 236 c 2
 415 500 l 1
 577 500 l 1
 541 244 l 2
 531 172 500 111 447 62 c 0
 394 13 335 -12 270 -12 c 0
 205 -12 154 13 115 62 c 0
 76 111 62 172 72 244 c 2
 108 500 l 1
EndSplineSet
Validated: 33
EndChar

StartChar: udieresis
Encoding: 252 252 185
GlifName: udieresis
Width: 544
Flags: W
HStem: -12 170<246.421 347.622> 480 20G<105.188 270 412.197 577> 569 176<195.427 285.573 452.372 541.628>
VStem: 108 162<338 500> 415 162<603.258 708.154>
LayerCount: 2
Fore
SplineSet
253 745 m 4
 276 745 294 736 308 719 c 4
 322 702 327 681 324 657 c 4
 321 633 310 612 291 595 c 4
 272 578 251 569 228 569 c 4
 205 569 187 578 173 595 c 4
 159 612 154 633 157 657 c 4
 160 681 171 702 190 719 c 4
 209 736 230 745 253 745 c 4
509 745 m 4
 532 745 551 736 565 719 c 4
 579 702 584 681 581 657 c 4
 578 633 566 612 547 595 c 4
 528 578 508 569 485 569 c 4
 462 569 443 578 429 595 c 4
 415 612 410 633 413 657 c 4
 416 681 428 702 447 719 c 4
 466 736 486 745 509 745 c 4
108 500 m 1
 270 500 l 1
 233 236 l 2
 230 213 234 194 246 180 c 0
 258 166 273 158 294 158 c 0
 315 158 333 166 349 180 c 0
 365 194 375 213 378 236 c 2
 415 500 l 1
 577 500 l 1
 541 244 l 2
 531 172 500 111 447 62 c 0
 394 13 335 -12 270 -12 c 0
 205 -12 154 13 115 62 c 0
 76 111 62 172 72 244 c 2
 108 500 l 1
EndSplineSet
Validated: 33
EndChar

StartChar: yacute
Encoding: 253 253 186
GlifName: yacute
Width: 585
Flags: W
HStem: -212 170<80 197.104> 480 20G<72 254.663 468.176 654> 680 20G<389.425 592>
VStem: 72 177<323 500>
LayerCount: 2
Fore
SplineSet
285 554 m 5
 406 700 l 5
 592 700 l 5
 452 554 l 5
 285 554 l 5
72 500 m 1
 249 500 l 1
 328 221 l 1
 479 500 l 1
 654 500 l 1
 343 -78 l 2
 320 -119 287 -151 247 -175 c 0
 207 -199 165 -212 122 -212 c 2
 56 -212 l 1
 80 -42 l 1
 146 -42 l 2
 159 -42 170 -39 180 -34 c 0
 190 -29 198 -21 204 -10 c 2
 212 6 l 1
 72 500 l 1
EndSplineSet
Validated: 1
EndChar

StartChar: thorn
Encoding: 254 254 187
GlifName: thorn
Width: 580
Flags: W
HStem: -200 21G<15 178.857> -12 168<262.026 375.325> 344 168<289.566 394.879> 680 20G<138.2 303>
VStem: 15 161<-200 -39> 141 162<538 700>
LayerCount: 2
Fore
SplineSet
176 -200 m 1xf8
 15 -200 l 1xf8
 141 700 l 1
 303 700 l 1xf4
 272 480 l 1
 277 483 282 486 287 489 c 0
 316 504 348 512 382 512 c 0
 450 512 503 487 541 436 c 0
 579 385 592 323 582 250 c 0
 572 177 540 115 488 64 c 0
 436 13 376 -12 308 -12 c 0
 272 -12 241 -5 216 10 c 0
 213 12 210 15 207 17 c 1
 176 -200 l 1xf8
342 344 m 0
 317 344 295 334 275 316 c 0
 255 298 243 276 239 250 c 0
 235 224 241 202 256 184 c 0
 271 166 290 156 315 156 c 0
 340 156 363 166 383 184 c 0
 403 202 414 224 418 250 c 0
 422 276 416 298 401 316 c 0
 386 334 367 344 342 344 c 0
EndSplineSet
Validated: 33
EndChar

StartChar: ydieresis
Encoding: 255 255 188
GlifName: ydieresis
Width: 585
Flags: W
HStem: -212 170<80 197.104> 480 20G<72 254.663 468.176 654> 569 176<207.372 296.628 463.427 553.573>
VStem: 72 177<323 500>
LayerCount: 2
Fore
SplineSet
264 745 m 4
 287 745 306 736 320 719 c 4
 334 702 339 681 336 657 c 4
 333 633 321 612 302 595 c 4
 283 578 263 569 240 569 c 4
 217 569 198 578 184 595 c 4
 170 612 165 633 168 657 c 4
 171 681 183 702 202 719 c 4
 221 736 241 745 264 745 c 4
521 745 m 4
 544 745 562 736 576 719 c 4
 590 702 595 681 592 657 c 4
 589 633 578 612 559 595 c 4
 540 578 519 569 496 569 c 4
 473 569 455 578 441 595 c 4
 427 612 422 633 425 657 c 4
 428 681 439 702 458 719 c 4
 477 736 498 745 521 745 c 4
72 500 m 1
 249 500 l 1
 328 221 l 1
 479 500 l 1
 654 500 l 1
 343 -78 l 2
 320 -119 287 -151 247 -175 c 0
 207 -199 165 -212 122 -212 c 2
 56 -212 l 1
 80 -42 l 1
 146 -42 l 2
 159 -42 170 -39 180 -34 c 0
 190 -29 198 -21 204 -10 c 2
 212 6 l 1
 72 500 l 1
EndSplineSet
Validated: 33
EndChar

StartChar: Amacron
Encoding: 256 256 189
GlifName: A_macron
Width: 654
Flags: W
HStem: 0 21G<7 187.247 472.914 648> 93 170<300 423> 680 20G<323.686 507.143> 749 151<285 587>
LayerCount: 2
Fore
SplineSet
264 749 m 1
 285 900 l 1
 608 900 l 1
 587 749 l 1
 264 749 l 1
300 263 m 1
 423 263 l 1
 385 446 l 1
 300 263 l 1
221 93 m 1
 178 0 l 1
 7 0 l 1
 333 700 l 1
 503 700 l 1
 648 0 l 1
 477 0 l 1
 458 93 l 1
 221 93 l 1
EndSplineSet
Validated: 1
EndChar

StartChar: amacron
Encoding: 257 257 190
GlifName: amacron
Width: 566
Flags: W
HStem: -12 168<241.643 351.904> 0 21G<383 525.84> 344 168<262.621 373.8> 480 20G<450.368 594> 549 151<208 509>
LayerCount: 2
Fore
SplineSet
186 549 m 1x08
 208 700 l 1
 531 700 l 1
 509 549 l 1
 186 549 l 1x08
453 500 m 1x18
 594 500 l 1
 523 0 l 1
 383 0 l 1x58
 387 33 l 1
 383 30 380 27 376 24 c 4
 341 0 301 -12 255 -12 c 0
 187 -12 134 13 96 64 c 0
 58 115 44 177 54 250 c 0
 64 323 96 385 148 436 c 0
 200 487 260 512 328 512 c 0xa8
 373 512 410 499 439 471 c 0
 442 468 445 465 448 462 c 1
 453 500 l 1x18
321 344 m 0xa8
 296 344 274 334 254 316 c 0
 234 298 222 276 218 250 c 0
 214 224 220 202 235 184 c 0
 250 166 270 156 295 156 c 0
 320 156 342 166 362 184 c 0
 382 202 393 224 397 250 c 0
 401 276 395 298 380 316 c 0
 365 334 346 344 321 344 c 0xa8
EndSplineSet
Validated: 33
EndChar

StartChar: Abreve
Encoding: 258 258 191
GlifName: A_breve
Width: 654
Flags: W
HStem: 0 21G<7 187.247 472.914 648> 93 170<300 423> 680 20G<323.686 507.143> 742 119<405.638 487.536>
LayerCount: 2
Fore
SplineSet
278 900 m 1
 398 900 l 1
 397 889 401 880 409 872 c 0
 417 864 428 861 441 861 c 0
 454 861 466 864 477 872 c 0
 488 880 494 889 495 900 c 1
 616 900 l 1
 610 856 588 819 552 788 c 0
 516 757 473 742 424 742 c 0
 375 742 338 757 310 788 c 0
 282 819 272 856 278 900 c 1
300 263 m 1
 423 263 l 1
 385 446 l 1
 300 263 l 1
221 93 m 1
 178 0 l 1
 7 0 l 1
 333 700 l 1
 503 700 l 1
 648 0 l 1
 477 0 l 1
 458 93 l 1
 221 93 l 1
EndSplineSet
Validated: 33
EndChar

StartChar: abreve
Encoding: 259 259 192
GlifName: abreve
Width: 566
Flags: W
HStem: -12 168<241.643 351.904> 0 21G<383 525.84> 344 168<262.621 373.8> 480 20G<450.368 594> 542 119<322.138 404.536>
LayerCount: 2
Fore
SplineSet
194 700 m 1x08
 315 700 l 1
 314 689 317 680 325 672 c 0
 333 664 345 661 358 661 c 0
 371 661 383 664 394 672 c 0
 405 680 411 689 412 700 c 1
 533 700 l 1
 527 656 505 619 469 588 c 0
 433 557 390 542 341 542 c 0
 292 542 255 557 227 588 c 0
 199 619 188 656 194 700 c 1x08
453 500 m 1x18
 594 500 l 1
 523 0 l 1
 383 0 l 1x58
 387 33 l 1
 383 30 380 27 376 24 c 4
 341 0 301 -12 255 -12 c 0
 187 -12 134 13 96 64 c 0
 58 115 44 177 54 250 c 0
 64 323 96 385 148 436 c 0
 200 487 260 512 328 512 c 0xa8
 373 512 410 499 439 471 c 0
 442 468 445 465 448 462 c 1
 453 500 l 1x18
321 344 m 0xa8
 296 344 274 334 254 316 c 0
 234 298 222 276 218 250 c 0
 214 224 220 202 235 184 c 0
 250 166 270 156 295 156 c 0
 320 156 342 166 362 184 c 0
 382 202 393 224 397 250 c 0
 401 276 395 298 380 316 c 0
 365 334 346 344 321 344 c 0xa8
EndSplineSet
Validated: 33
EndChar

StartChar: Aogonek
Encoding: 260 260 193
GlifName: A_ogonek
Width: 654
Flags: W
HStem: -212 114<498 559.597> 0 21G<7 187.247 472.914 648> 93 170<300 423> 680 20G<323.686 507.143>
LayerCount: 2
Fore
SplineSet
623 -157 m 1
 618 -163 613 -169 607 -174 c 0
 579 -199 549 -212 515 -212 c 0
 481 -212 453 -199 433 -174 c 0
 413 -149 405 -119 410 -83 c 0
 415 -47 431 -17 459 8 c 0
 464 13 470 16 477 18 c 1
 622 18 l 1
 524 -72 l 2
 521 -75 519 -79 518 -83 c 0
 517 -87 519 -91 521 -94 c 0
 523 -97 527 -98 531 -98 c 0
 535 -98 539 -97 542 -94 c 0
 543 -93 542 -93 543 -92 c 9
 623 -157 l 1
300 263 m 1
 423 263 l 1
 385 446 l 1
 300 263 l 1
221 93 m 1
 178 0 l 1
 7 0 l 1
 333 700 l 1
 503 700 l 1
 648 0 l 1
 477 0 l 1
 458 93 l 1
 221 93 l 1
EndSplineSet
Validated: 37
EndChar

StartChar: aogonek
Encoding: 261 261 194
GlifName: aogonek
Width: 566
Flags: W
HStem: -212 114<401 463.652> -12 168<241.643 351.904> 0 21G<383 525.84> 344 168<262.621 373.8> 480 20G<450.368 594>
LayerCount: 2
Fore
SplineSet
526 -157 m 1x80
 521 -163 516 -169 510 -174 c 0
 482 -199 452 -212 418 -212 c 0
 384 -212 356 -199 336 -174 c 0
 316 -149 308 -119 313 -83 c 0
 318 -47 334 -17 362 8 c 0
 367 13 373 16 380 18 c 1
 525 18 l 1
 427 -72 l 2
 424 -75 422 -79 421 -83 c 0
 420 -87 422 -91 424 -94 c 0
 426 -97 430 -98 434 -98 c 0
 438 -98 442 -97 445 -94 c 0
 446 -93 446 -93 447 -92 c 9
 526 -157 l 1x80
453 500 m 1x88
 594 500 l 1
 523 0 l 1
 383 0 l 1xa8
 387 33 l 1
 383 30 380 27 376 24 c 4
 341 0 301 -12 255 -12 c 0
 187 -12 134 13 96 64 c 0
 58 115 44 177 54 250 c 0
 64 323 96 385 148 436 c 0
 200 487 260 512 328 512 c 0xd0
 373 512 410 499 439 471 c 0
 442 468 445 465 448 462 c 1
 453 500 l 1x88
321 344 m 0xd0
 296 344 274 334 254 316 c 0
 234 298 222 276 218 250 c 0
 214 224 220 202 235 184 c 0
 250 166 270 156 295 156 c 0
 320 156 342 166 362 184 c 0
 382 202 393 224 397 250 c 0
 401 276 395 298 380 316 c 0
 365 334 346 344 321 344 c 0xd0
EndSplineSet
Validated: 37
EndChar

StartChar: Cacute
Encoding: 262 262 195
GlifName: C_acute
Width: 625
Flags: W
HStem: -12 170<308.079 476.6> 542 170<357.561 524.638>
LayerCount: 2
Fore
SplineSet
372 754 m 5
 493 900 l 5
 680 900 l 5
 539 754 l 5
 372 754 l 5
467 712 m 0
 514 712 557 702 596 683 c 0
 635 664 669 638 696 605 c 1
 565 485 l 1
 535 523 494 542 444 542 c 0
 394 542 348 523 307 485 c 0
 266 447 241 403 234 350 c 0
 227 297 239 252 269 214 c 0
 299 176 340 158 390 158 c 0
 440 158 485 177 526 214 c 1
 623 94 l 1
 587 61 546 35 502 16 c 0
 458 -3 413 -12 366 -12 c 0
 268 -12 191 24 134 97 c 0
 80 167 59 252 73 350 c 0
 87 448 131 532 205 602 c 0
 283 675 370 712 467 712 c 0
EndSplineSet
Validated: 33
EndChar

StartChar: cacute
Encoding: 263 263 196
GlifName: cacute
Width: 452
Flags: W
HStem: -12 170<237.367 359.295> 342 170<256.484 397.053> 680 20G<359.425 563>
LayerCount: 2
Fore
SplineSet
255 554 m 5
 376 700 l 5
 563 700 l 5
 422 554 l 5
 255 554 l 5
340 512 m 0
 409 512 464 486 505 435 c 1
 374 315 l 1
 359 333 340 342 316 342 c 0
 292 342 270 333 250 315 c 0
 230 297 219 275 215 250 c 0
 211 225 217 203 232 185 c 0
 247 167 266 158 290 158 c 0
 314 158 335 167 355 185 c 1
 453 65 l 1
 397 14 335 -12 266 -12 c 0
 197 -12 141 13 100 64 c 0
 59 115 44 177 54 250 c 0
 64 323 97 385 153 436 c 0
 209 487 271 512 340 512 c 0
EndSplineSet
Validated: 33
EndChar

StartChar: Ccircumflex
Encoding: 264 264 197
GlifName: C_circumflex
Width: 625
Flags: W
HStem: -12 170<308.079 476.6> 542 170<357.561 524.638>
LayerCount: 2
Fore
SplineSet
266 754 m 1
 410 900 l 1
 569 900 l 1
 672 754 l 1
 516 754 l 1
 476 806 l 1
 422 754 l 1
 266 754 l 1
467 712 m 0
 514 712 557 702 596 683 c 0
 635 664 669 638 696 605 c 1
 565 485 l 1
 535 523 494 542 444 542 c 0
 394 542 348 523 307 485 c 0
 266 447 241 403 234 350 c 0
 227 297 239 252 269 214 c 0
 299 176 340 158 390 158 c 0
 440 158 485 177 526 214 c 1
 623 94 l 1
 587 61 546 35 502 16 c 0
 458 -3 413 -12 366 -12 c 0
 268 -12 191 24 134 97 c 0
 80 167 59 252 73 350 c 0
 87 448 131 532 205 602 c 0
 283 675 370 712 467 712 c 0
EndSplineSet
Validated: 33
EndChar

StartChar: ccircumflex
Encoding: 265 265 198
GlifName: ccircumflex
Width: 452
Flags: W
HStem: -12 170<237.367 359.295> 342 170<256.484 397.053> 680 20G<240.274 432.247>
LayerCount: 2
Fore
SplineSet
116 554 m 1
 260 700 l 1
 418 700 l 1
 522 554 l 1
 365 554 l 1
 326 606 l 1
 272 554 l 1
 116 554 l 1
340 512 m 0
 409 512 464 486 505 435 c 1
 374 315 l 1
 359 333 340 342 316 342 c 0
 292 342 270 333 250 315 c 0
 230 297 219 275 215 250 c 0
 211 225 217 203 232 185 c 0
 247 167 266 158 290 158 c 0
 314 158 335 167 355 185 c 1
 453 65 l 1
 397 14 335 -12 266 -12 c 0
 197 -12 141 13 100 64 c 0
 59 115 44 177 54 250 c 0
 64 323 97 385 153 436 c 0
 209 487 271 512 340 512 c 0
EndSplineSet
Validated: 33
EndChar

StartChar: Cdotaccent
Encoding: 266 266 199
GlifName: C_dotaccent
Width: 625
Flags: W
HStem: -12 170<308.079 476.6> 542 170<357.561 524.638> 748 200<427.06 520.94>
LayerCount: 2
Fore
SplineSet
569 848 m 4
 565 821 552 798 531 778 c 4
 510 758 486 748 460 748 c 4
 434 748 413 758 397 778 c 4
 381 798 375 821 379 848 c 4
 383 875 396 898 417 918 c 4
 438 938 462 948 488 948 c 4
 514 948 535 938 551 918 c 4
 567 898 573 875 569 848 c 4
467 712 m 0
 514 712 557 702 596 683 c 0
 635 664 669 638 696 605 c 1
 565 485 l 1
 535 523 494 542 444 542 c 0
 394 542 348 523 307 485 c 0
 266 447 241 403 234 350 c 0
 227 297 239 252 269 214 c 0
 299 176 340 158 390 158 c 0
 440 158 485 177 526 214 c 1
 623 94 l 1
 587 61 546 35 502 16 c 0
 458 -3 413 -12 366 -12 c 0
 268 -12 191 24 134 97 c 0
 80 167 59 252 73 350 c 0
 87 448 131 532 205 602 c 0
 283 675 370 712 467 712 c 0
EndSplineSet
Validated: 33
EndChar

StartChar: cdotaccent
Encoding: 267 267 200
GlifName: cdotaccent
Width: 452
Flags: W
HStem: -12 170<237.367 359.295> 342 170<256.484 397.053> 548 200<310.06 403.813>
LayerCount: 2
Fore
SplineSet
452 648 m 4
 448 621 435 598 414 578 c 4
 393 558 369 548 343 548 c 4
 317 548 296 558 280 578 c 4
 264 598 258 621 262 648 c 4
 266 675 279 698 300 718 c 4
 321 738 345 748 371 748 c 4
 397 748 417 738 433 718 c 4
 449 698 456 675 452 648 c 4
340 512 m 0
 409 512 464 486 505 435 c 1
 374 315 l 1
 359 333 340 342 316 342 c 0
 292 342 270 333 250 315 c 0
 230 297 219 275 215 250 c 0
 211 225 217 203 232 185 c 0
 247 167 266 158 290 158 c 0
 314 158 335 167 355 185 c 1
 453 65 l 1
 397 14 335 -12 266 -12 c 0
 197 -12 141 13 100 64 c 0
 59 115 44 177 54 250 c 0
 64 323 97 385 153 436 c 0
 209 487 271 512 340 512 c 0
EndSplineSet
Validated: 33
EndChar

StartChar: Ccaron
Encoding: 268 268 201
GlifName: C_caron
Width: 625
Flags: W
HStem: -12 170<308.079 476.6> 542 170<357.561 524.638> 754 146<378 438 531 551>
LayerCount: 2
Fore
SplineSet
284 900 m 5
 438 900 l 5
 477 844 l 5
 531 900 l 5
 686 900 l 5
 551 754 l 5
 378 754 l 5
 284 900 l 5
467 712 m 0
 514 712 557 702 596 683 c 0
 635 664 669 638 696 605 c 1
 565 485 l 1
 535 523 494 542 444 542 c 0
 394 542 348 523 307 485 c 0
 266 447 241 403 234 350 c 0
 227 297 239 252 269 214 c 0
 299 176 340 158 390 158 c 0
 440 158 485 177 526 214 c 1
 623 94 l 1
 587 61 546 35 502 16 c 0
 458 -3 413 -12 366 -12 c 0
 268 -12 191 24 134 97 c 0
 80 167 59 252 73 350 c 0
 87 448 131 532 205 602 c 0
 283 675 370 712 467 712 c 0
EndSplineSet
Validated: 33
EndChar

StartChar: ccaron
Encoding: 269 269 202
GlifName: ccaron
Width: 452
Flags: W
HStem: -12 170<237.367 359.295> 342 170<256.484 397.053> 554 146<241 301 394 414>
LayerCount: 2
Fore
SplineSet
147 700 m 5
 301 700 l 5
 340 644 l 5
 394 700 l 5
 549 700 l 5
 414 554 l 5
 241 554 l 5
 147 700 l 5
340 512 m 0
 409 512 464 486 505 435 c 1
 374 315 l 1
 359 333 340 342 316 342 c 0
 292 342 270 333 250 315 c 0
 230 297 219 275 215 250 c 0
 211 225 217 203 232 185 c 0
 247 167 266 158 290 158 c 0
 314 158 335 167 355 185 c 1
 453 65 l 1
 397 14 335 -12 266 -12 c 0
 197 -12 141 13 100 64 c 0
 59 115 44 177 54 250 c 0
 64 323 97 385 153 436 c 0
 209 487 271 512 340 512 c 0
EndSplineSet
Validated: 33
EndChar

StartChar: Dcaron
Encoding: 270 270 203
GlifName: D_caron
Width: 671
Flags: W
HStem: 0 170<242 422.736> 530 170<293 467.719> 754 146<301 362 455 475>
LayerCount: 2
Fore
SplineSet
207 900 m 5
 362 900 l 5
 401 844 l 5
 455 900 l 5
 610 900 l 5
 475 754 l 5
 301 754 l 5
 207 900 l 5
390 530 m 2
 293 530 l 1
 242 170 l 1
 339 170 l 2
 387 170 430 187 468 222 c 0
 506 257 529 300 536 350 c 0
 543 400 532 443 504 478 c 0
 476 513 438 530 390 530 c 2
414 700 m 2
 506 700 579 666 634 598 c 0
 689 530 711 447 697 350 c 0
 683 253 640 170 565 102 c 0
 490 34 407 0 315 0 c 2
 57 0 l 1
 155 700 l 1
 414 700 l 2
EndSplineSet
Validated: 33
EndChar

StartChar: dcaron
Encoding: 271 271 204
GlifName: dcaron
Width: 566
Flags: W
HStem: -12 168<241.643 350.396> 344 168<262.621 374.274> 550 150<646 727>
VStem: 460 162<538 700>
LayerCount: 2
Fore
SplineSet
604 550 m 5
 646 700 l 1
 788 700 l 1
 727 550 l 5
 604 550 l 5
321 344 m 0
 346 344 365 334 380 316 c 0
 395 298 401 276 397 250 c 0
 393 224 382 202 362 184 c 0
 342 166 320 156 295 156 c 0
 270 156 250 166 235 184 c 0
 220 202 214 224 218 250 c 0
 222 276 234 298 254 316 c 0
 274 334 296 344 321 344 c 0
328 512 m 0
 260 512 200 487 148 436 c 0
 96 385 64 323 54 250 c 0
 44 177 58 115 96 64 c 0
 134 13 187 -12 255 -12 c 0
 296 -12 332 -2 364 17 c 4
 372 22 380 27 387 33 c 1
 383 0 l 1
 523 0 l 1
 622 700 l 1
 460 700 l 1
 429 480 l 1
 422 485 416 490 408 494 c 0
 385 506 358 512 328 512 c 0
EndSplineSet
Validated: 41
EndChar

StartChar: Dcroat
Encoding: 272 272 205
GlifName: D_croat
Width: 671
Flags: W
HStem: 0 170<242 422.736> 266 169<80 377> 530 170<293 467.719>
LayerCount: 2
Fore
SplineSet
390 530 m 2
 293 530 l 1
 242 170 l 1
 339 170 l 2
 387 170 430 187 468 222 c 0
 506 257 529 300 536 350 c 0
 543 400 532 443 504 478 c 0
 476 513 438 530 390 530 c 2
414 700 m 2
 506 700 579 666 634 598 c 0
 689 530 711 447 697 350 c 0
 683 253 640 170 565 102 c 0
 490 34 407 0 315 0 c 2
 57 0 l 1
 155 700 l 1
 414 700 l 2
56 266 m 5
 80 435 l 5
 401 435 l 5
 377 266 l 5
 56 266 l 5
EndSplineSet
Validated: 37
EndChar

StartChar: dcroat
Encoding: 273 273 206
GlifName: dcroat
Width: 619
Flags: W
HStem: -12 168<241.643 350.396> 344 168<262.621 374.274>
VStem: 460 162<538 700>
LayerCount: 2
Fore
SplineSet
321 344 m 0
 346 344 365 334 380 316 c 0
 395 298 401 276 397 250 c 0
 393 224 382 202 362 184 c 0
 342 166 320 156 295 156 c 0
 270 156 250 166 235 184 c 0
 220 202 214 224 218 250 c 0
 222 276 234 298 254 316 c 0
 274 334 296 344 321 344 c 0
328 512 m 0
 260 512 200 487 148 436 c 0
 96 385 64 323 54 250 c 0
 44 177 58 115 96 64 c 0
 134 13 187 -12 255 -12 c 0
 296 -12 332 -2 364 17 c 4
 372 22 380 27 387 33 c 1
 383 0 l 1
 523 0 l 1
 622 700 l 1
 460 700 l 1
 429 480 l 1
 422 485 416 490 408 494 c 0
 385 506 358 512 328 512 c 0
684 524 m 5
 701 650 l 1
 369 650 l 1
 351 524 l 1
 684 524 l 5
EndSplineSet
Validated: 37
EndChar

StartChar: Emacron
Encoding: 274 274 207
GlifName: E_macron
Width: 556
Flags: W
HStem: 0 170<242 509> 266 169<280 479> 530 170<293 583> 749 151<239 540>
LayerCount: 2
Fore
SplineSet
217 749 m 1
 239 900 l 1
 562 900 l 1
 540 749 l 1
 217 749 l 1
57 0 m 1
 155 700 l 1
 607 700 l 1
 583 530 l 1
 293 530 l 1
 280 435 l 1
 503 435 l 1
 479 266 l 1
 256 266 l 1
 242 170 l 1
 533 170 l 1
 509 0 l 1
 57 0 l 1
EndSplineSet
Validated: 1
EndChar

StartChar: emacron
Encoding: 275 275 208
GlifName: emacron
Width: 516
Flags: W
HStem: -12 170<243.044 377.736> 190 130<247 370> 352 160<258.172 361.94> 549 151<208 509>
LayerCount: 2
Fore
SplineSet
186 549 m 1
 208 700 l 1
 531 700 l 1
 509 549 l 1
 186 549 l 1
534 190 m 1
 232 190 l 1
 238 182 246 176 254 171 c 0
 267 163 283 158 300 158 c 0
 330 158 355 167 375 185 c 1
 472 65 l 1
 416 14 351 -12 276 -12 c 0
 207 -12 150 14 106 65 c 0
 62 116 44 178 54 250 c 0
 64 323 97 385 153 436 c 0
 209 487 271 512 340 512 c 0
 405 512 458 486 499 435 c 0
 538 387 553 325 542 250 c 2
 534 190 l 1
314 352 m 0
 298 352 283 348 270 340 c 0
 262 335 254 328 247 320 c 1
 370 320 l 1
 365 329 358 337 350 342 c 0
 340 349 329 352 314 352 c 0
EndSplineSet
Validated: 33
EndChar

StartChar: Ebreve
Encoding: 276 276 209
GlifName: E_breve
Width: 556
Flags: W
HStem: 0 170<242 509> 266 169<280 479> 530 170<293 583> 742 119<364.105 445.821>
LayerCount: 2
Fore
SplineSet
57 0 m 1
 155 700 l 1
 607 700 l 1
 583 530 l 1
 293 530 l 1
 280 435 l 1
 503 435 l 1
 479 266 l 1
 256 266 l 1
 242 170 l 1
 533 170 l 1
 509 0 l 1
 57 0 l 1
236 900 m 1
 356 900 l 1
 355 889 359 880 367 872 c 0
 375 864 386 861 399 861 c 0
 412 861 424 864 435 872 c 0
 446 880 452 889 453 900 c 1
 574 900 l 1
 568 856 546 819 510 788 c 0
 474 757 432 742 383 742 c 0
 334 742 296 757 268 788 c 0
 240 819 230 856 236 900 c 1
EndSplineSet
Validated: 33
EndChar

StartChar: ebreve
Encoding: 277 277 210
GlifName: ebreve
Width: 516
Flags: W
HStem: -12 170<243.044 377.736> 190 130<247 370> 352 160<258.172 361.94> 542 119<327.106 409.536>
LayerCount: 2
Fore
SplineSet
534 190 m 1
 232 190 l 1
 238 182 246 176 254 171 c 0
 267 163 283 158 300 158 c 0
 330 158 355 167 375 185 c 1
 472 65 l 1
 416 14 351 -12 276 -12 c 0
 207 -12 150 14 106 65 c 0
 62 116 44 178 54 250 c 0
 64 323 97 385 153 436 c 0
 209 487 271 512 340 512 c 0
 405 512 458 486 499 435 c 0
 538 387 553 325 542 250 c 2
 534 190 l 1
314 352 m 0
 298 352 283 348 270 340 c 0
 262 335 254 328 247 320 c 1
 370 320 l 1
 365 329 358 337 350 342 c 0
 340 349 329 352 314 352 c 0
199 700 m 1
 320 700 l 1
 319 689 322 680 330 672 c 0
 338 664 350 661 363 661 c 0
 376 661 388 664 399 672 c 0
 410 680 416 689 417 700 c 1
 537 700 l 1
 531 656 510 619 474 588 c 0
 438 557 395 542 346 542 c 0
 297 542 259 557 231 588 c 0
 203 619 193 656 199 700 c 1
EndSplineSet
Validated: 33
EndChar

StartChar: Edotaccent
Encoding: 278 278 211
GlifName: E_dotaccent
Width: 556
Flags: W
HStem: 0 170<242 509> 266 169<280 479> 530 170<293 583> 748 200<346.06 439.94>
LayerCount: 2
Fore
SplineSet
488 848 m 4
 484 821 471 798 450 778 c 4
 429 758 405 748 379 748 c 4
 353 748 332 758 316 778 c 4
 300 798 294 821 298 848 c 4
 302 875 315 898 336 918 c 4
 357 938 381 948 407 948 c 4
 433 948 454 938 470 918 c 4
 486 898 492 875 488 848 c 4
57 0 m 1
 155 700 l 1
 607 700 l 1
 583 530 l 1
 293 530 l 1
 280 435 l 1
 503 435 l 1
 479 266 l 1
 256 266 l 1
 242 170 l 1
 533 170 l 1
 509 0 l 1
 57 0 l 1
EndSplineSet
Validated: 33
EndChar

StartChar: edotaccent
Encoding: 279 279 212
GlifName: edotaccent
Width: 516
Flags: W
HStem: -12 170<243.044 377.736> 190 130<247 370> 352 160<258.172 361.94> 548 200<324.06 417.94>
LayerCount: 2
Fore
SplineSet
466 648 m 4
 462 621 449 598 428 578 c 4
 407 558 383 548 357 548 c 4
 331 548 310 558 294 578 c 4
 278 598 272 621 276 648 c 4
 280 675 293 698 314 718 c 4
 335 738 359 748 385 748 c 4
 411 748 432 738 448 718 c 4
 464 698 470 675 466 648 c 4
534 190 m 1
 232 190 l 1
 238 182 246 176 254 171 c 0
 267 163 283 158 300 158 c 0
 330 158 355 167 375 185 c 1
 472 65 l 1
 416 14 351 -12 276 -12 c 0
 207 -12 150 14 106 65 c 0
 62 116 44 178 54 250 c 0
 64 323 97 385 153 436 c 0
 209 487 271 512 340 512 c 0
 405 512 458 486 499 435 c 0
 538 387 553 325 542 250 c 2
 534 190 l 1
314 352 m 0
 298 352 283 348 270 340 c 0
 262 335 254 328 247 320 c 1
 370 320 l 1
 365 329 358 337 350 342 c 0
 340 349 329 352 314 352 c 0
EndSplineSet
Validated: 33
EndChar

StartChar: Eogonek
Encoding: 280 280 213
GlifName: E_ogonek
Width: 556
Flags: W
HStem: -212 114<386 448.652> 0 170<242 348 366 509> 266 169<280 479> 530 170<293 583>
LayerCount: 2
Fore
SplineSet
511 -157 m 1
 506 -163 501 -169 495 -174 c 0
 467 -199 437 -212 403 -212 c 0
 369 -212 342 -199 322 -174 c 0
 302 -149 294 -119 299 -83 c 0
 304 -47 320 -17 348 8 c 0
 353 13 359 16 366 18 c 1
 511 18 l 1
 413 -72 l 2
 410 -75 408 -79 407 -83 c 0
 406 -87 408 -91 410 -94 c 0
 412 -97 415 -98 419 -98 c 0
 423 -98 427 -97 430 -94 c 0
 431 -93 431 -93 432 -92 c 9
 511 -157 l 1
57 0 m 1
 155 700 l 1
 607 700 l 1
 583 530 l 1
 293 530 l 1
 280 435 l 1
 503 435 l 1
 479 266 l 1
 256 266 l 1
 242 170 l 1
 533 170 l 1
 509 0 l 1
 57 0 l 1
EndSplineSet
Validated: 37
EndChar

StartChar: eogonek
Encoding: 281 281 214
GlifName: eogonek
Width: 516
Flags: W
HStem: -212 114<275 337.652> -12 30<255 381.125> 190 130<247 370> 352 160<258.172 361.94>
LayerCount: 2
Fore
SplineSet
534 190 m 1
 232 190 l 1
 238 182 246 176 254 171 c 0
 267 163 283 158 300 158 c 0
 330 158 355 167 375 185 c 1
 472 65 l 1
 416 14 351 -12 276 -12 c 0
 207 -12 150 14 106 65 c 0
 62 116 44 178 54 250 c 0
 64 323 97 385 153 436 c 0
 209 487 271 512 340 512 c 0
 405 512 458 486 499 435 c 0
 538 387 553 325 542 250 c 2
 534 190 l 1
314 352 m 0
 298 352 283 348 270 340 c 0
 262 335 254 328 247 320 c 1
 370 320 l 1
 365 329 358 337 350 342 c 0
 340 349 329 352 314 352 c 0
400 -157 m 1
 395 -163 390 -169 384 -174 c 0
 356 -199 326 -212 292 -212 c 0
 258 -212 231 -199 211 -174 c 0
 191 -149 183 -119 188 -83 c 0
 193 -47 208 -17 236 8 c 0
 241 13 248 16 255 18 c 1
 400 18 l 1
 301 -72 l 2
 298 -75 297 -79 296 -83 c 0
 295 -87 296 -91 298 -94 c 0
 300 -97 304 -98 308 -98 c 0
 312 -98 316 -97 319 -94 c 0
 320 -93 320 -93 321 -92 c 9
 400 -157 l 1
EndSplineSet
Validated: 37
EndChar

StartChar: Ecaron
Encoding: 282 282 215
GlifName: E_caron
Width: 556
Flags: W
HStem: 0 170<242 509> 266 169<280 479> 530 170<293 583> 754 146<287 348 441 461>
LayerCount: 2
Fore
SplineSet
193 900 m 5
 348 900 l 5
 387 844 l 5
 441 900 l 5
 596 900 l 5
 461 754 l 5
 287 754 l 5
 193 900 l 5
57 0 m 1
 155 700 l 1
 607 700 l 1
 583 530 l 1
 293 530 l 1
 280 435 l 1
 503 435 l 1
 479 266 l 1
 256 266 l 1
 242 170 l 1
 533 170 l 1
 509 0 l 1
 57 0 l 1
EndSplineSet
Validated: 1
EndChar

StartChar: ecaron
Encoding: 283 283 216
GlifName: ecaron
Width: 516
Flags: W
HStem: -12 170<243.044 377.736> 190 130<247 370> 352 160<258.172 361.94> 554 146<266 326 419 439>
LayerCount: 2
Fore
SplineSet
172 700 m 5
 326 700 l 5
 365 644 l 5
 419 700 l 5
 574 700 l 5
 439 554 l 5
 266 554 l 5
 172 700 l 5
534 190 m 1
 232 190 l 1
 238 182 246 176 254 171 c 0
 267 163 283 158 300 158 c 0
 330 158 355 167 375 185 c 1
 472 65 l 1
 416 14 351 -12 276 -12 c 0
 207 -12 150 14 106 65 c 0
 62 116 44 178 54 250 c 0
 64 323 97 385 153 436 c 0
 209 487 271 512 340 512 c 0
 405 512 458 486 499 435 c 0
 538 387 553 325 542 250 c 2
 534 190 l 1
314 352 m 0
 298 352 283 348 270 340 c 0
 262 335 254 328 247 320 c 1
 370 320 l 1
 365 329 358 337 350 342 c 0
 340 349 329 352 314 352 c 0
EndSplineSet
Validated: 33
EndChar

StartChar: Gcircumflex
Encoding: 284 284 217
GlifName: G_circumflex
Width: 725
Flags: W
HStem: -12 170<309.466 476.966> 264 170<426 568> 542 170<356.975 525.587>
LayerCount: 2
Fore
SplineSet
274 754 m 1
 418 900 l 1
 577 900 l 1
 680 754 l 1
 523 754 l 1
 484 806 l 1
 430 754 l 1
 274 754 l 1
468 712 m 0
 514 712 556 702 596 684 c 0
 636 666 669 639 696 605 c 1
 565 485 l 1
 535 523 494 542 444 542 c 0
 394 542 348 522 307 485 c 0
 266 448 241 403 234 350 c 0
 227 297 239 251 269 214 c 0
 299 177 340 158 390 158 c 0
 440 158 485 177 526 214 c 0
 542 229 556 245 568 264 c 1
 402 264 l 1
 426 434 l 1
 773 434 l 1
 761 350 l 2
 747 251 701 165 623 94 c 0
 586 60 546 33 501 15 c 0
 456 -3 412 -12 366 -12 c 0
 270 -12 193 23 136 94 c 0
 80 164 59 250 73 350 c 0
 87 451 132 536 210 607 c 0
 287 677 373 712 468 712 c 0
EndSplineSet
Validated: 33
EndChar

StartChar: gcircumflex
Encoding: 285 285 218
GlifName: gcircumflex
Width: 528
Flags: W
HStem: -215 158<130.426 297.235> -33 20G<80.087 113.5> 20 170<234.87 327.695> 36 154<248.404 329.472> 339 171<249.154 348.476> 479 20G<404 556> 680 20G<258.137 450.11>
LayerCount: 2
Fore
SplineSet
133 554 m 1xc2
 278 700 l 1
 436 700 l 1
 539 554 l 1
 383 554 l 1
 344 606 l 1
 290 554 l 1
 133 554 l 1xc2
302 339 m 0xea
 282 339 265 333 249 318 c 0
 233 303 224 286 221 265 c 0
 218 244 222 227 234 212 c 0
 246 197 261 190 281 190 c 0
 301 190 318 197 334 212 c 0
 350 227 359 244 362 265 c 4
 365 286 361 303 349 318 c 0
 337 333 322 339 302 339 c 0xea
316 510 m 0
 348 510 375 502 396 487 c 0
 399 485 402 483 404 481 c 1
 406 499 l 1
 556 499 l 1
 495 59 l 2
 483 -27 452 -95 402 -143 c 0
 352 -191 290 -215 216 -215 c 0
 110 -215 38 -194 -2 -151 c 1
 94 -13 l 1
 133 -42 178 -57 229 -57 c 0
 259 -57 282 -50 298 -35 c 0
 314 -20 325 3 330 36 c 2
 330 38 l 1
 329 37 328 36 327 36 c 0xd6
 304 25 277 20 247 20 c 0
 183 20 134 44 98 91 c 0
 62 138 49 197 59 265 c 0
 69 333 98 392 147 439 c 0
 196 486 252 510 316 510 c 0
EndSplineSet
Validated: 33
EndChar

StartChar: Gbreve
Encoding: 286 286 219
GlifName: G_breve
Width: 725
Flags: W
HStem: -12 170<309.466 476.966> 264 170<426 568> 542 170<356.975 525.587> 742 119<453.638 535.536>
LayerCount: 2
Fore
SplineSet
326 900 m 1
 446 900 l 1
 445 889 449 880 457 872 c 0
 465 864 476 861 489 861 c 0
 502 861 514 864 525 872 c 0
 536 880 542 889 543 900 c 1
 664 900 l 1
 658 856 636 819 600 788 c 0
 564 757 521 742 472 742 c 0
 423 742 386 757 358 788 c 0
 330 819 320 856 326 900 c 1
468 712 m 0
 514 712 556 702 596 684 c 0
 636 666 669 639 696 605 c 1
 565 485 l 1
 535 523 494 542 444 542 c 0
 394 542 348 522 307 485 c 0
 266 448 241 403 234 350 c 0
 227 297 239 251 269 214 c 0
 299 177 340 158 390 158 c 0
 440 158 485 177 526 214 c 0
 542 229 556 245 568 264 c 1
 402 264 l 1
 426 434 l 1
 773 434 l 1
 761 350 l 2
 747 251 701 165 623 94 c 0
 586 60 546 33 501 15 c 0
 456 -3 412 -12 366 -12 c 0
 270 -12 193 23 136 94 c 0
 80 164 59 250 73 350 c 0
 87 451 132 536 210 607 c 0
 287 677 373 712 468 712 c 0
EndSplineSet
Validated: 33
EndChar

StartChar: gbreve
Encoding: 287 287 220
GlifName: gbreve
Width: 528
Flags: W
HStem: -215 158<130.426 297.235> -33 20G<80.087 113.5> 20 170<234.87 327.695> 36 154<248.404 329.472> 339 171<249.154 348.476> 479 20G<404 556> 542 119<313.106 394.821>
LayerCount: 2
Fore
SplineSet
185 700 m 1xc2
 306 700 l 1
 305 689 308 680 316 672 c 0
 324 664 336 661 349 661 c 0
 362 661 373 664 384 672 c 0
 395 680 401 689 402 700 c 1
 523 700 l 1
 517 656 495 619 459 588 c 0
 423 557 381 542 332 542 c 0
 283 542 245 557 217 588 c 0
 189 619 179 656 185 700 c 1xc2
302 339 m 0xea
 282 339 265 333 249 318 c 0
 233 303 224 286 221 265 c 0
 218 244 222 227 234 212 c 0
 246 197 261 190 281 190 c 0
 301 190 318 197 334 212 c 0
 350 227 359 244 362 265 c 4
 365 286 361 303 349 318 c 0
 337 333 322 339 302 339 c 0xea
316 510 m 0
 348 510 375 502 396 487 c 0
 399 485 402 483 404 481 c 1
 406 499 l 1
 556 499 l 1
 495 59 l 2
 483 -27 452 -95 402 -143 c 0
 352 -191 290 -215 216 -215 c 0
 110 -215 38 -194 -2 -151 c 1
 94 -13 l 1
 133 -42 178 -57 229 -57 c 0
 259 -57 282 -50 298 -35 c 0
 314 -20 325 3 330 36 c 2
 330 38 l 1
 329 37 328 36 327 36 c 0xd6
 304 25 277 20 247 20 c 0
 183 20 134 44 98 91 c 0
 62 138 49 197 59 265 c 0
 69 333 98 392 147 439 c 0
 196 486 252 510 316 510 c 0
EndSplineSet
Validated: 33
EndChar

StartChar: Gdotaccent
Encoding: 288 288 221
GlifName: G_dotaccent
Width: 725
Flags: W
HStem: -12 170<309.466 476.966> 264 170<426 568> 542 170<356.975 525.587> 748 200<439.06 532.94>
LayerCount: 2
Fore
SplineSet
581 848 m 4
 577 821 564 798 543 778 c 4
 522 758 498 748 472 748 c 4
 446 748 425 758 409 778 c 4
 393 798 387 821 391 848 c 4
 395 875 408 898 429 918 c 4
 450 938 474 948 500 948 c 4
 526 948 547 938 563 918 c 4
 579 898 585 875 581 848 c 4
468 712 m 0
 514 712 556 702 596 684 c 0
 636 666 669 639 696 605 c 1
 565 485 l 1
 535 523 494 542 444 542 c 0
 394 542 348 522 307 485 c 0
 266 448 241 403 234 350 c 0
 227 297 239 251 269 214 c 0
 299 177 340 158 390 158 c 0
 440 158 485 177 526 214 c 0
 542 229 556 245 568 264 c 1
 402 264 l 1
 426 434 l 1
 773 434 l 1
 761 350 l 2
 747 251 701 165 623 94 c 0
 586 60 546 33 501 15 c 0
 456 -3 412 -12 366 -12 c 0
 270 -12 193 23 136 94 c 0
 80 164 59 250 73 350 c 0
 87 451 132 536 210 607 c 0
 287 677 373 712 468 712 c 0
EndSplineSet
Validated: 33
EndChar

StartChar: gdotaccent
Encoding: 289 289 222
GlifName: gdotaccent
Width: 528
Flags: W
HStem: -215 158<130.426 297.235> -33 20G<80.087 113.5> 20 170<234.87 327.695> 36 154<248.404 329.472> 339 171<249.154 348.476> 479 20G<404 556> 548 200<299.06 392.94>
LayerCount: 2
Fore
SplineSet
441 648 m 4xc2
 437 621 424 598 403 578 c 4
 382 558 358 548 332 548 c 4
 306 548 285 558 269 578 c 4
 253 598 247 621 251 648 c 4
 255 675 268 698 289 718 c 4
 310 738 334 748 360 748 c 4
 386 748 407 738 423 718 c 4
 439 698 445 675 441 648 c 4xc2
302 339 m 0xea
 282 339 265 333 249 318 c 0
 233 303 224 286 221 265 c 0
 218 244 222 227 234 212 c 0
 246 197 261 190 281 190 c 0
 301 190 318 197 334 212 c 0
 350 227 359 244 362 265 c 4
 365 286 361 303 349 318 c 0
 337 333 322 339 302 339 c 0xea
316 510 m 0
 348 510 375 502 396 487 c 0
 399 485 402 483 404 481 c 1
 406 499 l 1
 556 499 l 1
 495 59 l 2
 483 -27 452 -95 402 -143 c 0
 352 -191 290 -215 216 -215 c 0
 110 -215 38 -194 -2 -151 c 1
 94 -13 l 1
 133 -42 178 -57 229 -57 c 0
 259 -57 282 -50 298 -35 c 0
 314 -20 325 3 330 36 c 2
 330 38 l 1
 329 37 328 36 327 36 c 0xd6
 304 25 277 20 247 20 c 0
 183 20 134 44 98 91 c 0
 62 138 49 197 59 265 c 0
 69 333 98 392 147 439 c 0
 196 486 252 510 316 510 c 0
EndSplineSet
Validated: 33
EndChar

StartChar: uni0122
Encoding: 290 290 223
GlifName: uni0122
Width: 725
Flags: W
HStem: -200 21G<232 367.125> -12 170<309.466 476.966> 264 170<426 568> 542 170<356.975 525.587>
LayerCount: 2
Fore
SplineSet
232 -200 m 5
 292 -40 l 1
 452 -40 l 1
 355 -200 l 5
 232 -200 l 5
468 712 m 0
 514 712 556 702 596 684 c 0
 636 666 669 639 696 605 c 1
 565 485 l 1
 535 523 494 542 444 542 c 0
 394 542 348 522 307 485 c 0
 266 448 241 403 234 350 c 0
 227 297 239 251 269 214 c 0
 299 177 340 158 390 158 c 0
 440 158 485 177 526 214 c 0
 542 229 556 245 568 264 c 1
 402 264 l 1
 426 434 l 1
 773 434 l 1
 761 350 l 2
 747 251 701 165 623 94 c 0
 586 60 546 33 501 15 c 0
 456 -3 412 -12 366 -12 c 0
 270 -12 193 23 136 94 c 0
 80 164 59 250 73 350 c 0
 87 451 132 536 210 607 c 0
 287 677 373 712 468 712 c 0
EndSplineSet
Validated: 33
EndChar

StartChar: uni0123
Encoding: 291 291 224
GlifName: uni0123
Width: 528
Flags: W
HStem: -215 158<130.426 297.235> -33 20G<80.087 113.5> 20 170<234.87 327.695> 36 154<248.404 329.472> 339 171<249.154 348.476> 479 20G<404 556> 693 20G<355.027 504>
LayerCount: 2
Fore
SplineSet
302 339 m 0xea
 282 339 265 333 249 318 c 0
 233 303 224 286 221 265 c 0
 218 244 222 227 234 212 c 0
 246 197 261 190 281 190 c 0
 301 190 318 197 334 212 c 0
 350 227 359 244 362 265 c 4
 365 286 361 303 349 318 c 0
 337 333 322 339 302 339 c 0xea
316 510 m 0
 348 510 375 502 396 487 c 0
 399 485 402 483 404 481 c 1
 406 499 l 1
 556 499 l 1
 495 59 l 2
 483 -27 452 -95 402 -143 c 0
 352 -191 290 -215 216 -215 c 0
 110 -215 38 -194 -2 -151 c 1
 94 -13 l 1
 133 -42 178 -57 229 -57 c 0
 259 -57 282 -50 298 -35 c 0
 314 -20 325 3 330 36 c 2
 330 38 l 1
 329 37 328 36 327 36 c 0xd6
 304 25 277 20 247 20 c 0
 183 20 134 44 98 91 c 0
 62 138 49 197 59 265 c 0
 69 333 98 392 147 439 c 0
 196 486 252 510 316 510 c 0
504 713 m 5
 423 564 l 5
 252 564 l 5
 371 713 l 5
 504 713 l 5
EndSplineSet
Validated: 33
EndChar

StartChar: Hcircumflex
Encoding: 292 292 225
GlifName: H_circumflex
Width: 691
Flags: W
HStem: 0 21G<57 220.878 473 637.8> 271 170<280 511> 681 19G<153.175 317 568.22 733>
VStem: 57 161<0 161> 156 161<540 701> 473 162<0 162> 571 162<538 700>
LayerCount: 2
Fore
SplineSet
249 755 m 1xe0
 393 901 l 1
 552 901 l 1
 655 755 l 1
 498 755 l 1
 459 807 l 1
 405 755 l 1
 249 755 l 1xe0
57 0 m 1xf4
 156 701 l 1
 317 701 l 1
 280 441 l 1
 535 441 l 1
 571 700 l 1
 733 700 l 1xea
 635 0 l 1
 473 0 l 1
 511 271 l 1
 257 271 l 1
 218 0 l 1
 57 0 l 1xf4
EndSplineSet
Validated: 1
EndChar

StartChar: hcircumflex
Encoding: 293 293 226
GlifName: hcircumflex
Width: 551
Flags: W
HStem: 0 21G<45 208.803 352 515.812> 342 170<294.856 416.5> 680 20G<140.2 305>
VStem: 45 161<0 161> 143 162<538 700> 352 161<0 161>
LayerCount: 2
Fore
SplineSet
31 754 m 1xe4
 175 900 l 1
 334 900 l 1
 437 754 l 1
 281 754 l 1
 242 806 l 1
 188 754 l 1
 31 754 l 1xe4
513 0 m 1
 352 0 l 1
 389 264 l 2
 392 287 388 306 376 320 c 0
 364 334 348 342 327 342 c 0
 306 342 288 334 272 320 c 0
 256 306 246 287 243 264 c 2
 206 0 l 5
 45 0 l 5xf4
 143 700 l 1
 305 700 l 1xec
 273 475 l 1
 278 479 283 483 288 486 c 0
 316 504 348 512 385 512 c 0
 448 512 494 488 522 440 c 0
 550 392 560 331 549 256 c 2
 513 0 l 1
EndSplineSet
Validated: 33
EndChar

StartChar: Hbar
Encoding: 294 294 227
GlifName: H_bar
Width: 691
Flags: W
HStem: 0 21G<57 220.878 473 637.8> 271 170<280 511> 488 170<97 754> 681 19G<153.175 317 568.22 733>
VStem: 57 161<0 161> 156 161<540 701> 473 162<0 162> 571 162<538 700>
LayerCount: 2
Fore
SplineSet
57 0 m 1xfa
 156 701 l 1
 317 701 l 1
 280 441 l 1
 535 441 l 1
 571 700 l 1
 733 700 l 1xf5
 635 0 l 1
 473 0 l 1
 511 271 l 1
 257 271 l 1
 218 0 l 1
 57 0 l 1xfa
73 488 m 5
 97 658 l 5
 778 658 l 5
 754 488 l 5
 73 488 l 5
EndSplineSet
Validated: 5
EndChar

StartChar: hbar
Encoding: 295 295 228
GlifName: hbar
Width: 551
Flags: W
HStem: 0 21G<45 208.803 352 515.812> 342 170<294.856 416.5> 543 110<92 413> 680 20G<140.2 305>
VStem: 45 161<0 161> 143 162<538 700> 352 161<0 161>
LayerCount: 2
Fore
SplineSet
513 0 m 1xf6
 352 0 l 1
 389 264 l 2
 392 287 388 306 376 320 c 0
 364 334 348 342 327 342 c 0
 306 342 288 334 272 320 c 0
 256 306 246 287 243 264 c 2
 206 0 l 5
 45 0 l 5xfa
 143 700 l 1
 305 700 l 1
 273 475 l 1
 278 479 283 483 288 486 c 0
 316 504 348 512 385 512 c 0
 448 512 494 488 522 440 c 0
 550 392 560 331 549 256 c 2
 513 0 l 1xf6
76 543 m 1
 92 653 l 1
 428 653 l 1
 413 543 l 1
 76 543 l 1
EndSplineSet
Validated: 37
EndChar

StartChar: Itilde
Encoding: 296 296 229
GlifName: I_tilde
Width: 275
Flags: W
HStem: 0 21G<57 220.829> 680 20G<152.2 317> 734 106<295.381 348.148> 806 106<161.56 219.358>
VStem: 57 161<0 161> 155 162<538 700>
LayerCount: 2
Fore
SplineSet
57 0 m 1xc8
 155 700 l 1
 317 700 l 1xc4
 218 0 l 1
 57 0 l 1xc8
310 734 m 0xe0
 271 734 243 746 229 770 c 0
 223 779 218 788 213 795 c 0
 208 802 200 806 189 806 c 0
 175 806 163 793 154 767 c 1
 43 767 l 1
 51 809 71 844 101 871 c 0
 131 898 164 912 198 912 c 0xd0
 240 912 270 900 286 876 c 0
 292 867 297 858 302 851 c 0
 307 844 314 840 324 840 c 0
 337 840 347 853 354 879 c 1
 465 879 l 5
 455 836 435 801 406 774 c 0
 377 747 345 734 310 734 c 0xe0
EndSplineSet
Validated: 1
EndChar

StartChar: itilde
Encoding: 297 297 230
GlifName: itilde
Width: 275
Flags: W
HStem: 0 21G<57 220.84> 480 20G<124.2 289> 534 106<265.903 317.527> 606 106<131.708 190.513>
VStem: 57 161<0 161> 127 162<338 500>
LayerCount: 2
Fore
SplineSet
57 0 m 1xc8
 127 500 l 1
 289 500 l 1xc4
 218 0 l 1
 57 0 l 1xc8
280 534 m 0xe0
 241 534 214 546 200 570 c 0
 194 579 188 588 183 595 c 0
 178 602 170 606 159 606 c 0
 145 606 133 593 124 567 c 1
 13 567 l 1
 21 609 42 644 72 671 c 0
 102 698 134 712 168 712 c 0xd0
 210 712 241 700 257 676 c 0
 263 667 268 658 273 651 c 0
 278 644 284 640 294 640 c 0
 307 640 317 653 324 679 c 1
 436 679 l 5
 426 636 406 601 377 574 c 0
 348 547 315 534 280 534 c 0xe0
EndSplineSet
Validated: 1
EndChar

StartChar: Imacron
Encoding: 298 298 231
GlifName: I_macron
Width: 275
Flags: W
HStem: 0 21G<57 220.829> 680 20G<152.2 317> 749 151<102 404>
VStem: 57 161<0 161> 155 162<538 700>
LayerCount: 2
Fore
SplineSet
81 749 m 1xe0
 102 900 l 1
 425 900 l 1
 404 749 l 1
 81 749 l 1xe0
57 0 m 1xf0
 155 700 l 1
 317 700 l 1xe8
 218 0 l 1
 57 0 l 1xf0
EndSplineSet
Validated: 1
EndChar

StartChar: imacron
Encoding: 299 299 232
GlifName: imacron
Width: 275
Flags: W
HStem: 0 21G<57 220.84> 480 20G<124.2 289> 549 151<93 356>
VStem: 57 161<0 161> 127 162<338 500>
LayerCount: 2
Fore
SplineSet
71 549 m 1xe0
 93 700 l 1
 378 700 l 1
 356 549 l 1
 71 549 l 1xe0
57 0 m 1xf0
 127 500 l 1
 289 500 l 1xe8
 218 0 l 1
 57 0 l 1xf0
EndSplineSet
Validated: 1
EndChar

StartChar: Ibreve
Encoding: 300 300 233
GlifName: I_breve
Width: 275
Flags: W
HStem: 0 21G<57 220.829> 680 20G<152.2 317> 742 119<224.105 305.821>
VStem: 57 161<0 161> 155 162<538 700>
LayerCount: 2
Fore
SplineSet
57 0 m 1xf0
 155 700 l 1
 317 700 l 1xe8
 218 0 l 1
 57 0 l 1xf0
96 900 m 1
 216 900 l 1
 215 889 219 880 227 872 c 0
 235 864 246 861 259 861 c 0
 272 861 284 864 295 872 c 0
 306 880 312 889 313 900 c 1
 434 900 l 1
 428 856 406 819 370 788 c 0
 334 757 292 742 243 742 c 0
 194 742 156 757 128 788 c 0
 100 819 90 856 96 900 c 1
EndSplineSet
Validated: 33
EndChar

StartChar: ibreve
Encoding: 301 301 234
GlifName: ibreve
Width: 275
Flags: W
HStem: 0 21G<57 220.84> 480 20G<124.2 289> 542 119<197.106 278.821>
VStem: 57 161<0 161> 127 162<338 500>
LayerCount: 2
Fore
SplineSet
57 0 m 1xf0
 127 500 l 1
 289 500 l 1xe8
 218 0 l 1
 57 0 l 1xf0
69 700 m 1
 190 700 l 1
 189 689 192 680 200 672 c 0
 208 664 220 661 233 661 c 0
 246 661 257 664 268 672 c 0
 279 680 285 689 286 700 c 1
 407 700 l 1
 401 656 379 619 343 588 c 0
 307 557 265 542 216 542 c 0
 167 542 129 557 101 588 c 0
 73 619 63 656 69 700 c 1
EndSplineSet
Validated: 33
EndChar

StartChar: Iogonek
Encoding: 302 302 235
GlifName: I_ogonek
Width: 275
Flags: W
HStem: -212 114<94 156.652> 0 21G<57 220.829> 680 20G<152.2 317>
VStem: 155 162<538 700>
LayerCount: 2
Fore
SplineSet
219 -157 m 1
 214 -163 209 -169 203 -174 c 0
 175 -199 145 -212 111 -212 c 0
 77 -212 50 -199 30 -174 c 0
 10 -149 2 -119 7 -83 c 0
 12 -47 28 -17 56 8 c 0
 61 13 67 16 74 18 c 1
 219 18 l 1
 120 -72 l 2
 117 -75 116 -79 115 -83 c 0
 114 -87 115 -91 117 -94 c 0
 119 -97 123 -98 127 -98 c 0
 131 -98 135 -97 138 -94 c 0
 139 -93 139 -93 140 -92 c 9
 219 -157 l 1
57 0 m 1
 155 700 l 1
 317 700 l 1
 218 0 l 1
 57 0 l 1
EndSplineSet
Validated: 37
EndChar

StartChar: iogonek
Encoding: 303 303 236
GlifName: iogonek
Width: 275
Flags: W
HStem: -212 114<94 156.652> 0 21G<57 220.84> 480 20G<124.2 289> 548 200<182.06 275.94>
VStem: 127 162<338 500>
LayerCount: 2
Fore
SplineSet
219 -157 m 1
 214 -163 209 -169 203 -174 c 0
 175 -199 145 -212 111 -212 c 0
 77 -212 49 -199 29 -174 c 0
 9 -149 1 -119 6 -83 c 0
 11 -47 27 -17 55 8 c 0
 60 13 66 16 73 18 c 1
 218 18 l 1
 120 -72 l 2
 117 -75 115 -79 114 -83 c 0
 113 -87 115 -91 117 -94 c 0
 119 -97 123 -98 127 -98 c 0
 131 -98 135 -97 138 -94 c 0
 139 -93 139 -93 140 -92 c 9
 219 -157 l 1
324 648 m 4
 320 621 307 598 286 578 c 4
 265 558 241 548 215 548 c 4
 189 548 168 558 152 578 c 4
 136 598 130 621 134 648 c 4
 138 675 151 698 172 718 c 4
 193 738 217 748 243 748 c 4
 269 748 290 738 306 718 c 4
 322 698 328 675 324 648 c 4
57 0 m 1
 127 500 l 1
 289 500 l 1
 218 0 l 1
 57 0 l 1
EndSplineSet
Validated: 37
EndChar

StartChar: Idotaccent
Encoding: 304 304 237
GlifName: I_dotaccent
Width: 275
Flags: W
HStem: 0 21G<57 220.829> 680 20G<152.2 317> 748 200<212.06 305.94>
VStem: 57 161<0 161> 155 162<538 700>
LayerCount: 2
Fore
SplineSet
354 848 m 4xe0
 350 821 337 798 316 778 c 4
 295 758 271 748 245 748 c 4
 219 748 198 758 182 778 c 4
 166 798 160 821 164 848 c 4
 168 875 181 898 202 918 c 4
 223 938 247 948 273 948 c 4
 299 948 320 938 336 918 c 4
 352 898 358 875 354 848 c 4xe0
57 0 m 1xf0
 155 700 l 1
 317 700 l 1xe8
 218 0 l 1
 57 0 l 1xf0
EndSplineSet
Validated: 33
EndChar

StartChar: dotlessi
Encoding: 305 305 238
GlifName: dotlessi
Width: 275
Flags: W
HStem: 0 21G<57 220.84> 480 20G<124.2 289>
VStem: 57 161<0 161> 127 162<338 500>
LayerCount: 2
Fore
SplineSet
57 0 m 1xe0
 127 500 l 1
 289 500 l 1xd0
 218 0 l 1
 57 0 l 1xe0
EndSplineSet
Validated: 1
EndChar

StartChar: IJ
Encoding: 306 306 239
GlifName: I_J_
Width: 847
Flags: W
HStem: -16 170<417.051 527.387> 0 21G<57 220.829> 680 20G<152.2 317 614.173 779>
VStem: 57 161<0 161> 155 162<538 700> 617 162<538 700>
LayerCount: 2
Fore
SplineSet
617 700 m 1xa4
 779 700 l 1
 711 219 l 2
 702 154 672 99 622 53 c 0
 572 7 517 -16 455 -16 c 0
 393 -16 344 7 307 53 c 1
 438 173 l 1
 448 160 462 154 479 154 c 0
 496 154 511 160 525 173 c 0
 539 186 546 201 549 219 c 2
 617 700 l 1xa4
57 0 m 1x74
 155 700 l 1
 317 700 l 1x6c
 218 0 l 1
 57 0 l 1x74
EndSplineSet
Validated: 1
EndChar

StartChar: ij
Encoding: 307 307 240
GlifName: ij
Width: 570
Flags: W
HStem: 0 21G<57 220.84> 480 20G<124.2 289 380.175 544> 548 200<182.06 275.94 435.47 539.887>
VStem: 57 161<0 161> 127 162<338 500> 383 161<339 500>
LayerCount: 2
Fore
SplineSet
383 500 m 1xe4
 544 500 l 1
 482 54 l 2
 472 -20 437 -83 380 -136 c 0
 323 -189 258 -215 188 -215 c 1
 212 -45 l 1
 238 -45 262 -35 283 -16 c 0
 304 3 316 27 320 54 c 2
 383 500 l 1xe4
582 645 m 0
 578 616 565 592 543 572 c 0
 521 552 496 542 469 542 c 0
 442 542 420 552 404 572 c 0
 388 592 382 616 386 645 c 0
 390 674 403 698 425 718 c 0
 447 738 471 748 498 748 c 0
 525 748 548 738 564 718 c 0
 580 698 586 674 582 645 c 0
324 648 m 4
 320 621 307 598 286 578 c 4
 265 558 241 548 215 548 c 4
 189 548 168 558 152 578 c 4
 136 598 130 621 134 648 c 4
 138 675 151 698 172 718 c 4
 193 738 217 748 243 748 c 4
 269 748 290 738 306 718 c 4
 322 698 328 675 324 648 c 4
57 0 m 1xf4
 127 500 l 1
 289 500 l 1xec
 218 0 l 1
 57 0 l 1xf4
EndSplineSet
Validated: 33
EndChar

StartChar: Jcircumflex
Encoding: 308 308 241
GlifName: J_circumflex
Width: 437
Flags: W
HStem: -16 170<127.051 237.393> 680 20G<324.214 489>
VStem: 327 162<538 700>
LayerCount: 2
Fore
SplineSet
206 757 m 1
 350 903 l 1
 509 903 l 1
 612 757 l 1
 455 757 l 1
 416 809 l 1
 362 757 l 1
 206 757 l 1
327 700 m 1
 489 700 l 1
 421 219 l 2
 412 154 382 99 332 53 c 0
 282 7 227 -16 165 -16 c 0
 103 -16 54 7 17 53 c 1
 148 173 l 1
 158 160 172 154 189 154 c 0
 206 154 221 160 235 173 c 0
 249 186 257 201 260 219 c 2
 327 700 l 1
EndSplineSet
Validated: 1
EndChar

StartChar: jcircumflex
Encoding: 309 309 242
GlifName: jcircumflex
Width: 258
Flags: W
HStem: 480 20G<104.22 269> 680 20G<154.274 347.11>
VStem: 107 162<338 500>
LayerCount: 2
Fore
SplineSet
30 554 m 1
 174 700 l 1
 333 700 l 1
 436 554 l 1
 279 554 l 1
 240 606 l 1
 186 554 l 1
 30 554 l 1
107 500 m 1
 269 500 l 1
 206 54 l 2
 196 -20 161 -83 104 -136 c 0
 47 -189 -17 -215 -87 -215 c 1
 -63 -45 l 1
 -37 -45 -14 -35 7 -16 c 0
 28 3 41 27 45 54 c 2
 107 500 l 1
EndSplineSet
Validated: 1
EndChar

StartChar: uni0136
Encoding: 310 310 243
GlifName: uni0136
Width: 644
Flags: W
HStem: -200 21G<206 341.125> 0 21G<57 220.814 428.655 635> 680 20G<152.2 317 483.525 712>
VStem: 57 161<0 161> 155 162<538 700>
LayerCount: 2
Fore
SplineSet
206 -200 m 5xe0
 266 -40 l 1
 426 -40 l 1
 329 -200 l 5
 206 -200 l 5xe0
57 0 m 1xf0
 155 700 l 1
 317 700 l 1xe8
 284 464 l 1
 502 700 l 1
 712 700 l 1
 431 397 l 1
 635 0 l 1
 439 0 l 1
 304 261 l 1
 246 199 l 1
 218 0 l 1
 57 0 l 1xf0
EndSplineSet
Validated: 1
EndChar

StartChar: uni0137
Encoding: 311 311 244
GlifName: uni0137
Width: 558
Flags: W
HStem: -200 21G<139 275> 0 21G<43 206.947 337.904 549> 480 20G<383.132 619> 680 20G<138.2 303>
VStem: 141 162<538 700>
LayerCount: 2
Fore
SplineSet
139 -200 m 5
 200 -40 l 1
 359 -40 l 1
 263 -200 l 5
 139 -200 l 5
43 0 m 1
 141 700 l 1
 303 700 l 1
 253 349 l 1
 403 500 l 1
 619 500 l 1
 396 275 l 1
 549 0 l 1
 349 0 l 1
 268 146 l 1
 218 95 l 1
 204 0 l 1
 43 0 l 1
EndSplineSet
Validated: 1
EndChar

StartChar: Lacute
Encoding: 313 313 245
GlifName: L_acute
Width: 525
Flags: W
HStem: 0 170<242 506> 680 20G<152.2 317>
VStem: 155 162<538 700>
LayerCount: 2
Fore
SplineSet
163 754 m 5
 284 900 l 5
 470 900 l 5
 330 754 l 5
 163 754 l 5
57 0 m 1
 155 700 l 1
 317 700 l 1
 242 170 l 1
 530 170 l 1
 506 0 l 1
 57 0 l 1
EndSplineSet
Validated: 1
EndChar

StartChar: lacute
Encoding: 314 314 246
GlifName: lacute
Width: 246
Flags: W
HStem: 0 21G<43 206.829> 680 20G<138.2 303>
VStem: 43 161<0 161> 141 162<538 700>
LayerCount: 2
Fore
SplineSet
141 754 m 5xd0
 262 900 l 5
 449 900 l 5
 308 754 l 5
 141 754 l 5xd0
141 700 m 1
 303 700 l 1xd0
 204 0 l 1
 43 0 l 1xe0
 141 700 l 1
EndSplineSet
Validated: 1
EndChar

StartChar: uni013B
Encoding: 315 315 247
GlifName: uni013B_
Width: 525
Flags: W
HStem: -200 21G<137 273> 0 170<242 506> 680 20G<152.2 317>
VStem: 155 162<538 700>
LayerCount: 2
Fore
SplineSet
137 -200 m 5
 198 -40 l 1
 357 -40 l 1
 261 -200 l 5
 137 -200 l 5
57 0 m 1
 155 700 l 1
 317 700 l 1
 242 170 l 1
 530 170 l 1
 506 0 l 1
 57 0 l 1
EndSplineSet
Validated: 1
EndChar

StartChar: uni013C
Encoding: 316 316 248
GlifName: uni013C_
Width: 246
Flags: W
HStem: -200 21G<-21 114.125> 0 21G<43 206.829> 680 20G<138.2 303>
VStem: 43 161<0 161> 141 162<538 700>
LayerCount: 2
Fore
SplineSet
-21 -200 m 5xe0
 39 -40 l 1
 199 -40 l 1
 102 -200 l 5
 -21 -200 l 5xe0
141 700 m 1xe8
 303 700 l 1xe8
 204 0 l 1
 43 0 l 1xf0
 141 700 l 1xe8
EndSplineSet
Validated: 1
EndChar

StartChar: Lcaron
Encoding: 317 317 249
GlifName: L_caron
Width: 525
Flags: W
HStem: 0 170<242 506> 609 150<386 467> 680 20G<152.2 317>
VStem: 155 162<538 700>
LayerCount: 2
Fore
SplineSet
344 609 m 5xd0
 386 759 l 1
 528 759 l 1
 467 609 l 5
 344 609 l 5xd0
57 0 m 1
 155 700 l 1
 317 700 l 1xb0
 242 170 l 1
 530 170 l 1
 506 0 l 1
 57 0 l 1
EndSplineSet
Validated: 1
EndChar

StartChar: lcaron
Encoding: 318 318 250
GlifName: lcaron
Width: 246
Flags: W
HStem: 0 21G<43 206.829> 550 150<344 426>
VStem: 43 161<0 161> 141 162<538 700>
LayerCount: 2
Fore
SplineSet
302 550 m 5xc0
 344 700 l 1
 487 700 l 1
 426 550 l 5
 302 550 l 5xc0
141 700 m 1xd0
 303 700 l 1xd0
 204 0 l 1
 43 0 l 1xe0
 141 700 l 1xd0
EndSplineSet
Validated: 1
EndChar

StartChar: Ldot
Encoding: 319 319 251
GlifName: L_dot
Width: 525
Flags: W
HStem: 0 170<242 506> 308 200<395.06 488.94> 680 20G<152.2 317>
VStem: 155 162<538 700>
LayerCount: 2
Fore
SplineSet
57 0 m 1
 155 700 l 1
 317 700 l 1
 242 170 l 1
 530 170 l 1
 506 0 l 1
 57 0 l 1
537 408 m 4
 533 381 520 358 499 338 c 4
 478 318 454 308 428 308 c 4
 402 308 381 318 365 338 c 4
 349 358 343 381 347 408 c 4
 351 435 364 458 385 478 c 4
 406 498 430 508 456 508 c 4
 482 508 503 498 519 478 c 4
 535 458 541 435 537 408 c 4
EndSplineSet
Validated: 33
EndChar

StartChar: ldot
Encoding: 320 320 252
GlifName: ldot
Width: 442
Flags: W
HStem: 0 21G<43 206.829> 268 200<328.06 421.94> 680 20G<138.2 303>
VStem: 43 161<0 161> 141 162<538 700>
LayerCount: 2
Fore
SplineSet
141 700 m 1xe8
 303 700 l 1xe8
 204 0 l 1
 43 0 l 1xf0
 141 700 l 1xe8
470 368 m 4
 466 341 453 318 432 298 c 4
 411 278 387 268 361 268 c 4
 335 268 314 278 298 298 c 4
 282 318 276 341 280 368 c 4
 284 395 297 418 318 438 c 4
 339 458 363 468 389 468 c 4
 415 468 436 458 452 438 c 4
 468 418 474 395 470 368 c 4
EndSplineSet
Validated: 33
EndChar

StartChar: Lslash
Encoding: 321 321 253
GlifName: L_slash
Width: 525
Flags: W
HStem: 0 170<242 506> 680 20G<152.2 317>
VStem: 155 162<538 700>
LayerCount: 2
Fore
SplineSet
57 0 m 1
 155 700 l 1
 317 700 l 1
 242 170 l 1
 530 170 l 1
 506 0 l 1
 57 0 l 1
30 212 m 1
 57 405 l 1
 400 586 l 1
 372 393 l 1
 30 212 l 1
EndSplineSet
Validated: 5
EndChar

StartChar: lslash
Encoding: 322 322 254
GlifName: lslash
Width: 275
Flags: W
HStem: 0 21G<52 225.829> 680 20G<148.171 322>
VStem: 52 171<0 171> 151 171<529 700>
LayerCount: 2
Fore
SplineSet
27 190 m 1xc0
 54 383 l 1
 351 537 l 1
 324 344 l 1
 27 190 l 1xc0
52 0 m 1xe0
 151 700 l 1
 322 700 l 1xd0
 223 0 l 1
 52 0 l 1xe0
EndSplineSet
Validated: 5
EndChar

StartChar: Nacute
Encoding: 323 323 255
GlifName: N_acute
Width: 677
Flags: W
HStem: 0 21G<57 220.828 449.437 622.829> 680 20G<152.2 326.563 554.224 719>
VStem: 57 161<0 161> 557 162<538 700>
LayerCount: 2
Fore
SplineSet
361 734 m 5
 482 880 l 5
 669 880 l 5
 528 734 l 5
 361 734 l 5
155 700 m 1
 317 700 l 1
 503 311 l 1
 557 700 l 1
 719 700 l 1
 620 0 l 1
 459 0 l 1
 273 389 l 1
 218 0 l 1
 57 0 l 1
 155 700 l 1
EndSplineSet
Validated: 1
EndChar

StartChar: nacute
Encoding: 324 324 256
GlifName: nacute
Width: 549
Flags: W
HStem: 0 21G<43 206.803 350 513.812> 342 170<293.556 414.5> 480 20G<110.2 263> 680 20G<366.425 570>
VStem: 43 161<0 161> 350 161<0 161>
LayerCount: 2
Fore
SplineSet
262 554 m 5x9c
 383 700 l 5
 570 700 l 5
 429 554 l 5
 262 554 l 5x9c
511 0 m 1
 350 0 l 1
 387 264 l 2
 390 287 386 306 374 320 c 0
 362 334 346 342 325 342 c 0xdc
 304 342 286 334 270 320 c 0
 254 306 244 287 241 264 c 2
 204 0 l 1
 43 0 l 1
 113 500 l 1
 263 500 l 1
 258 463 l 1
 264 469 270 475 277 480 c 4xbc
 306 501 342 512 383 512 c 0xdc
 446 512 492 488 520 440 c 0
 548 392 558 331 547 256 c 2
 511 0 l 1
EndSplineSet
Validated: 33
EndChar

StartChar: uni0145
Encoding: 325 325 257
GlifName: uni0145
Width: 677
Flags: W
HStem: -200 21G<213 348.125> 0 21G<57 220.828 449.437 622.829> 680 20G<152.2 326.563 554.224 719>
VStem: 57 161<0 161> 557 162<538 700>
LayerCount: 2
Fore
SplineSet
213 -200 m 5
 273 -40 l 1
 433 -40 l 1
 336 -200 l 5
 213 -200 l 5
155 700 m 1
 317 700 l 1
 503 311 l 1
 557 700 l 1
 719 700 l 1
 620 0 l 1
 459 0 l 1
 273 389 l 1
 218 0 l 1
 57 0 l 1
 155 700 l 1
EndSplineSet
Validated: 1
EndChar

StartChar: uni0146
Encoding: 326 326 258
GlifName: uni0146
Width: 549
Flags: W
HStem: -200 21G<132 268.125> 0 21G<43 206.803 350 513.812> 342 170<293.556 414.5> 480 20G<110.2 263>
VStem: 43 161<0 161> 350 161<0 161>
LayerCount: 2
Fore
SplineSet
132 -200 m 5xcc
 193 -40 l 1
 353 -40 l 1
 256 -200 l 5
 132 -200 l 5xcc
511 0 m 1
 350 0 l 1
 387 264 l 2
 390 287 386 306 374 320 c 0
 362 334 346 342 325 342 c 0xec
 304 342 286 334 270 320 c 0
 254 306 244 287 241 264 c 2
 204 0 l 1
 43 0 l 1
 113 500 l 1
 263 500 l 1
 258 463 l 1
 264 469 270 475 277 480 c 4xdc
 306 501 342 512 383 512 c 0xec
 446 512 492 488 520 440 c 0
 548 392 558 331 547 256 c 2
 511 0 l 1
EndSplineSet
Validated: 33
EndChar

StartChar: Ncaron
Encoding: 327 327 259
GlifName: N_caron
Width: 677
Flags: W
HStem: 0 21G<57 220.828 449.437 622.829> 680 20G<152.2 326.563 554.224 719> 734 146<367 427 520 540>
VStem: 57 161<0 161> 557 162<538 700>
LayerCount: 2
Fore
SplineSet
273 880 m 5
 427 880 l 5
 466 824 l 5
 520 880 l 5
 675 880 l 5
 540 734 l 5
 367 734 l 5
 273 880 l 5
155 700 m 1
 317 700 l 1
 503 311 l 1
 557 700 l 1
 719 700 l 1
 620 0 l 1
 459 0 l 1
 273 389 l 1
 218 0 l 1
 57 0 l 1
 155 700 l 1
EndSplineSet
Validated: 1
EndChar

StartChar: ncaron
Encoding: 328 328 260
GlifName: ncaron
Width: 549
Flags: W
HStem: 0 21G<43 206.803 350 513.812> 342 170<293.556 414.5> 480 20G<110.2 263> 554 146<253 314 407 427>
VStem: 43 161<0 161> 350 161<0 161>
LayerCount: 2
Fore
SplineSet
159 700 m 5x9c
 314 700 l 5
 353 644 l 5
 407 700 l 5
 562 700 l 5
 427 554 l 5
 253 554 l 5
 159 700 l 5x9c
511 0 m 1
 350 0 l 1
 387 264 l 2
 390 287 386 306 374 320 c 0
 362 334 346 342 325 342 c 0xdc
 304 342 286 334 270 320 c 0
 254 306 244 287 241 264 c 2
 204 0 l 1
 43 0 l 1
 113 500 l 1
 263 500 l 1
 258 463 l 1
 264 469 270 475 277 480 c 4xbc
 306 501 342 512 383 512 c 0xdc
 446 512 492 488 520 440 c 0
 548 392 558 331 547 256 c 2
 511 0 l 1
EndSplineSet
Validated: 33
EndChar

StartChar: Eng
Encoding: 330 330 261
GlifName: E_ng
Width: 677
Flags: W
HStem: -20 20G<458 620> 0 21G<57 220.828 449.437 622.829> 680 20G<152.2 326.563 554.224 719>
VStem: 57 161<0 161> 557 162<538 700>
LayerCount: 2
Fore
SplineSet
155 700 m 1x78
 317 700 l 1
 503 311 l 1
 557 700 l 1
 719 700 l 1
 620 0 l 1
 459 0 l 1xb8
 273 389 l 1
 218 0 l 1
 57 0 l 1
 155 700 l 1x78
459 0 m 5
 620 0 l 5
 620 -5 l 6
 612 -63 585 -113 540 -154 c 4
 495 -195 446 -215 391 -215 c 6
 353 -215 l 5
 377 -45 l 5
 415 -45 l 6
 425 -45 434 -41 443 -33 c 4
 452 -25 457 -16 458 -5 c 6
 459 0 l 5
EndSplineSet
Validated: 5
EndChar

StartChar: eng
Encoding: 331 331 262
GlifName: eng
Width: 549
Flags: W
HStem: -20 20G<349 511> 0 21G<43 206.803 350 513.812> 342 170<293.556 414.5> 480 20G<110.2 263>
VStem: 43 161<0 161> 350 161<0 161>
LayerCount: 2
Fore
SplineSet
511 0 m 1xac
 350 0 l 1
 387 264 l 2
 390 287 386 306 374 320 c 0
 362 334 346 342 325 342 c 0xac
 304 342 286 334 270 320 c 0
 254 306 244 287 241 264 c 2
 204 0 l 1
 43 0 l 1
 113 500 l 1
 263 500 l 1
 258 463 l 1
 264 469 270 475 277 480 c 4x5c
 306 501 342 512 383 512 c 0
 446 512 492 488 520 440 c 0
 548 392 558 331 547 256 c 2
 511 0 l 1xac
350 0 m 5
 511 0 l 5
 510 -5 l 6
 502 -63 476 -113 431 -154 c 4
 386 -195 336 -215 281 -215 c 6
 243 -215 l 5
 267 -45 l 5
 305 -45 l 6
 315 -45 325 -41 334 -33 c 4
 343 -25 348 -16 349 -5 c 6
 350 0 l 5
EndSplineSet
Validated: 37
EndChar

StartChar: Omacron
Encoding: 332 332 263
GlifName: O_macron
Width: 735
Flags: W
HStem: -12 170<308.326 478.896> 542 170<358.309 523.986> 749 151<341 643>
LayerCount: 2
Fore
SplineSet
444 542 m 0
 394 542 348 523 307 485 c 0
 266 447 241 403 234 350 c 0
 227 297 239 252 269 214 c 0
 299 176 340 158 390 158 c 0
 440 158 486 176 527 214 c 0
 568 252 592 297 599 350 c 0
 606 403 595 447 565 485 c 0
 535 523 494 542 444 542 c 0
468 712 m 0
 562 712 638 677 695 608 c 0
 753 537 775 452 761 350 c 0
 747 247 699 159 619 88 c 0
 543 21 459 -12 366 -12 c 0
 269 -12 192 23 135 95 c 0
 79 165 59 251 73 350 c 0
 87 449 131 534 207 604 c 0
 284 676 372 712 468 712 c 0
320 749 m 1
 341 900 l 1
 664 900 l 1
 643 749 l 1
 320 749 l 1
EndSplineSet
Validated: 33
EndChar

StartChar: omacron
Encoding: 333 333 264
GlifName: omacron
Width: 535
Flags: W
HStem: -12 170<237.394 349.516> 342 170<256.484 368.606> 549 151<204 506>
LayerCount: 2
Fore
SplineSet
183 549 m 1
 204 700 l 1
 527 700 l 1
 506 549 l 1
 183 549 l 1
316 342 m 0
 292 342 270 333 250 315 c 0
 230 297 220 275 216 250 c 0
 212 225 217 203 232 185 c 0
 247 167 266 158 290 158 c 0
 314 158 336 167 356 185 c 0
 376 203 386 225 390 250 c 0
 394 275 389 297 374 315 c 0
 359 333 340 342 316 342 c 0
340 512 m 0
 409 512 464 486 505 435 c 0
 546 384 562 322 552 250 c 0
 542 178 509 116 453 65 c 0
 397 14 335 -12 266 -12 c 0
 197 -12 142 14 101 65 c 0
 60 116 44 178 54 250 c 0
 64 322 97 384 153 435 c 0
 209 486 271 512 340 512 c 0
EndSplineSet
Validated: 33
EndChar

StartChar: Obreve
Encoding: 334 334 265
GlifName: O_breve
Width: 735
Flags: W
HStem: -12 170<308.326 478.896> 542 170<358.309 523.986> 742 119<459.106 541.536>
LayerCount: 2
Fore
SplineSet
444 542 m 0
 394 542 348 523 307 485 c 0
 266 447 241 403 234 350 c 0
 227 297 239 252 269 214 c 0
 299 176 340 158 390 158 c 0
 440 158 486 176 527 214 c 0
 568 252 592 297 599 350 c 0
 606 403 595 447 565 485 c 0
 535 523 494 542 444 542 c 0
468 712 m 0
 562 712 638 677 695 608 c 0
 753 537 775 452 761 350 c 0
 747 247 699 159 619 88 c 0
 543 21 459 -12 366 -12 c 0
 269 -12 192 23 135 95 c 0
 79 165 59 251 73 350 c 0
 87 449 131 534 207 604 c 0
 284 676 372 712 468 712 c 0
331 900 m 1
 452 900 l 1
 451 889 454 880 462 872 c 0
 470 864 482 861 495 861 c 0
 508 861 520 864 531 872 c 0
 542 880 548 889 549 900 c 1
 669 900 l 1
 663 856 642 819 606 788 c 0
 570 757 527 742 478 742 c 0
 429 742 391 757 363 788 c 0
 335 819 325 856 331 900 c 1
EndSplineSet
Validated: 33
EndChar

StartChar: obreve
Encoding: 335 335 266
GlifName: obreve
Width: 535
Flags: W
HStem: -12 170<237.394 349.516> 342 170<256.484 368.606> 542 119<323.105 404.821>
LayerCount: 2
Fore
SplineSet
316 342 m 0
 292 342 270 333 250 315 c 0
 230 297 220 275 216 250 c 0
 212 225 217 203 232 185 c 0
 247 167 266 158 290 158 c 0
 314 158 336 167 356 185 c 0
 376 203 386 225 390 250 c 0
 394 275 389 297 374 315 c 0
 359 333 340 342 316 342 c 0
340 512 m 0
 409 512 464 486 505 435 c 0
 546 384 562 322 552 250 c 0
 542 178 509 116 453 65 c 0
 397 14 335 -12 266 -12 c 0
 197 -12 142 14 101 65 c 0
 60 116 44 178 54 250 c 0
 64 322 97 384 153 435 c 0
 209 486 271 512 340 512 c 0
195 700 m 1
 315 700 l 1
 314 689 318 680 326 672 c 0
 334 664 345 661 358 661 c 0
 371 661 383 664 394 672 c 0
 405 680 411 689 412 700 c 1
 533 700 l 1
 527 656 505 619 469 588 c 0
 433 557 391 542 342 542 c 0
 293 542 255 557 227 588 c 0
 199 619 189 656 195 700 c 1
EndSplineSet
Validated: 33
EndChar

StartChar: Ohungarumlaut
Encoding: 336 336 267
GlifName: O_hungarumlaut
Width: 735
Flags: W
HStem: -12 170<308.326 478.896> 542 170<358.309 523.986>
LayerCount: 2
Fore
SplineSet
525 754 m 1
 635 900 l 1
 797 900 l 1
 666 754 l 1
 525 754 l 1
313 754 m 1
 419 900 l 1
 580 900 l 1
 451 754 l 1
 313 754 l 1
444 542 m 0
 394 542 348 523 307 485 c 0
 266 447 241 403 234 350 c 0
 227 297 239 252 269 214 c 0
 299 176 340 158 390 158 c 0
 440 158 486 176 527 214 c 0
 568 252 592 297 599 350 c 0
 606 403 595 447 565 485 c 0
 535 523 494 542 444 542 c 0
468 712 m 0
 562 712 638 677 695 608 c 0
 753 537 775 452 761 350 c 0
 747 247 699 159 619 88 c 0
 543 21 459 -12 366 -12 c 0
 269 -12 192 23 135 95 c 0
 79 165 59 251 73 350 c 0
 87 449 131 534 207 604 c 0
 284 676 372 712 468 712 c 0
EndSplineSet
Validated: 33
EndChar

StartChar: ohungarumlaut
Encoding: 337 337 268
GlifName: ohungarumlaut
Width: 535
Flags: W
HStem: -12 170<237.394 349.516> 342 170<256.484 368.606> 680 20G<262.479 439 478.932 656>
LayerCount: 2
Fore
SplineSet
384 554 m 1
 494 700 l 1
 656 700 l 1
 525 554 l 1
 384 554 l 1
171 554 m 1
 277 700 l 1
 439 700 l 1
 310 554 l 1
 171 554 l 1
316 342 m 0
 292 342 270 333 250 315 c 0
 230 297 220 275 216 250 c 0
 212 225 217 203 232 185 c 0
 247 167 266 158 290 158 c 0
 314 158 336 167 356 185 c 0
 376 203 386 225 390 250 c 0
 394 275 389 297 374 315 c 0
 359 333 340 342 316 342 c 0
340 512 m 0
 409 512 464 486 505 435 c 0
 546 384 562 322 552 250 c 0
 542 178 509 116 453 65 c 0
 397 14 335 -12 266 -12 c 0
 197 -12 142 14 101 65 c 0
 60 116 44 178 54 250 c 0
 64 322 97 384 153 435 c 0
 209 486 271 512 340 512 c 0
EndSplineSet
Validated: 33
EndChar

StartChar: OE
Encoding: 338 338 269
GlifName: O_E_
Width: 1049
Flags: W
HStem: -12 170<308.326 478.896> 0 170<735 1002> 266 169<773 972> 530 170<786 1076> 542 170<358.309 523.986>
LayerCount: 2
Fore
SplineSet
444 542 m 0xa8
 394 542 348 523 307 485 c 0
 266 447 241 403 234 350 c 0
 227 297 239 252 269 214 c 0
 299 176 340 158 390 158 c 0
 440 158 486 176 527 214 c 0
 568 252 592 297 599 350 c 0
 606 403 595 447 565 485 c 0
 535 523 494 542 444 542 c 0xa8
468 712 m 0
 562 712 638 677 695 608 c 0
 753 537 775 452 761 350 c 0
 747 247 699 159 619 88 c 0
 543 21 459 -12 366 -12 c 0
 269 -12 192 23 135 95 c 0
 79 165 59 251 73 350 c 0
 87 449 131 534 207 604 c 0
 284 676 372 712 468 712 c 0
550 0 m 1x70
 648 700 l 1
 1100 700 l 1
 1076 530 l 1
 786 530 l 1
 773 435 l 1
 996 435 l 1
 972 266 l 1
 749 266 l 1
 735 170 l 1
 1026 170 l 1
 1002 0 l 1
 550 0 l 1x70
EndSplineSet
Validated: 37
EndChar

StartChar: oe
Encoding: 339 339 270
GlifName: oe
Width: 853
Flags: W
HStem: -12 170<237.394 349.516 545.219 713.736> 190 130<583 707> 342 170<256.484 368.606> 352 160<594.172 699.739>
LayerCount: 2
Fore
SplineSet
870 190 m 1xd0
 569 190 l 1
 575 182 582 176 590 171 c 0
 603 163 619 158 636 158 c 0
 666 158 691 167 711 185 c 1
 808 65 l 1
 752 14 687 -12 612 -12 c 0
 543 -12 486 14 442 65 c 0
 398 116 380 178 390 250 c 0
 400 323 433 385 489 436 c 0
 545 487 607 512 676 512 c 0
 741 512 795 486 836 435 c 0
 875 387 890 325 879 250 c 2
 870 190 l 1xd0
650 352 m 0
 634 352 619 348 606 340 c 0
 598 335 590 328 583 320 c 1
 707 320 l 1
 702 329 694 337 686 342 c 0xe0
 676 349 665 352 650 352 c 0
316 342 m 0
 292 342 270 333 250 315 c 0
 230 297 220 275 216 250 c 0
 212 225 217 203 232 185 c 0
 247 167 266 158 290 158 c 0
 314 158 336 167 356 185 c 0
 376 203 386 225 390 250 c 0
 394 275 389 297 374 315 c 0
 359 333 340 342 316 342 c 0
340 512 m 0
 409 512 464 486 505 435 c 0
 546 384 562 322 552 250 c 0
 542 178 509 116 453 65 c 0
 397 14 335 -12 266 -12 c 0
 197 -12 142 14 101 65 c 0
 60 116 44 178 54 250 c 0
 64 322 97 384 153 435 c 0
 209 486 271 512 340 512 c 0
EndSplineSet
Validated: 37
EndChar

StartChar: Racute
Encoding: 340 340 271
GlifName: R_acute
Width: 577
Flags: W
HStem: 0 21G<57 220.857 386.905 563> 530 170<293 449.535>
VStem: 57 161<0 161> 391 172<0 172>
LayerCount: 2
Fore
SplineSet
287 754 m 5
 409 900 l 5
 595 900 l 5
 455 754 l 5
 287 754 l 5
293 530 m 1
 272 380 l 1
 384 380 l 2
 403 380 421 387 437 402 c 0
 453 417 463 435 466 455 c 0
 469 475 464 493 452 508 c 0
 440 523 424 530 405 530 c 2
 293 530 l 1
155 700 m 1
 429 700 l 2
 493 700 544 676 583 628 c 0
 622 580 636 522 627 455 c 0
 622 416 609 380 588 346 c 0
 567 312 541 284 510 261 c 1
 563 0 l 1
 391 0 l 1
 348 210 l 1
 248 210 l 1
 218 0 l 1
 57 0 l 1
 155 700 l 1
EndSplineSet
Validated: 33
EndChar

StartChar: racute
Encoding: 341 341 272
GlifName: racute
Width: 386
Flags: W
HStem: 0 21G<43 206.829> 480 20G<110.2 263 421.5 441.176> 680 20G<263.425 466>
VStem: 43 161<0 161>
LayerCount: 2
Fore
SplineSet
159 554 m 5
 280 700 l 5
 466 700 l 5
 326 554 l 5
 159 554 l 5
113 500 m 1
 263 500 l 1
 254 435 l 1
 259 440 264 445 269 449 c 0
 285 462 303 474 322 484 c 0
 359 503 399 512 444 512 c 1
 420 342 l 1
 378 342 341 331 308 309 c 0
 275 287 250 252 233 205 c 5
 204 0 l 1
 43 0 l 1
 113 500 l 1
EndSplineSet
Validated: 1
EndChar

StartChar: uni0156
Encoding: 342 342 273
GlifName: uni0156
Width: 577
Flags: W
HStem: -200 21G<164 299.125> 0 21G<57 220.857 386.905 563> 530 170<293 449.535>
VStem: 57 161<0 161> 391 172<0 172>
LayerCount: 2
Fore
SplineSet
164 -200 m 5
 224 -40 l 1
 384 -40 l 1
 287 -200 l 5
 164 -200 l 5
293 530 m 1
 272 380 l 1
 384 380 l 2
 403 380 421 387 437 402 c 0
 453 417 463 435 466 455 c 0
 469 475 464 493 452 508 c 0
 440 523 424 530 405 530 c 2
 293 530 l 1
155 700 m 1
 429 700 l 2
 493 700 544 676 583 628 c 0
 622 580 636 522 627 455 c 0
 622 416 609 380 588 346 c 0
 567 312 541 284 510 261 c 1
 563 0 l 1
 391 0 l 1
 348 210 l 1
 248 210 l 1
 218 0 l 1
 57 0 l 1
 155 700 l 1
EndSplineSet
Validated: 33
EndChar

StartChar: uni0157
Encoding: 343 343 274
GlifName: uni0157
Width: 386
Flags: W
HStem: -200 21G<-27 108.125> 0 21G<43 206.829> 480 20G<110.2 263 421.5 441.176>
VStem: 43 161<0 161>
LayerCount: 2
Fore
SplineSet
-27 -200 m 5
 33 -40 l 1
 193 -40 l 1
 96 -200 l 5
 -27 -200 l 5
113 500 m 1
 263 500 l 1
 254 435 l 1
 259 440 264 445 269 449 c 0
 285 462 303 474 322 484 c 0
 359 503 399 512 444 512 c 1
 420 342 l 1
 378 342 341 331 308 309 c 0
 275 287 250 252 233 205 c 5
 204 0 l 1
 43 0 l 1
 113 500 l 1
EndSplineSet
Validated: 1
EndChar

StartChar: Rcaron
Encoding: 344 344 275
GlifName: R_caron
Width: 577
Flags: W
HStem: 0 21G<57 220.857 386.905 563> 530 170<293 449.535> 754 146<293 354 447 466>
VStem: 57 161<0 161> 391 172<0 172>
LayerCount: 2
Fore
SplineSet
199 900 m 5
 354 900 l 5
 392 844 l 5
 447 900 l 5
 601 900 l 5
 466 754 l 5
 293 754 l 5
 199 900 l 5
293 530 m 1
 272 380 l 1
 384 380 l 2
 403 380 421 387 437 402 c 0
 453 417 463 435 466 455 c 0
 469 475 464 493 452 508 c 0
 440 523 424 530 405 530 c 2
 293 530 l 1
155 700 m 1
 429 700 l 2
 493 700 544 676 583 628 c 0
 622 580 636 522 627 455 c 0
 622 416 609 380 588 346 c 0
 567 312 541 284 510 261 c 1
 563 0 l 1
 391 0 l 1
 348 210 l 1
 248 210 l 1
 218 0 l 1
 57 0 l 1
 155 700 l 1
EndSplineSet
Validated: 33
EndChar

StartChar: rcaron
Encoding: 345 345 276
GlifName: rcaron
Width: 386
Flags: W
HStem: 0 21G<43 206.829> 480 20G<110.2 263 421.5 441.176> 554 146<183 244 337 356>
VStem: 43 161<0 161>
LayerCount: 2
Fore
SplineSet
89 700 m 5
 244 700 l 5
 282 644 l 5
 337 700 l 5
 491 700 l 5
 356 554 l 5
 183 554 l 5
 89 700 l 5
113 500 m 1
 263 500 l 1
 254 435 l 1
 259 440 264 445 269 449 c 0
 285 462 303 474 322 484 c 0
 359 503 399 512 444 512 c 1
 420 342 l 1
 378 342 341 331 308 309 c 0
 275 287 250 252 233 205 c 5
 204 0 l 1
 43 0 l 1
 113 500 l 1
EndSplineSet
Validated: 1
EndChar

StartChar: Sacute
Encoding: 346 346 277
GlifName: S_acute
Width: 526
Flags: W
HStem: -12 170<224.844 342.275> 508 21G<389.5 463.636> 542 170<277.906 385.286>
LayerCount: 2
Fore
SplineSet
282 754 m 5
 404 900 l 5
 590 900 l 5
 450 754 l 5
 282 754 l 5
359 712 m 0
 410 712 454 697 490 667 c 0
 526 637 547 599 552 552 c 1
 390 508 l 1
 389 518 383 527 373 533 c 0
 363 539 351 542 336 542 c 0
 318 542 302 538 289 530 c 0
 276 522 268 511 266 496 c 0
 265 486 268 477 277 470 c 0
 288 460 308 453 336 448 c 0
 401 436 452 411 488 373 c 0
 524 335 538 284 529 219 c 0
 520 154 489 98 436 54 c 0
 383 10 324 -12 258 -12 c 0
 203 -12 157 4 118 36 c 0
 79 68 57 109 51 159 c 1
 213 203 l 1
 215 190 222 179 235 171 c 0
 248 163 264 158 282 158 c 0
 304 158 323 163 339 174 c 0
 355 185 364 200 367 219 c 0
 369 234 364 247 353 257 c 0
 340 269 318 278 286 284 c 0
 226 295 179 319 144 354 c 0
 109 389 97 436 105 496 c 0
 114 557 142 609 192 650 c 0
 242 691 297 712 359 712 c 0
EndSplineSet
Validated: 33
EndChar

StartChar: sacute
Encoding: 347 347 278
GlifName: sacute
Width: 426
Flags: W
HStem: -12 151<157.049 255.229> 364 148<238.278 335.573> 680 20G<318.425 521>
LayerCount: 2
Fore
SplineSet
214 554 m 5
 335 700 l 5
 521 700 l 5
 381 554 l 5
 214 554 l 5
454 397 m 1
 295 342 l 1
 293 350 290 355 285 359 c 0
 281 362 275 364 268 364 c 0
 260 364 253 362 247 358 c 0
 241 354 238 349 238 343 c 0
 238 332 251 325 278 323 c 0
 292 322 300 322 303 321 c 0
 336 315 362 302 382 283 c 0
 418 248 432 204 424 149 c 0
 415 93 388 50 342 20 c 0
 309 -2 267 -12 215 -12 c 0
 171 -11 132 -1 99 18 c 0
 66 37 45 65 38 103 c 1
 199 161 l 1
 203 146 214 139 229 139 c 0
 239 139 247 141 252 144 c 0
 257 147 260 152 260 158 c 0
 260 168 242 175 204 179 c 0
 197 180 191 180 187 181 c 0
 144 189 114 209 96 239 c 0
 78 269 71 304 76 345 c 0
 84 399 108 440 149 468 c 0
 190 496 237 511 286 512 c 0
 333 512 371 502 399 482 c 0
 426 463 444 434 454 397 c 1
EndSplineSet
Validated: 33
EndChar

StartChar: Scircumflex
Encoding: 348 348 279
GlifName: S_circumflex
Width: 526
Flags: W
HStem: -12 170<224.844 342.275> 508 21G<389.5 463.636> 542 170<277.906 385.286>
LayerCount: 2
Fore
SplineSet
173 754 m 1
 318 900 l 1
 476 900 l 1
 580 754 l 1
 423 754 l 1
 384 806 l 1
 330 754 l 1
 173 754 l 1
359 712 m 0
 410 712 454 697 490 667 c 0
 526 637 547 599 552 552 c 1
 390 508 l 1
 389 518 383 527 373 533 c 0
 363 539 351 542 336 542 c 0
 318 542 302 538 289 530 c 0
 276 522 268 511 266 496 c 0
 265 486 268 477 277 470 c 0
 288 460 308 453 336 448 c 0
 401 436 452 411 488 373 c 0
 524 335 538 284 529 219 c 0
 520 154 489 98 436 54 c 0
 383 10 324 -12 258 -12 c 0
 203 -12 157 4 118 36 c 0
 79 68 57 109 51 159 c 1
 213 203 l 1
 215 190 222 179 235 171 c 0
 248 163 264 158 282 158 c 0
 304 158 323 163 339 174 c 0
 355 185 364 200 367 219 c 0
 369 234 364 247 353 257 c 0
 340 269 318 278 286 284 c 0
 226 295 179 319 144 354 c 0
 109 389 97 436 105 496 c 0
 114 557 142 609 192 650 c 0
 242 691 297 712 359 712 c 0
EndSplineSet
Validated: 33
EndChar

StartChar: scircumflex
Encoding: 349 349 280
GlifName: scircumflex
Width: 426
Flags: W
HStem: -12 151<157.049 255.229> 364 148<238.278 335.573> 680 20G<218.137 410.11>
LayerCount: 2
Fore
SplineSet
93 554 m 1
 238 700 l 1
 396 700 l 1
 499 554 l 1
 343 554 l 1
 304 606 l 1
 250 554 l 1
 93 554 l 1
454 397 m 1
 295 342 l 1
 293 350 290 355 285 359 c 0
 281 362 275 364 268 364 c 0
 260 364 253 362 247 358 c 0
 241 354 238 349 238 343 c 0
 238 332 251 325 278 323 c 0
 292 322 300 322 303 321 c 0
 336 315 362 302 382 283 c 0
 418 248 432 204 424 149 c 0
 415 93 388 50 342 20 c 0
 309 -2 267 -12 215 -12 c 0
 171 -11 132 -1 99 18 c 0
 66 37 45 65 38 103 c 1
 199 161 l 1
 203 146 214 139 229 139 c 0
 239 139 247 141 252 144 c 0
 257 147 260 152 260 158 c 0
 260 168 242 175 204 179 c 0
 197 180 191 180 187 181 c 0
 144 189 114 209 96 239 c 0
 78 269 71 304 76 345 c 0
 84 399 108 440 149 468 c 0
 190 496 237 511 286 512 c 0
 333 512 371 502 399 482 c 0
 426 463 444 434 454 397 c 1
EndSplineSet
Validated: 33
EndChar

StartChar: Scedilla
Encoding: 350 350 281
GlifName: S_cedilla
Width: 526
Flags: W
HStem: -210 120<198.415 280.259> -12 170<224.844 293> 508 21G<389.5 463.636> 542 170<277.906 385.286>
LayerCount: 2
Fore
SplineSet
364 83 m 1
 398 50 411 7 404 -45 c 0
 398 -90 376 -130 341 -162 c 0
 306 -194 267 -210 224 -210 c 0
 188 -210 158 -198 133 -175 c 1
 186 -109 212 -76 212 -76 c 4
 219 -85 229 -90 241 -90 c 0
 253 -90 264 -86 273 -77 c 0
 282 -68 288 -58 290 -45 c 0
 292 -34 289 -23 283 -15 c 0
 277 -7 269 -1 259 -0 c 1
 364 83 l 1
359 712 m 0
 410 712 454 697 490 667 c 0
 526 637 547 599 552 552 c 1
 390 508 l 1
 389 518 383 527 373 533 c 0
 363 539 351 542 336 542 c 0
 318 542 302 538 289 530 c 0
 276 522 268 511 266 496 c 0
 265 486 268 477 277 470 c 0
 288 460 308 453 336 448 c 0
 401 436 452 411 488 373 c 0
 524 335 538 284 529 219 c 0
 520 154 489 98 436 54 c 0
 383 10 324 -12 258 -12 c 0
 203 -12 157 4 118 36 c 0
 79 68 57 109 51 159 c 1
 213 203 l 1
 215 190 222 179 235 171 c 0
 248 163 264 158 282 158 c 0
 304 158 323 163 339 174 c 0
 355 185 364 200 367 219 c 0
 369 234 364 247 353 257 c 0
 340 269 318 278 286 284 c 0
 226 295 179 319 144 354 c 0
 109 389 97 436 105 496 c 0
 114 557 142 609 192 650 c 0
 242 691 297 712 359 712 c 0
EndSplineSet
Validated: 37
EndChar

StartChar: scedilla
Encoding: 351 351 282
GlifName: scedilla
Width: 426
Flags: W
HStem: -209 120<143.415 225.474> -12 151<157.049 253> 364 148<238.278 335.573>
LayerCount: 2
Fore
SplineSet
310 84 m 1
 344 51 356 8 349 -44 c 0
 343 -89 322 -128 287 -160 c 0
 252 -192 212 -209 169 -209 c 0
 133 -209 103 -197 78 -174 c 1
 131 -108 157 -75 157 -75 c 4
 164 -84 174 -89 186 -89 c 0
 198 -89 209 -85 218 -76 c 0
 227 -67 233 -57 235 -44 c 0
 237 -33 234 -22 228 -14 c 0
 222 -6 214 0 204 1 c 1
 310 84 l 1
454 397 m 1
 295 342 l 1
 293 350 290 355 285 359 c 0
 281 362 275 364 268 364 c 0
 260 364 253 362 247 358 c 0
 241 354 238 349 238 343 c 0
 238 332 251 325 278 323 c 0
 292 322 300 322 303 321 c 0
 336 315 362 302 382 283 c 0
 418 248 432 204 424 149 c 0
 415 93 388 50 342 20 c 0
 309 -2 267 -12 215 -12 c 0
 171 -11 132 -1 99 18 c 0
 66 37 45 65 38 103 c 1
 199 161 l 1
 203 146 214 139 229 139 c 0
 239 139 247 141 252 144 c 0
 257 147 260 152 260 158 c 0
 260 168 242 175 204 179 c 0
 197 180 191 180 187 181 c 0
 144 189 114 209 96 239 c 0
 78 269 71 304 76 345 c 0
 84 399 108 440 149 468 c 0
 190 496 237 511 286 512 c 0
 333 512 371 502 399 482 c 0
 426 463 444 434 454 397 c 1
EndSplineSet
Validated: 37
EndChar

StartChar: Scaron
Encoding: 352 352 283
GlifName: S_caron
Width: 526
Flags: W
HStem: -12 170<224.844 342.275> 508 21G<389.5 463.636> 542 170<277.906 385.286> 754 146<280 341 434 454>
LayerCount: 2
Fore
SplineSet
186 900 m 5
 341 900 l 5
 380 844 l 5
 434 900 l 5
 589 900 l 5
 454 754 l 5
 280 754 l 5
 186 900 l 5
359 712 m 0
 410 712 454 697 490 667 c 0
 526 637 547 599 552 552 c 1
 390 508 l 1
 389 518 383 527 373 533 c 0
 363 539 351 542 336 542 c 0
 318 542 302 538 289 530 c 0
 276 522 268 511 266 496 c 0
 265 486 268 477 277 470 c 0
 288 460 308 453 336 448 c 0
 401 436 452 411 488 373 c 0
 524 335 538 284 529 219 c 0
 520 154 489 98 436 54 c 0
 383 10 324 -12 258 -12 c 0
 203 -12 157 4 118 36 c 0
 79 68 57 109 51 159 c 1
 213 203 l 1
 215 190 222 179 235 171 c 0
 248 163 264 158 282 158 c 0
 304 158 323 163 339 174 c 0
 355 185 364 200 367 219 c 0
 369 234 364 247 353 257 c 0
 340 269 318 278 286 284 c 0
 226 295 179 319 144 354 c 0
 109 389 97 436 105 496 c 0
 114 557 142 609 192 650 c 0
 242 691 297 712 359 712 c 0
EndSplineSet
Validated: 33
EndChar

StartChar: scaron
Encoding: 353 353 284
GlifName: scaron
Width: 426
Flags: W
HStem: -12 151<157.049 255.229> 364 148<238.278 335.573> 554 146<219 280 373 392>
LayerCount: 2
Fore
SplineSet
125 700 m 5
 280 700 l 5
 318 644 l 5
 373 700 l 5
 527 700 l 5
 392 554 l 5
 219 554 l 5
 125 700 l 5
454 397 m 1
 295 342 l 1
 293 350 290 355 285 359 c 0
 281 362 275 364 268 364 c 0
 260 364 253 362 247 358 c 0
 241 354 238 349 238 343 c 0
 238 332 251 325 278 323 c 0
 292 322 300 322 303 321 c 0
 336 315 362 302 382 283 c 0
 418 248 432 204 424 149 c 0
 415 93 388 50 342 20 c 0
 309 -2 267 -12 215 -12 c 0
 171 -11 132 -1 99 18 c 0
 66 37 45 65 38 103 c 1
 199 161 l 1
 203 146 214 139 229 139 c 0
 239 139 247 141 252 144 c 0
 257 147 260 152 260 158 c 0
 260 168 242 175 204 179 c 0
 197 180 191 180 187 181 c 0
 144 189 114 209 96 239 c 0
 78 269 71 304 76 345 c 0
 84 399 108 440 149 468 c 0
 190 496 237 511 286 512 c 0
 333 512 371 502 399 482 c 0
 426 463 444 434 454 397 c 1
EndSplineSet
Validated: 33
EndChar

StartChar: uni0162
Encoding: 354 354 285
GlifName: uni0162
Width: 584
Flags: W
HStem: -209 120<204.415 286.259> 0 21G<211 375.792> 530 170<115 286 447 643>
LayerCount: 2
Fore
SplineSet
115 700 m 1
 666 700 l 1
 643 530 l 1
 447 530 l 1
 373 0 l 1
 211 0 l 1
 286 530 l 1
 91 530 l 1
 115 700 l 1
370 84 m 1
 404 51 417 8 410 -44 c 0
 404 -89 382 -128 347 -160 c 0
 312 -192 273 -209 230 -209 c 0
 194 -209 164 -197 139 -174 c 1
 192 -108 218 -75 218 -75 c 4
 225 -84 235 -89 247 -89 c 0
 259 -89 270 -85 279 -76 c 0
 288 -67 294 -57 296 -44 c 0
 298 -33 295 -22 289 -14 c 0
 283 -6 275 0 265 1 c 1
 370 84 l 1
EndSplineSet
Validated: 37
EndChar

StartChar: uni0163
Encoding: 355 355 286
GlifName: uni0163
Width: 373
Flags: W
HStem: -204 120<195.415 277.474> 0 21G<273.5 352.706> 330 170<80 127 313 396>
LayerCount: 2
Fore
SplineSet
173 656 m 1
 334 656 l 1
 313 500 l 1
 420 500 l 1
 396 330 l 1
 289 330 l 1
 275 235 l 2
 272 217 277 202 287 189 c 0
 297 176 311 170 328 170 c 2
 373 170 l 1
 350 0 l 1
 304 0 l 2
 243 0 193 23 156 69 c 0
 119 115 105 170 114 235 c 2
 127 330 l 1
 56 330 l 1
 80 500 l 1
 151 500 l 1
 173 656 l 1
362 89 m 1
 396 56 408 13 401 -39 c 0
 395 -84 374 -124 339 -156 c 0
 304 -188 264 -204 221 -204 c 0
 185 -204 155 -192 130 -169 c 1
 183 -103 209 -70 209 -70 c 4
 216 -79 226 -84 238 -84 c 0
 250 -84 261 -80 270 -71 c 0
 279 -62 285 -52 287 -39 c 0
 289 -28 287 -17 281 -9 c 0
 275 -1 266 5 256 6 c 1
 362 89 l 1
EndSplineSet
Validated: 37
EndChar

StartChar: Tcaron
Encoding: 356 356 287
GlifName: T_caron
Width: 584
Flags: W
HStem: 0 21G<211 375.792> 530 170<115 286 447 643> 754 146<304 365 458 478>
VStem: 211 162<0 162>
LayerCount: 2
Fore
SplineSet
210 900 m 5
 365 900 l 5
 404 844 l 5
 458 900 l 5
 613 900 l 5
 478 754 l 5
 304 754 l 5
 210 900 l 5
115 700 m 1
 666 700 l 1
 643 530 l 1
 447 530 l 1
 373 0 l 1
 211 0 l 1
 286 530 l 1
 91 530 l 1
 115 700 l 1
EndSplineSet
Validated: 1
EndChar

StartChar: tcaron
Encoding: 357 357 288
GlifName: tcaron
Width: 431
Flags: W
HStem: 0 21G<273.5 352.706> 330 170<80 127 313 396> 550 150<382 464>
LayerCount: 2
Fore
SplineSet
173 656 m 1
 334 656 l 1
 313 500 l 1
 420 500 l 1
 396 330 l 1
 289 330 l 1
 275 235 l 2
 272 217 277 202 287 189 c 0
 297 176 311 170 328 170 c 2
 373 170 l 1
 350 0 l 1
 304 0 l 2
 243 0 193 23 156 69 c 0
 119 115 105 170 114 235 c 2
 127 330 l 1
 56 330 l 1
 80 500 l 1
 151 500 l 1
 173 656 l 1
340 550 m 5
 382 700 l 1
 525 700 l 1
 464 550 l 5
 340 550 l 5
EndSplineSet
Validated: 33
EndChar

StartChar: Tbar
Encoding: 358 358 289
GlifName: T_bar
Width: 584
Flags: W
HStem: 0 21G<211 375.792> 206 170<157 514> 530 170<115 286 447 643>
VStem: 211 162<0 162>
LayerCount: 2
Fore
SplineSet
115 700 m 1
 666 700 l 1
 643 530 l 1
 447 530 l 1
 373 0 l 1
 211 0 l 1
 286 530 l 1
 91 530 l 1
 115 700 l 1
134 206 m 5
 157 376 l 5
 537 376 l 5
 514 206 l 5
 134 206 l 5
EndSplineSet
Validated: 5
EndChar

StartChar: tbar
Encoding: 359 359 290
GlifName: tbar
Width: 373
Flags: W
HStem: 0 21G<273.5 352.706> 197 109<55 373> 330 170<80 127 313 396>
LayerCount: 2
Fore
SplineSet
173 656 m 1
 334 656 l 1
 313 500 l 1
 420 500 l 1
 396 330 l 1
 289 330 l 1
 275 235 l 2
 272 217 277 202 287 189 c 0
 297 176 311 170 328 170 c 2
 373 170 l 1
 350 0 l 1
 304 0 l 2
 243 0 193 23 156 69 c 0
 119 115 105 170 114 235 c 2
 127 330 l 1
 56 330 l 1
 80 500 l 1
 151 500 l 1
 173 656 l 1
40 197 m 1
 55 306 l 1
 388 306 l 1
 373 197 l 1
 40 197 l 1
EndSplineSet
Validated: 37
EndChar

StartChar: Utilde
Encoding: 360 360 291
GlifName: U_tilde
Width: 665
Flags: W
HStem: -12 170<293.717 421.996> 680 20G<143.173 307 551.225 716> 714 106<489.381 542.148> 786 106<355.56 413.358>
VStem: 146 161<539 700> 554 162<538 700>
LayerCount: 2
Fore
SplineSet
146 700 m 1xcc
 307 700 l 1
 254 318 l 2
 247 269 253 231 273 202 c 0
 293 173 320 158 355 158 c 0
 390 158 421 173 449 202 c 0
 477 231 494 269 501 318 c 2
 554 700 l 1
 716 700 l 1
 662 318 l 2
 649 222 610 143 546 81 c 0
 482 19 411 -12 331 -12 c 0
 251 -12 188 19 142 81 c 0
 96 143 79 222 92 318 c 2
 146 700 l 1xcc
504 714 m 0xec
 465 714 437 726 423 750 c 0
 417 759 412 768 407 775 c 0
 402 782 394 786 383 786 c 0
 369 786 357 773 348 747 c 1
 237 747 l 1
 245 789 265 824 295 851 c 0
 325 878 358 892 392 892 c 0xdc
 434 892 464 880 480 856 c 0
 486 847 491 838 496 831 c 0
 501 824 508 820 518 820 c 0
 531 820 541 833 548 859 c 1
 659 859 l 5
 649 816 629 781 600 754 c 0
 571 727 539 714 504 714 c 0xec
EndSplineSet
Validated: 33
EndChar

StartChar: utilde
Encoding: 361 361 292
GlifName: utilde
Width: 544
Flags: W
HStem: -12 170<246.421 347.622> 480 20G<105.188 270 412.197 577> 534 106<405.655 458.148> 606 106<271.56 329.358>
VStem: 108 162<338 500> 415 162<338 500>
LayerCount: 2
Fore
SplineSet
108 500 m 1xcc
 270 500 l 1
 233 236 l 2
 230 213 234 194 246 180 c 0
 258 166 273 158 294 158 c 0
 315 158 333 166 349 180 c 0
 365 194 375 213 378 236 c 2
 415 500 l 1
 577 500 l 1
 541 244 l 2
 531 172 500 111 447 62 c 0
 394 13 335 -12 270 -12 c 0
 205 -12 154 13 115 62 c 0
 76 111 62 172 72 244 c 2
 108 500 l 1xcc
420 534 m 0xec
 381 534 353 546 339 570 c 0
 333 579 328 588 323 595 c 0
 318 602 310 606 299 606 c 0
 285 606 273 593 264 567 c 1
 153 567 l 1
 161 609 181 644 211 671 c 0
 241 698 274 712 308 712 c 0xdc
 350 712 380 700 396 676 c 0
 402 667 408 658 413 651 c 0
 418 644 424 640 434 640 c 0
 447 640 457 653 464 679 c 1
 575 679 l 5
 565 636 545 601 516 574 c 0
 487 547 455 534 420 534 c 0xec
EndSplineSet
Validated: 33
EndChar

StartChar: Umacron
Encoding: 362 362 293
GlifName: U_macron
Width: 665
Flags: W
HStem: -12 170<293.717 421.996> 680 20G<143.173 307 551.225 716> 749 151<297 599>
VStem: 146 161<539 700> 554 162<538 700>
LayerCount: 2
Fore
SplineSet
276 749 m 1
 297 900 l 1
 620 900 l 1
 599 749 l 1
 276 749 l 1
146 700 m 1
 307 700 l 1
 254 318 l 2
 247 269 253 231 273 202 c 0
 293 173 320 158 355 158 c 0
 390 158 421 173 449 202 c 0
 477 231 494 269 501 318 c 2
 554 700 l 1
 716 700 l 1
 662 318 l 2
 649 222 610 143 546 81 c 0
 482 19 411 -12 331 -12 c 0
 251 -12 188 19 142 81 c 0
 96 143 79 222 92 318 c 2
 146 700 l 1
EndSplineSet
Validated: 33
EndChar

